<svg width="97" height="22" viewBox="0 0 97 22" fill="none" xmlns="http://www.w3.org/2000/svg">
<path d="M0.62 10.42C0.82 9.3 1.21333 8.30667 1.8 7.44C2.4 6.57333 3.12667 5.90667 3.98 5.44C4.83333 4.97333 5.73333 4.74 6.68 4.74C7.50667 4.74 8.2 4.90667 8.76 5.24C9.33333 5.57333 9.75333 5.99333 10.02 6.5L10.3 4.92H13.12L11.16 16H8.34L8.64 14.38C8.2 14.9 7.62667 15.3333 6.92 15.68C6.22667 16.0133 5.46667 16.18 4.64 16.18C3.82667 16.18 3.10667 16 2.48 15.64C1.85333 15.2667 1.36667 14.7467 1.02 14.08C0.673333 13.4 0.5 12.6133 0.5 11.72C0.5 11.3067 0.54 10.8733 0.62 10.42ZM9.32 10.46C9.37333 10.1133 9.4 9.86 9.4 9.7C9.4 8.91333 9.16667 8.3 8.7 7.86C8.24667 7.42 7.67333 7.2 6.98 7.2C6.46 7.2 5.95333 7.32667 5.46 7.58C4.98 7.83333 4.56 8.20667 4.2 8.7C3.84 9.18 3.6 9.75333 3.48 10.42C3.44 10.6733 3.42 10.9133 3.42 11.14C3.42 11.94 3.64667 12.5733 4.1 13.04C4.55333 13.4933 5.12667 13.72 5.82 13.72C6.34 13.72 6.84667 13.5933 7.34 13.34C7.83333 13.0733 8.25333 12.6933 8.6 12.2C8.96 11.7067 9.2 11.1267 9.32 10.46ZM18.7947 6.52C19.248 6.01333 19.8147 5.59333 20.4947 5.26C21.188 4.91333 21.9414 4.74 22.7547 4.74C23.5814 4.74 24.308 4.92 24.9347 5.28C25.5747 5.62667 26.068 6.13333 26.4147 6.8C26.7614 7.46667 26.9347 8.24667 26.9347 9.14C26.9347 9.55333 26.8947 9.98 26.8147 10.42C26.6147 11.5533 26.2147 12.56 25.6147 13.44C25.0147 14.3067 24.288 14.98 23.4347 15.46C22.5814 15.94 21.688 16.18 20.7547 16.18C19.9414 16.18 19.248 16.0133 18.6747 15.68C18.1147 15.3467 17.688 14.9267 17.3947 14.42L16.1947 21.28H13.3747L16.2547 4.92H19.0747L18.7947 6.52ZM23.9547 10.42C23.9947 10.1533 24.0147 9.91333 24.0147 9.7C24.0147 8.91333 23.788 8.3 23.3347 7.86C22.8814 7.42 22.3014 7.2 21.5947 7.2C21.088 7.2 20.588 7.33333 20.0947 7.6C19.6014 7.85333 19.1747 8.22667 18.8147 8.72C18.4547 9.21333 18.2147 9.79333 18.0947 10.46C18.0414 10.8067 18.0147 11.06 18.0147 11.22C18.0147 12.0067 18.2414 12.62 18.6947 13.06C19.1614 13.5 19.7414 13.72 20.4347 13.72C20.9547 13.72 21.4614 13.5867 21.9547 13.32C22.448 13.0533 22.8747 12.6733 23.2347 12.18C23.5947 11.6867 23.8347 11.1 23.9547 10.42ZM28.5294 10.42C28.7294 9.3 29.1227 8.30667 29.7094 7.44C30.3094 6.57333 31.036 5.90667 31.8894 5.44C32.7427 4.97333 33.6427 4.74 34.5894 4.74C35.416 4.74 36.1094 4.90667 36.6694 5.24C37.2427 5.57333 37.6627 5.99333 37.9294 6.5L38.2094 4.92H41.0294L39.0694 16H36.2494L36.5494 14.38C36.1094 14.9 35.536 15.3333 34.8294 15.68C34.136 16.0133 33.376 16.18 32.5494 16.18C31.736 16.18 31.016 16 30.3894 15.64C29.7627 15.2667 29.276 14.7467 28.9294 14.08C28.5827 13.4 28.4094 12.6133 28.4094 11.72C28.4094 11.3067 28.4494 10.8733 28.5294 10.42ZM37.2294 10.46C37.2827 10.1133 37.3094 9.86 37.3094 9.7C37.3094 8.91333 37.076 8.3 36.6094 7.86C36.156 7.42 35.5827 7.2 34.8894 7.2C34.3694 7.2 33.8627 7.32667 33.3694 7.58C32.8894 7.83333 32.4694 8.20667 32.1094 8.7C31.7494 9.18 31.5094 9.75333 31.3894 10.42C31.3494 10.6733 31.3294 10.9133 31.3294 11.14C31.3294 11.94 31.556 12.5733 32.0094 13.04C32.4627 13.4933 33.036 13.72 33.7294 13.72C34.2494 13.72 34.756 13.5933 35.2494 13.34C35.7427 13.0733 36.1627 12.6933 36.5094 12.2C36.8694 11.7067 37.1094 11.1267 37.2294 10.46ZM46.6441 6.88C47.1241 6.21333 47.6841 5.69333 48.3241 5.32C48.9641 4.94667 49.6574 4.76 50.4041 4.76L49.8841 7.7H49.1441C48.3174 7.7 47.6507 7.88 47.1441 8.24C46.6507 8.6 46.2907 9.21333 46.0641 10.08L45.0241 16H42.2041L44.1641 4.92H46.9841L46.6441 6.88ZM60.8816 6.88C61.3616 6.21333 61.9216 5.69333 62.5616 5.32C63.2016 4.94667 63.8949 4.76 64.6416 4.76L64.1216 7.7H63.3816C62.5549 7.7 61.8882 7.88 61.3816 8.24C60.8882 8.6 60.5282 9.21333 60.3016 10.08L59.2616 16H56.4416L58.4016 4.92H61.2216L60.8816 6.88ZM68.5475 3.6C68.1075 3.6 67.7542 3.47333 67.4875 3.22C67.2208 2.96667 67.0875 2.64667 67.0875 2.26C67.0875 1.72667 67.2875 1.27333 67.6875 0.899999C68.1008 0.513332 68.5808 0.319999 69.1275 0.319999C69.5542 0.319999 69.9008 0.446666 70.1675 0.699999C70.4342 0.953332 70.5675 1.27333 70.5675 1.66C70.5675 2.19333 70.3675 2.65333 69.9675 3.04C69.5675 3.41333 69.0942 3.6 68.5475 3.6ZM69.7075 4.92L67.7475 16H64.9275L66.8875 4.92H69.7075ZM71.1739 10.42C71.3739 9.3 71.7672 8.30667 72.3539 7.44C72.9539 6.57333 73.6806 5.90667 74.5339 5.44C75.4006 4.97333 76.3072 4.74 77.2539 4.74C77.9739 4.74 78.6339 4.9 79.2339 5.22C79.8339 5.52667 80.2806 5.94 80.5739 6.46L81.5139 1.2H84.3339L81.7139 16H78.8939L79.1939 14.36C78.7539 14.9067 78.1872 15.3467 77.4939 15.68C76.8139 16.0133 76.0606 16.18 75.2339 16.18C74.4206 16.18 73.6939 16 73.0539 15.64C72.4272 15.2667 71.9339 14.7467 71.5739 14.08C71.2272 13.4 71.0539 12.6133 71.0539 11.72C71.0539 11.3067 71.0939 10.8733 71.1739 10.42ZM79.8739 10.46C79.9272 10.1133 79.9539 9.86 79.9539 9.7C79.9539 8.91333 79.7206 8.3 79.2539 7.86C78.8006 7.42 78.2272 7.2 77.5339 7.2C77.0139 7.2 76.5072 7.32667 76.0139 7.58C75.5339 7.83333 75.1139 8.20667 74.7539 8.7C74.3939 9.18 74.1539 9.75333 74.0339 10.42C73.9939 10.6733 73.9739 10.9133 73.9739 11.14C73.9739 11.94 74.2006 12.5733 74.6539 13.04C75.1072 13.4933 75.6806 13.72 76.3739 13.72C76.8939 13.72 77.4006 13.5933 77.8939 13.34C78.3872 13.0733 78.8072 12.6933 79.1539 12.2C79.5139 11.7067 79.7539 11.1267 79.8739 10.46ZM91.6886 4.74C93.1019 4.74 94.2219 5.13333 95.0486 5.92C95.8753 6.69333 96.2886 7.74 96.2886 9.06C96.2886 9.48667 96.2553 9.86667 96.1886 10.2C96.1086 10.6 96.0219 10.9467 95.9286 11.24H87.8286C87.8153 11.3333 87.8086 11.4667 87.8086 11.64C87.8086 12.3333 88.0086 12.88 88.4086 13.28C88.8219 13.6667 89.3619 13.86 90.0286 13.86C90.5886 13.86 91.0686 13.74 91.4686 13.5C91.8819 13.2467 92.2153 12.92 92.4686 12.52H95.4886C94.9953 13.5867 94.2286 14.4667 93.1886 15.16C92.1619 15.84 90.9953 16.18 89.6886 16.18C88.2753 16.18 87.1419 15.78 86.2886 14.98C85.4353 14.18 85.0086 13.0933 85.0086 11.72C85.0086 11.32 85.0486 10.9 85.1286 10.46C85.3286 9.31333 85.7353 8.30667 86.3486 7.44C86.9753 6.57333 87.7486 5.90667 88.6686 5.44C89.5886 4.97333 90.5953 4.74 91.6886 4.74ZM93.4086 9.54C93.4353 9.32667 93.4486 9.17333 93.4486 9.08C93.4486 8.44 93.2419 7.94 92.8286 7.58C92.4153 7.22 91.8753 7.04 91.2086 7.04C90.5019 7.04 89.8686 7.26667 89.3086 7.72C88.7486 8.16 88.3553 8.76667 88.1286 9.54H93.4086Z" fill="#212121"/>
</svg>
