<svg width="113" height="37" viewBox="0 0 113 37" fill="none" xmlns="http://www.w3.org/2000/svg">
<g clip-path="url(#clip0_842_1466)">
<path d="M113 32.0018C113 34.7663 110.769 37 108.007 37H4.99277C2.23128 37 0 34.7663 0 32.0018V4.99821C0 2.23371 2.23128 0 4.99277 0H108.007C110.769 0 113 2.23371 113 4.99821V32.0018Z" fill="white"/>
<path d="M30.0435 24.5708C29.4249 25.9199 29.1378 26.5391 28.3645 27.7334C27.2599 29.4142 25.7135 31.4931 23.8136 31.4931C22.1125 31.4931 21.6707 30.3873 19.3731 30.3873C17.0756 30.3873 16.5896 31.4931 14.8885 31.4931C12.9665 31.4931 11.5084 29.5911 10.4038 27.9324C7.33306 23.266 7.02378 17.7812 8.90159 14.8619C10.2492 12.783 12.37 11.5887 14.3583 11.5887C16.3466 11.5887 17.6721 12.6945 19.351 12.6945C21.03 12.6945 21.98 11.5887 24.3217 11.5887C26.6635 11.5887 27.9669 12.5618 29.3145 14.2205C24.9182 16.6312 25.6472 22.89 30.0656 24.5708H30.0435Z" fill="#161616"/>
<path d="M22.5343 9.70889C23.3958 8.60309 24.0365 7.07709 23.7935 5.48474C22.4017 5.57321 20.7669 6.45784 19.817 7.62999C18.9554 8.66944 18.2484 10.2397 18.5135 11.7436C20.0379 11.7878 21.6064 10.881 22.5122 9.70889H22.5343Z" fill="#161616"/>
<path d="M39.3885 14.7956L34.9922 27.7334H37.0026L38.306 23.7526H42.5476L43.8952 27.7334H45.9719L41.5535 14.7956H39.3664H39.3885ZM40.4268 16.9187C40.5814 17.4937 40.7361 18.0909 40.9349 18.7544L42.1279 22.1823H38.7699L39.9408 18.7322C40.1175 18.1793 40.2942 17.5601 40.4489 16.9187H40.4268Z" fill="#171717"/>
<path d="M51.6725 18.1572C50.3469 18.1572 49.2644 18.6659 48.5575 19.6611L48.4691 18.3784H46.6797V18.5332C46.746 19.3294 46.7681 20.214 46.7681 21.4746V31.4489H48.7342V26.8046C49.3307 27.5344 50.3028 27.9546 51.4074 27.9546C52.5119 27.9546 53.5944 27.5123 54.3677 26.694C55.2292 25.7872 55.6711 24.4824 55.6711 22.9343C55.6711 21.3862 55.2734 20.3688 54.5444 19.5063C53.8154 18.6438 52.7991 18.1793 51.6725 18.1793V18.1572ZM51.1864 19.7717C52.9317 19.7717 53.7049 21.3862 53.7049 23.0006C53.7049 24.6151 52.7108 26.3401 51.0981 26.3401C49.4854 26.3401 49.0656 25.5882 48.8005 24.5266C48.7563 24.3497 48.7342 24.1507 48.7342 23.8853V22.315C48.7342 22.1823 48.7563 22.0054 48.8005 21.8285C48.8005 21.7842 48.8005 21.7179 48.8226 21.6737C49.1098 20.5458 50.0818 19.7717 51.1864 19.7717Z" fill="#171717"/>
<path d="M61.7467 18.1572C60.4212 18.1572 59.3387 18.6659 58.6317 19.6611L58.5434 18.3784H56.7539V18.5332C56.8202 19.3293 56.8423 20.214 56.8423 21.4746V31.4489H58.8085V26.8045C59.4049 27.5344 60.377 27.9546 61.4816 27.9546C62.5862 27.9546 63.6687 27.5122 64.4419 26.694C65.3035 25.7872 65.7453 24.4824 65.7453 22.9342C65.7453 21.3861 65.3477 20.3688 64.6186 19.5063C63.8896 18.6437 62.8734 18.1793 61.7467 18.1793V18.1572ZM61.2606 19.7717C63.0059 19.7717 63.7791 21.3861 63.7791 23.0006C63.7791 24.6151 62.785 26.3401 61.1723 26.3401C59.5596 26.3401 59.1398 25.5882 58.8747 24.5266C58.8305 24.3497 58.8085 24.1506 58.8085 23.8852V22.315C58.8085 22.1823 58.8305 22.0054 58.8747 21.8284C58.8747 21.7842 58.8747 21.7179 58.8968 21.6736C59.184 20.5457 60.1561 19.7717 61.2606 19.7717Z" fill="#171717"/>
<path d="M74.3618 20.2803C72.5282 19.5726 71.9538 19.0197 71.9538 17.9803C71.9538 16.9408 72.6387 16.2331 74.1851 16.2331C75.7315 16.2331 76.2617 16.6754 76.4826 16.8081L76.6373 16.9187L77.1896 15.2821L77.0791 15.2158C76.7477 15.0167 75.8199 14.5744 74.2293 14.5744C71.7329 14.5744 69.9876 16.0562 69.9876 18.1572C69.9876 20.2582 71.0701 21.0544 73.4119 21.8948C75.0688 22.514 75.6873 23.1554 75.6873 24.2391C75.6873 25.3228 74.7374 26.2295 73.191 26.2295C71.6445 26.2295 71.1585 25.942 70.3632 25.4333L70.1865 25.3228L69.6562 27.0036L69.7446 27.0699C70.4737 27.5565 71.8654 27.9103 73.0584 27.9103C76.4164 27.9103 77.6093 25.8535 77.6093 24.1064C77.6093 22.3592 76.6594 21.1871 74.3176 20.2582L74.3618 20.2803Z" fill="#171717"/>
<path d="M81.164 16.1226L79.242 16.7197V18.3563H77.8281V19.9265H79.242V24.7257C79.242 25.8757 79.4629 26.694 79.9269 27.2027C80.3687 27.6892 81.0314 27.9546 81.8268 27.9546C82.6221 27.9546 83.086 27.7998 83.329 27.7113L83.4395 27.6671L83.3511 26.0969L83.1744 26.1632C82.9314 26.2296 82.6662 26.2738 82.2686 26.2738C81.5175 26.2738 81.1861 25.7872 81.1861 24.6593V19.9265H83.5499V18.3563H81.1861V16.1226H81.164Z" fill="#171717"/>
<path d="M88.3893 18.1572C85.6499 18.1572 83.75 20.1919 83.75 23.1333C83.75 26.0747 85.6057 27.9546 88.2567 27.9546C90.488 27.9546 92.896 26.3843 92.896 22.9564C92.896 19.5284 92.4763 20.3688 91.6589 19.4841C90.8415 18.5995 89.7148 18.1351 88.3893 18.1351V18.1572ZM88.323 19.7053C90.0904 19.7053 90.8857 21.4303 90.8857 23.0227C90.8857 24.615 89.8032 26.4064 88.2788 26.4064C86.7987 26.4064 85.7162 25.0131 85.7162 23.0669C85.7162 21.1207 86.5336 19.7053 88.323 19.7053Z" fill="#171717"/>
<path d="M98.8837 18.2457H98.7732C98.5965 18.1793 98.4639 18.1572 98.2872 18.1572C97.2709 18.1572 96.3431 18.7544 95.835 19.7275L95.7687 18.3563H94.0234V18.5111C94.0897 19.2851 94.1118 20.1477 94.1118 21.3198V27.7113H96.0559V22.7131C96.0559 22.4477 96.0559 22.1823 96.1001 21.9612C96.321 20.7669 97.1384 19.9929 98.1546 19.9929C99.1708 19.9929 98.5081 19.9929 98.6848 20.015H98.8837V18.2015V18.2457Z" fill="#171717"/>
<path d="M103.278 18.1351C100.671 18.1351 98.8594 20.214 98.8594 23.1996C98.8594 26.1853 100.671 27.9324 103.477 27.9324C106.282 27.9324 105.973 27.6007 106.569 27.3353L106.68 27.2911L106.304 25.8314L106.15 25.8978C105.619 26.1189 104.913 26.3401 103.697 26.3401C102.482 26.3401 100.892 26.0526 100.759 23.5092H107.078L107.1 23.3987C107.144 23.1996 107.166 22.9342 107.166 22.5804C107.166 20.5457 106.15 18.1572 103.278 18.1572V18.1351ZM103.145 19.6168C103.742 19.6168 104.228 19.7938 104.581 20.1697C105.133 20.7448 105.244 21.5852 105.244 21.9832H100.781C100.958 20.8553 101.665 19.6168 103.123 19.6168H103.145Z" fill="#171717"/>
<path d="M34.9922 5.97132C35.5445 5.90497 36.1631 5.83862 36.87 5.83862C38.1292 5.83862 39.035 6.10401 39.6315 6.59057C40.2501 7.09923 40.6035 7.80694 40.6035 8.80216C40.6035 9.79738 40.2501 10.6157 39.6315 11.1907C38.9908 11.7657 37.9304 12.0753 36.627 12.0753C35.3236 12.0753 35.4782 12.0753 35.0143 12.009V5.99343L34.9922 5.97132ZM35.898 11.3897C36.1189 11.434 36.4503 11.434 36.7816 11.434C38.6594 11.434 39.6757 10.483 39.6757 8.84639C39.6757 7.38674 38.7699 6.47999 36.9142 6.47999C35.0585 6.47999 36.1189 6.52422 35.8759 6.56845V11.4118L35.898 11.3897Z" fill="#171717"/>
<path d="M43.7402 12.0974C42.4368 12.0974 41.3984 11.2349 41.3984 9.84161C41.3984 8.4483 42.4809 7.49731 43.8285 7.49731C45.1762 7.49731 46.1703 8.40407 46.1703 9.75314C46.1703 11.1022 44.911 12.0974 43.7402 12.0974ZM43.7623 11.5003C44.6018 11.5003 45.2424 10.7926 45.2424 9.77526C45.2424 8.75792 44.8227 8.09444 43.7844 8.09444C42.746 8.09444 42.2821 8.95697 42.2821 9.79737C42.2821 10.6378 42.8786 11.4782 43.7402 11.4782L43.7623 11.5003Z" fill="#171717"/>
<path d="M47.5841 7.60787L48.2469 9.84158C48.3794 10.3281 48.512 10.7926 48.6003 11.257H48.6224C48.7329 10.8147 48.8875 10.3502 49.0643 9.8637L49.8596 7.62999H50.6107L51.3618 9.81947C51.5386 10.3281 51.6932 10.8147 51.8037 11.257H51.8258C51.9141 10.8147 52.0467 10.3503 52.2013 9.81947L52.8862 7.60787H53.7698L52.2013 12.0089H51.3839L50.6328 9.90793C50.4561 9.39926 50.3235 8.97906 50.191 8.44828C50.0805 8.97906 49.9258 9.4435 49.7491 9.90793L48.9538 11.9868H48.1364L46.6562 7.58575H47.562L47.5841 7.60787Z" fill="#171717"/>
<path d="M54.6536 8.80216C54.6536 8.33772 54.6536 7.98387 54.6094 7.60789H55.4047L55.4489 8.3156C55.6919 7.91752 56.2663 7.49731 57.0616 7.49731C57.8569 7.49731 58.7847 7.85117 58.7847 9.37717V12.009H57.9011V9.46563C57.9011 8.75792 57.6139 8.16079 56.7744 8.16079C55.9349 8.16079 55.7361 8.53676 55.5814 8.97908C55.5372 9.08966 55.5151 9.22236 55.5151 9.35505V12.009H54.6315V8.80216H54.6536Z" fill="#171717"/>
<path d="M60.2422 5.55109H61.1259V12.0089H60.2422V5.55109Z" fill="#171717"/>
<path d="M64.5996 12.0974C63.2961 12.0974 62.2578 11.2349 62.2578 9.84161C62.2578 8.4483 63.3403 7.49731 64.6879 7.49731C66.0355 7.49731 67.0297 8.40407 67.0297 9.75314C67.0297 11.1022 65.7704 12.0974 64.5996 12.0974ZM64.6216 11.5003C65.4611 11.5003 66.1018 10.7926 66.1018 9.77526C66.1018 8.75792 65.6821 8.09444 64.6437 8.09444C63.6054 8.09444 63.1415 8.95697 63.1415 9.79737C63.1415 10.6378 63.738 11.4782 64.5996 11.4782L64.6216 11.5003Z" fill="#171717"/>
<path d="M71.5784 10.9474C71.5784 11.3234 71.5784 11.6994 71.6446 12.009H70.8493L70.761 11.4561H70.7389C70.4738 11.8099 69.9436 12.1196 69.2366 12.1196C68.2425 12.1196 67.7344 11.5003 67.7344 10.859C67.7344 9.79739 68.7727 9.22238 70.6726 9.22238V9.13391C70.6726 8.78006 70.5621 8.11658 69.568 8.11658C69.1041 8.11658 68.6401 8.22716 68.2867 8.44832L68.0878 7.91754C68.4855 7.69638 69.082 7.54156 69.7006 7.54156C71.2028 7.54156 71.5563 8.44832 71.5563 9.33296V10.9695L71.5784 10.9474ZM70.7168 9.75316C69.7447 9.75316 68.6401 9.88586 68.6401 10.7484C68.6401 11.6109 69.0157 11.5224 69.4575 11.5224C70.0982 11.5224 70.5179 11.1686 70.6505 10.7926C70.6726 10.7041 70.6947 10.6157 70.6947 10.5272V9.75316H70.7168Z" fill="#171717"/>
<path d="M77.2111 5.55111V10.8589C77.2111 11.257 77.2111 11.6993 77.2553 11.9869H76.46L76.4158 11.2128C76.1507 11.6993 75.5542 12.0753 74.7589 12.0753C73.588 12.0753 72.6602 11.1686 72.6602 9.8416C72.6602 8.35983 73.6764 7.4752 74.8473 7.4752C76.0181 7.4752 76.1065 7.78482 76.3274 8.13867V5.52899H77.2111V5.55111ZM76.3274 9.39928C76.3274 9.2887 76.3274 9.15601 76.2832 9.04543C76.1507 8.53676 75.6647 8.13867 75.0019 8.13867C74.3391 8.13867 73.5438 8.8685 73.5438 9.81949C73.5438 10.7705 74.0299 11.4561 74.9798 11.4561C75.9298 11.4561 76.1286 11.1022 76.2832 10.5051C76.3053 10.3945 76.3274 10.2839 76.3274 10.1512V9.37717V9.39928Z" fill="#171717"/>
<path d="M82.8222 12.0974C81.5188 12.0974 80.4805 11.2349 80.4805 9.84161C80.4805 8.4483 81.563 7.49731 82.9106 7.49731C84.2582 7.49731 85.2523 8.40407 85.2523 9.75314C85.2523 11.1022 83.9931 12.0974 82.8222 12.0974ZM82.8443 11.5003C83.6838 11.5003 84.3245 10.7926 84.3245 9.77526C84.3245 8.75792 83.9047 8.09444 82.8664 8.09444C81.8281 8.09444 81.3641 8.95697 81.3641 9.79737C81.3641 10.6378 81.9606 11.4782 82.8222 11.4782L82.8443 11.5003Z" fill="#171717"/>
<path d="M86.3567 8.80216C86.3567 8.33772 86.3567 7.98387 86.3125 7.60789H87.1078L87.152 8.3156C87.395 7.91752 87.9694 7.49731 88.7647 7.49731C89.56 7.49731 90.4879 7.85117 90.4879 9.37717V12.009H89.6042V9.46563C89.6042 8.75792 89.317 8.16079 88.4775 8.16079C87.638 8.16079 87.4392 8.53676 87.2845 8.97908C87.2404 9.08966 87.2183 9.22236 87.2183 9.35505V12.009H86.3346V8.80216H86.3567Z" fill="#171717"/>
<path d="M95.17 6.54633V7.60789H96.4292V8.22714H95.17V10.5935C95.17 11.1464 95.3467 11.4561 95.8327 11.4561C96.3187 11.4561 96.2083 11.4561 96.3408 11.4118L96.385 12.0311C96.2083 12.0753 95.9432 12.1417 95.5897 12.1417C95.2362 12.1417 94.8386 12.009 94.6398 11.8099C94.3967 11.5666 94.2863 11.1686 94.2863 10.6599V8.27137H93.5352V7.65212H94.2863V6.83383L95.1479 6.59056L95.17 6.54633Z" fill="#171717"/>
<path d="M97.4479 5.55109H98.3316V8.29347C98.4641 8.07231 98.685 7.85115 98.9722 7.74057C99.2373 7.58575 99.5466 7.51941 99.878 7.51941C100.541 7.51941 101.579 7.87326 101.579 9.39926V12.0089H100.695V9.48773C100.695 8.78002 100.408 8.18289 99.5687 8.18289C98.7292 8.18289 98.5525 8.53674 98.3757 8.97906C98.3315 9.08964 98.3095 9.20022 98.3095 9.35503V12.0089H97.4258V5.55109H97.4479Z" fill="#171717"/>
<path d="M103.544 9.95219C103.544 11.0359 104.317 11.4782 105.201 11.4782C106.084 11.4782 106.239 11.3676 106.548 11.257L106.703 11.8099C106.394 11.9426 105.841 12.0974 105.068 12.0974C103.566 12.0974 102.66 11.1907 102.66 9.88584C102.66 8.581 103.544 7.49731 104.958 7.49731C106.372 7.49731 106.968 8.75792 106.968 9.57621C106.968 10.3945 106.968 9.86372 106.946 9.95219H103.522H103.544ZM106.129 9.37717C106.129 8.8685 105.886 8.07233 104.914 8.07233C103.941 8.07233 103.632 8.82427 103.544 9.37717H106.129Z" fill="#171717"/>
</g>
<defs>
<clipPath id="clip0_842_1466">
<rect width="113" height="37" fill="white"/>
</clipPath>
</defs>
</svg>
