<svg width="102" height="102" viewBox="0 0 102 102" fill="none" xmlns="http://www.w3.org/2000/svg">
<g clip-path="url(#clip0_2009_1873)">
<path d="M80.2192 58.5935C79.7952 59.3282 79.5245 60.0938 79.2538 60.8595C78.9831 61.6251 78.5948 62.4957 78.1458 63.2736C77.2977 64.7429 76.1071 66.0145 75.0022 67.3356C72.885 69.9159 70.8463 72.6569 68.2225 74.8295C65.859 76.7489 63.1634 77.9581 60.1608 78.4137C57.1583 78.8693 54.5763 78.9917 51.7699 79.5029C48.9635 80.0142 45.9569 79.4879 43.2247 78.4863C40.4675 77.5278 37.7815 76.1495 35.2131 74.6662C32.6447 73.1829 29.812 70.9708 27.7068 68.4873C25.6194 66.0718 24.0882 63.2859 23.0134 60.3027C21.8601 57.1589 21.42 53.966 21.3685 50.5942C21.317 47.2224 21.6087 45.4316 22.3172 43.0173C23.0258 40.6031 24.3974 37.5345 26.0154 35.1268C27.6334 32.7191 29.8436 30.7687 32.2857 29.0098C37.3553 25.3686 43.4381 22.543 49.7038 22.0704C55.9695 21.5977 60.9594 23.0389 65.8215 25.7892C70.7513 28.521 75.1826 32.8088 77.3069 38.1268C78.4744 41.0483 78.8967 44.1733 79.4116 47.2365C79.662 48.8793 80.0479 50.4851 80.2555 52.1031C80.4631 53.7212 80.4209 55.0798 80.1933 56.5618C79.9658 58.0438 79.9479 57.9759 79.8127 58.7045C79.6775 59.4331 79.756 59.5937 79.8133 60.0878C79.8706 60.5819 80.177 59.9521 80.2269 59.8657C80.4265 59.5199 80.5475 59.0136 80.4831 58.6307L80.3901 58.0008L80.3547 58.5565C80.6999 56.9696 80.9595 55.3332 81.0408 53.7091C81.1221 52.085 80.9323 50.5349 80.5893 48.9538C79.9887 45.8411 79.6592 42.6545 78.8803 39.554C78.1014 36.4536 76.8271 33.8161 74.9608 31.413C73.0946 29.0099 71.0823 27.1564 68.7243 25.5064C63.9832 22.2498 58.2906 20.3452 52.5702 20.2685C46.2294 20.1791 40.0893 22.5106 34.77 25.8924C29.4506 29.2741 29.604 29.305 27.6793 31.6508C25.7546 33.9966 24.3007 36.6143 23.1964 39.3187C20.9629 44.7706 20.2488 50.7542 21.1216 56.5595C21.9944 62.3649 22.7258 63.0754 24.2927 65.9971C25.8597 68.9188 28.0505 71.4517 30.6014 73.5587C33.1522 75.6657 35.7705 77.0625 38.6099 78.4718C41.4493 79.8811 44.1316 80.9692 47.1025 81.3596C50.0734 81.75 52.9011 80.9053 55.8467 80.6473C58.6817 80.383 61.4919 80.162 64.1197 78.9713C66.7475 77.7806 69.5708 75.2624 71.6809 72.7931C72.7858 71.4721 73.823 70.1696 74.928 68.8485C76.0329 67.5275 77.2056 66.1879 78.1215 64.7001C79.0373 63.2122 78.9945 63.1875 79.2901 62.3786C79.5858 61.5698 79.8136 60.7794 80.1699 60.0633C80.5262 59.3471 80.5333 59.2359 80.4939 58.8098C80.4545 58.3837 80.3439 58.3774 80.1444 58.7232L80.2192 58.5935Z" fill="#383838"/>
<path d="M32.7982 81.5138C38.5734 84.5609 45.4757 88.0285 52.0263 86.5679C58.5698 85.2185 64.0909 86.3326 70.0126 82.2039C74.4619 79.2417 77.8405 74.2782 81.2659 70.3213C82.8913 68.4941 84.3845 66.3025 85.2074 64.1847C85.592 63.0239 86.3147 60.3873 86.3147 60.3873C87.0834 56.6824 87.4778 53.6258 86.6201 49.6731C85.3297 43.108 85.1199 36.6484 81.6045 30.8728C74.2882 18.9261 58.5329 12.305 44.8756 15.5965C37.2589 17.4209 30.4848 21.3454 24.5492 26.3881C19.9256 30.3444 15.8141 39.1487 15.0502 45.2188C14.4956 49.0473 14.5852 50.0787 14.701 53.8334C14.9207 58.3971 16.2459 63.0232 18.2947 67.0875C21.2469 73.3446 26.8518 78.3678 32.7982 81.5138ZM24.0957 64.1568C22.4216 60.8275 21.3785 56.9983 21.1521 53.2373C21.0188 50.1063 20.9827 49.2788 21.4271 46.1357C22.0774 41.1524 25.4692 33.8916 29.2266 30.6451C34.0605 26.5221 39.7045 23.2702 45.9483 21.7477C57.2165 19.0357 70.161 24.4945 76.1925 34.3162C79.1083 39.0541 79.2783 44.3959 80.3328 49.7875C81.0369 53.0176 80.6957 55.5865 80.0801 58.6307L80.1553 59.1927L80.1054 59.2791C79.6314 60.1002 79.4784 60.7609 79.1757 61.6809C78.4846 63.4715 77.2408 65.2309 75.9255 66.7186C73.1204 69.9965 70.3084 74.0772 66.6933 76.4839C61.7913 79.9338 57.2581 78.9869 51.8843 80.0898C46.4605 81.2792 40.7817 78.4606 36.016 75.9388C31.0791 73.3182 26.5053 69.1786 24.06 64.021L24.0957 64.1568Z" fill="#00B832"/>
<path d="M85.9387 60.7451C85.4149 61.6527 85.1051 62.6838 84.7525 63.6903C84.3999 64.6967 83.9438 65.5858 83.4021 66.4254C82.2689 68.191 80.8858 69.6972 79.6063 71.3208C77.0543 74.4567 74.6057 77.7101 71.4935 80.2344C68.3813 82.7588 65.4219 83.9307 61.7916 84.4849C58.1614 85.039 58.4823 84.8786 56.8526 85.0322C55.2229 85.1859 53.3828 85.5062 51.6105 85.8079C48.1088 86.4362 44.4958 85.675 41.2 84.4631C37.9042 83.2512 34.5262 81.5885 31.4262 79.7406C28.3263 77.8928 25.012 75.2296 22.5178 72.2334C20.0237 69.2372 18.2033 65.7657 16.9748 62.0599C15.7463 58.3541 15.2988 54.5807 15.2399 50.6284C15.1811 46.6761 15.6186 44.3358 16.4732 41.372C17.3277 38.4081 18.963 34.6851 20.9052 31.7156C22.8475 28.7461 22.8084 29.0116 23.9669 27.8944C25.1254 26.7772 26.7832 25.4873 28.2734 24.3887C34.3946 19.9143 41.6932 16.4656 49.257 15.8206C56.8207 15.1756 62.9947 16.8396 68.9768 20.1215C74.8912 23.4219 80.3107 28.5685 82.8314 34.9798C84.2275 38.4942 84.7427 42.2492 85.3507 45.9423C85.9586 49.6355 86.1049 49.7776 86.359 51.7107C86.6131 53.6437 86.5497 55.3357 86.3009 57.1512C86.052 58.9667 86.0092 58.9419 85.842 59.825C85.6748 60.708 85.7533 60.8686 85.8285 61.4306C85.9966 62.6225 87.1481 61.6164 87.0443 60.8074C86.9405 59.9984 87.0049 60.3813 86.9264 60.2207C86.837 59.881 86.8124 60.6159 86.9762 60.1342C87.1401 59.6526 87.0973 59.6279 87.1364 59.3624C87.3285 58.4362 87.4779 57.4852 87.5595 56.5528C87.7904 54.6694 87.7824 52.7056 87.5034 50.8157C87.2243 48.9259 86.7812 46.8261 86.4843 44.8683C86.1874 42.9106 85.8655 40.996 85.4331 39.0753C84.6111 35.2585 83.2401 31.7008 80.999 28.5627C78.758 25.4245 76.4852 23.1324 73.6455 21.0314C68.0089 16.8543 61.0927 14.3007 54.0171 13.9022C46.3637 13.5158 38.8399 15.9702 32.2869 19.9072C30.5578 20.9253 28.8643 22.0794 27.2315 23.3261C25.5987 24.5728 24.269 25.5911 22.9857 26.9244C20.487 29.5725 18.6162 32.8138 17.1627 36.1232C14.2377 42.674 13.3281 49.9853 14.362 57.0937C14.9666 61.1883 16.3164 65.0794 18.2153 68.7114C20.0964 72.2755 22.7618 75.3706 25.8371 77.9534C28.9124 80.5361 32.1728 82.3038 35.6364 84.016C38.9288 85.6292 42.4066 87.1191 46.1015 87.6395C47.9061 87.875 49.7249 87.8882 51.4544 87.5617C53.1839 87.2352 55.0418 86.9828 56.8748 86.7737C60.3125 86.4542 63.7931 86.1593 66.9878 84.7775C70.7317 83.1365 73.7546 80.2725 76.3673 77.2292C78.9799 74.1859 79.012 74.0315 80.3593 72.3895C81.7066 70.7474 83.2072 69.1363 84.3476 67.2595C85.4879 65.3827 85.4202 65.4012 85.7478 64.438C86.0755 63.4747 86.3853 62.4436 86.9091 61.536C87.4329 60.6285 87.1262 60.5666 86.8087 60.3256C86.4912 60.0846 86.0884 60.4858 85.9387 60.7451Z" fill="#383838"/>
<path d="M48.7785 50.1744C40.9631 46.41 33.4042 42.1023 26.2124 37.2575C34.0278 41.0219 41.5867 45.3296 48.7785 50.1744Z" fill="#383838"/>
<path d="M76.2473 65.8663C68.9883 62.4233 61.9859 58.4369 55.3078 53.8888C62.5667 57.3318 69.5691 61.3182 76.2473 65.8663Z" fill="#383838"/>
<path d="M49.5883 47.1857C45.7905 39.9216 42.5845 32.4232 39.9705 24.6903C43.7683 31.9544 46.9742 39.4528 49.5883 47.1857Z" fill="#383838"/>
<path d="M62.7027 77.8652C58.8264 70.4405 55.5669 62.7382 52.8315 54.8201C56.7078 62.2447 59.9674 69.947 62.7027 77.8652Z" fill="#383838"/>
<path d="M52.5851 46.8414C53.9009 38.7275 55.8123 30.6694 58.3551 22.8031C57.0821 30.9417 55.1278 38.9751 52.5851 46.8414Z" fill="#383838"/>
<path d="M44.7876 79.3332C46.1674 70.9105 48.1608 62.6116 50.7426 54.4797C49.3627 62.9024 47.3694 71.2013 44.7876 79.3332Z" fill="#383838"/>
<path d="M55.1356 48.2569C61.028 42.4979 67.3592 37.1652 74.0117 32.3638C68.1193 38.1228 61.788 43.4555 55.1356 48.2569Z" fill="#383838"/>
<path d="M29.6007 69.7542C35.7035 63.8285 42.2451 58.3292 49.1328 53.3179C43.0051 59.2867 36.4885 64.7428 29.6007 69.7542Z" fill="#383838"/>
<path d="M56.6316 50.9065C64.6909 49.7986 72.8004 49.2959 80.9102 49.4849C72.8509 50.5928 64.7414 51.0955 56.6316 50.9065Z" fill="#383838"/>
<path d="M23.2403 52.886C31.699 51.7783 40.2328 51.2325 48.6992 51.397C40.2405 52.5047 31.7316 53.0072 23.2403 52.886Z" fill="#383838"/>
<path d="M49.1359 56.3745C46.4391 54.8171 45.5281 51.3523 47.0996 48.6296C48.6711 45.907 52.1264 44.9637 54.8232 46.5211C57.52 48.0786 58.431 51.5434 56.8595 54.2661C55.288 56.9887 51.8327 57.932 49.1359 56.3745Z" fill="#383838"/>
</g>
<defs>
<clipPath id="clip0_2009_1873">
<rect width="74" height="74" fill="white" transform="matrix(-0.499895 0.866086 -0.865965 -0.500105 101.809 37.0078)"/>
</clipPath>
</defs>
</svg>
