<svg width="74" height="74" viewBox="0 0 74 74" fill="none" xmlns="http://www.w3.org/2000/svg">
<g clip-path="url(#clip0_2009_1888)">
<path d="M44.5083 66.0987C43.6601 66.0987 42.8617 66.247 42.0633 66.3953C41.2649 66.5436 40.3168 66.6424 39.4187 66.6424C37.7221 66.6424 36.0255 66.247 34.329 65.9504C31.0357 65.4066 27.6425 65.0112 24.449 63.8248C21.6048 62.7373 19.2096 61.0072 17.3135 58.6344C15.4173 56.2617 14.0201 54.0867 12.1739 51.9116C10.3276 49.7366 9.27976 46.8696 8.78077 44.0025C8.23188 41.1354 8.08218 38.1201 8.08218 35.1541C8.08218 32.1882 8.58118 28.6291 9.67895 25.5643C10.7268 22.5489 12.3735 19.8301 14.4193 17.408C16.565 14.8375 19.1098 12.8602 22.004 11.1301C24.8981 9.39995 26.5947 8.75733 29.0397 8.16414C31.4848 7.57095 34.828 7.22493 37.7221 7.42266C40.6162 7.62039 43.4106 8.5596 46.155 9.79541C51.8435 12.3659 57.3324 16.2216 60.8752 21.412C64.418 26.6024 65.6655 31.6444 65.7154 37.2303C65.8152 42.8655 64.3182 48.8468 60.7754 53.3452C58.8293 55.8168 56.3344 57.7446 53.9392 59.7219C52.6419 60.76 51.4443 61.8969 50.1469 62.8856C48.8495 63.8742 47.652 64.5169 46.2548 65.0606C44.8576 65.6044 44.9075 65.5549 44.209 65.8021C43.5104 66.0493 43.4106 66.1975 43.0114 66.4941C42.6122 66.7907 43.3108 66.7413 43.4106 66.7413C43.8098 66.7413 44.3088 66.593 44.6081 66.3458L45.1071 65.9504L44.6081 66.1975C46.155 65.7032 47.7019 65.11 49.1489 64.3686C50.596 63.6271 51.8435 62.6879 53.0411 61.6004C55.4362 59.5242 58.0309 57.6458 60.3263 55.4213C62.6216 53.1969 64.2683 50.7747 65.416 47.9571C66.5636 45.1394 67.1624 42.4701 67.4119 39.603C67.861 33.8689 66.6634 27.9865 63.8691 22.9938C60.7754 17.4574 55.6857 13.3051 50.097 10.3886C44.5084 7.47209 44.5582 7.62039 41.5643 7.12606C38.5704 6.63174 35.5765 6.68118 32.6823 7.07663C26.8442 7.86755 21.3054 10.2403 16.7147 13.8983C12.124 17.5563 11.8745 18.5449 10.128 21.3625C8.38158 24.1802 7.2838 27.3438 6.73492 30.6064C6.18603 33.8689 6.28583 36.8348 6.48542 39.9985C6.68501 43.1621 7.08421 46.0292 8.23188 48.7974C9.37955 51.5656 11.5252 53.5923 13.2218 56.0145C14.8684 58.3378 16.4652 60.6611 18.8104 62.3418C21.1557 64.0225 24.7484 65.2089 27.9419 65.8021C29.6385 66.0987 31.2852 66.3458 32.9817 66.6424C34.6783 66.939 36.4247 67.2851 38.1712 67.3345C39.9177 67.3839 39.9177 67.3345 40.7659 67.1862C41.6142 67.0379 42.4126 66.8402 43.211 66.7907C44.0094 66.7413 44.1092 66.6919 44.4584 66.4447C44.8077 66.1975 44.7578 66.0987 44.3586 66.0987L44.5083 66.0987Z" fill="#2E2E2E"/>
<path d="M0.946483 36.4889C1.19598 43.0139 1.64507 50.7253 6.18586 55.6686C10.6269 60.6612 12.4232 65.9999 18.96 69.0647C23.7503 71.4374 29.7381 71.8823 34.8777 72.871C37.2728 73.3653 39.9175 73.563 42.1629 73.217C43.3605 72.9698 46.0051 72.2778 46.0051 72.2778C49.5979 71.0914 52.4421 69.905 55.436 67.1863C60.4758 62.7868 65.9647 59.376 69.2081 53.4441C75.8946 41.1355 73.7489 24.1802 64.0685 13.9972C58.6795 8.31251 51.8932 4.40737 44.5581 1.78746C38.8197 -0.239261 29.1393 0.601093 23.5008 2.97383C19.9081 4.40737 19.0598 5.00055 15.8662 6.97784C12.024 9.44945 8.68081 12.9097 6.18586 16.716C2.24386 22.4007 0.696987 29.7661 0.946483 36.4889ZM11.6248 20.2751C13.6707 17.1609 16.465 14.3432 19.6087 12.2671C22.2533 10.5864 22.9519 10.1415 25.8959 8.95513C30.5365 7.02727 38.5203 6.33522 43.2108 7.96649C49.1987 10.0921 54.8372 13.3546 59.2782 18.0012C67.2621 26.4047 69.0085 40.3446 63.5196 50.4782C60.875 55.372 56.3342 58.1896 52.1926 61.7981C49.7476 64.0226 47.3524 65.0112 44.4084 65.9999L43.9593 66.3459L43.8595 66.3459C42.9114 66.3459 42.2627 66.5436 41.3147 66.7414C39.4185 67.038 37.2728 66.8402 35.3268 66.4448C31.0854 65.6539 26.1454 65.2584 22.2533 63.3305C16.8143 60.8095 15.3672 56.41 11.7246 52.3072C7.98222 48.2043 7.58303 41.877 7.38343 36.4889C7.18383 30.903 8.48121 24.8723 11.7246 20.1762L11.6248 20.2751Z" fill="#FF6600"/>
<path d="M45.5072 72.1296C44.4593 72.1296 43.4115 72.3768 42.3636 72.5745C41.3157 72.7722 40.3177 72.8217 39.3197 72.7722C37.224 72.6734 35.228 72.2285 33.1822 71.9319C29.1903 71.2893 25.1485 70.795 21.4061 69.3614C17.6636 67.9279 15.1687 65.9506 12.8734 63.0835C10.578 60.2165 10.8774 60.4142 9.92933 59.0795C8.98126 57.7449 7.78368 56.3113 6.636 54.9272C4.34065 52.2084 3.19298 48.6988 2.5942 45.2385C1.99541 41.7782 1.74592 38.0214 1.79582 34.4129C1.84571 30.8043 2.4944 26.6026 3.84166 22.9446C5.18894 19.2866 7.2847 15.9746 9.87943 13.0581C12.4742 10.1416 15.518 7.86776 18.9111 5.84104C22.3042 3.81433 24.5497 3.0234 27.5436 2.28192C30.5376 1.54044 34.5794 1.09555 38.1222 1.29328C41.665 1.49101 41.4155 1.58987 42.9624 2.03476C44.5092 2.47965 46.4553 3.27057 48.1519 4.01205C55.0878 7.07685 61.7243 11.674 66.0655 17.9025C70.4067 24.131 72.0534 30.31 72.2031 37.1316C72.3029 43.9038 70.5564 51.1704 66.2651 56.5585C63.9199 59.5244 60.926 61.8477 58.0318 64.2205C55.1377 66.5932 55.0878 66.7909 53.5409 67.9773C51.9941 69.1637 50.4971 69.9546 48.8005 70.6467C47.104 71.3387 47.104 71.2893 46.2557 71.5859C45.4074 71.8825 45.3076 72.0308 44.8585 72.3768C43.9104 73.1183 45.3575 73.6126 46.0062 73.1183C46.6549 72.6239 46.3555 72.8711 46.4553 72.7228C46.7048 72.4756 46.0561 72.8217 46.5551 72.7228C47.0541 72.6239 47.0541 72.5745 47.3036 72.4756C48.2017 72.1791 49.0999 71.833 49.9482 71.4376C51.6947 70.6961 53.3912 69.7074 54.8882 68.5211C56.3852 67.3347 57.9819 65.9012 59.5288 64.6654C61.0756 63.4296 62.5726 62.1938 64.0197 60.8591C66.9138 58.2392 69.309 55.2732 70.9057 51.7636C72.5025 48.2539 73.3508 45.1396 73.75 41.63C74.5483 34.66 73.3009 27.3935 70.1073 21.0662C66.6144 14.2445 60.7264 8.95528 54.0399 5.24785C52.2935 4.25921 50.4472 3.36944 48.551 2.57852C46.6549 1.7876 45.108 1.14499 43.3117 0.700093C39.7688 -0.140254 36.0264 -0.140247 32.4337 0.255207C25.2982 0.996692 18.5119 3.86376 12.8734 8.31265C9.62994 10.8831 6.9354 13.9974 4.73985 17.4576C2.5942 20.8684 1.24693 24.7241 0.548344 28.6787C-0.150234 32.6333 -0.0504346 36.3407 0.199054 40.1964C0.44855 43.8544 0.897639 47.6112 2.2948 51.0715C2.99339 52.7522 3.89157 54.334 5.03924 55.6687C6.18691 57.0034 7.33459 58.4863 8.43237 59.9693C10.4283 62.7869 12.4243 65.654 15.2186 67.7302C18.5119 70.1523 22.5038 71.3387 26.4458 72.0802C30.3879 72.8217 30.5376 72.7722 32.6333 73.1183C34.7291 73.4643 36.8747 73.9586 39.0703 74.008C41.2658 74.0575 41.2159 74.008 42.2139 73.8103C43.2119 73.6126 44.2597 73.3654 45.3076 73.3654C46.3555 73.3654 46.2557 73.0688 46.3056 72.6734C46.3555 72.2779 45.8066 72.1296 45.5072 72.1296Z" fill="#2E2E2E"/>
<path d="M36.0765 34.6597C35.4278 26.009 35.3779 17.309 35.9767 8.65833C36.6254 17.309 36.6753 26.009 36.0765 34.6597Z" fill="#2E2E2E"/>
<path d="M36.2249 66.2964C35.5763 58.2884 35.5264 50.2309 36.1251 42.1735C36.7738 50.1815 36.8237 58.2389 36.2249 66.2964Z" fill="#2E2E2E"/>
<path d="M39.0719 33.8687C43.463 26.9481 48.3531 20.4231 53.7422 14.2935C49.3511 21.214 44.461 27.7391 39.0719 33.8687Z" fill="#2E2E2E"/>
<path d="M19.0625 60.562C23.5534 53.4932 28.5932 46.8199 34.082 40.4925C29.5911 47.5613 24.5514 54.2347 19.0625 60.562Z" fill="#2E2E2E"/>
<path d="M40.8684 36.291C48.5528 33.3745 56.4867 31.0018 64.5703 29.2716C56.8859 32.2376 48.952 34.5609 40.8684 36.291Z" fill="#2E2E2E"/>
<path d="M8.83169 45.7822C16.8155 42.7669 24.9989 40.3447 33.332 38.5157C25.3482 41.5311 17.1648 43.9532 8.83169 45.7822Z" fill="#2E2E2E"/>
<path d="M40.9181 39.2074C48.852 41.4318 56.6363 44.2494 64.1211 47.6108C56.1872 45.3864 48.403 42.5688 40.9181 39.2074Z" fill="#2E2E2E"/>
<path d="M9.5299 27.838C17.7133 30.1613 25.747 33.0778 33.5312 36.5381C25.2979 34.2148 17.3141 31.2983 9.5299 27.838Z" fill="#2E2E2E"/>
<path d="M39.3693 41.8274C44.3592 48.2536 48.8501 55.0258 52.7422 62.144C47.7523 55.7179 43.2614 48.9456 39.3693 41.8274Z" fill="#2E2E2E"/>
<path d="M20.9589 13.8983C26.1484 20.6705 30.8888 27.7888 34.9805 35.2036C29.791 28.4314 25.1005 21.3132 20.9589 13.8983Z" fill="#2E2E2E"/>
<path d="M30.8887 38.0708C30.8887 34.9566 33.4335 32.4355 36.5772 32.4355C39.7208 32.4355 42.2656 34.9566 42.2656 38.0708C42.2656 41.185 39.7208 43.7061 36.5772 43.7061C33.4335 43.7061 30.8887 41.185 30.8887 38.0708Z" fill="#2E2E2E"/>
</g>
<defs>
<clipPath id="clip0_2009_1888">
<rect width="74" height="74" fill="white" transform="translate(74 74.0078) rotate(-180)"/>
</clipPath>
</defs>
</svg>
