<svg width="149" height="150" viewBox="0 0 149 150" fill="none" xmlns="http://www.w3.org/2000/svg">
<g clip-path="url(#clip0_809_3085)">
<path d="M59.5001 16.1998C61.2001 16.1998 62.8001 15.8998 64.5001 15.4998C66.2001 15.0998 67.9001 14.9998 69.7001 15.0998C73.1001 15.1998 76.4001 15.9998 79.8001 16.4998C86.4001 17.5998 93.2001 18.3998 99.4001 20.7998C105.6 23.1998 109.8 26.4998 113.6 31.2998C117.4 36.0998 120.2 40.4998 123.9 44.8998C127.6 49.2998 129.6 54.9998 130.6 60.6998C131.7 66.4998 132 72.5998 132 78.5998C132 84.5998 131 91.6998 128.8 97.8998C126.6 104.1 123.1 109.8 118.8 114.8C114.6 119.7 109.6 123.5 104.1 126.9C98.6001 130.3 94.9001 131.7 89.9001 132.9C84.9001 134.1 78.3001 134.8 72.5001 134.5C66.7001 134.2 67.2001 134 64.6001 133.3C62.0001 132.6 58.6001 131.1 55.8001 129.9C44.5001 124.8 33.6001 117.1 26.5001 106.8C19.4001 96.4998 16.7001 85.8998 16.5001 74.5998C16.3001 63.2998 19.3001 50.9998 26.4001 41.9998C30.3001 37.0998 35.1001 33.1998 39.9001 29.2998C44.7001 25.3998 44.9001 24.8998 47.5001 22.8998C50.1001 20.8998 52.4001 19.5998 55.2001 18.4998C58.0001 17.3998 57.9001 17.4998 59.3001 16.9998C60.7001 16.4998 61.0001 16.1998 61.8001 15.4998C62.6001 14.7998 62.2001 14.5998 61.5001 14.4998C60.8001 14.3998 59.6001 14.6998 59.0001 15.1998C58.4001 15.6998 58.4001 15.5998 58.2001 15.8998H58.1001C58.5001 15.6998 58.5001 15.6998 58.1001 15.8998C57.7001 15.8998 57.3001 16.1998 57.0001 16.2998C55.4001 16.8998 53.8001 17.4998 52.3001 18.1998C49.4001 19.4998 46.7001 21.0998 44.2001 23.0998C41.7001 25.0998 39.1001 27.4998 36.5001 29.5998C33.9001 31.6998 31.5001 33.6998 29.1001 35.8998C24.4001 40.2998 20.5001 45.1998 17.9001 51.0998C15.3001 56.9998 14.1001 61.9998 13.4001 67.6998C12.1001 79.3998 14.2001 91.5998 19.7001 102.1C25.2001 112.6 35.5001 122.1 46.6001 128.2C52.1001 131.2 58.1001 134.2 64.2001 135.5C70.3001 136.8 76.1001 136.7 82.0001 136C93.9001 134.7 105.2 129.9 114.5 122.4C125.1 113.9 132.6 102 134.9 88.5998C136 82.1998 135.9 75.7998 135.5 69.3998C135.1 62.9998 134.3 57.1998 132.1 51.4998C129.9 45.7998 125.5 41.5998 122 36.6998C118.7 31.9998 115.4 27.0998 110.7 23.6998C105.3 19.7998 98.9001 17.8998 92.5001 16.5998C86.1001 15.2998 85.5001 15.3998 82.0001 14.7998C78.5001 14.1998 75.1001 13.4998 71.5001 13.3998C67.9001 13.2998 68.0001 13.3998 66.2001 13.6998C64.4001 13.9998 63.0001 14.3998 61.3001 14.3998C59.6001 14.3998 59.3001 14.6998 58.9001 15.2998C58.5001 15.8998 59.3001 16.0998 59.8001 16.0998L59.5001 16.1998Z" fill="#060203"/>
<path d="M146.4 75.9003C145.9 62.7003 145 47.1003 135.9 37.1003C127 27.0003 123.4 16.2003 110.3 10.0003C100.7 5.2003 88.7005 4.3003 78.4005 2.3003C73.6004 1.3003 68.3004 0.900296 63.8004 1.6003C61.4004 2.1003 56.1004 3.5003 56.1004 3.5003C48.9004 5.9003 43.2005 8.3003 37.2005 13.8003C27.1005 22.7003 16.1005 29.6003 9.60045 41.6003C-3.79955 66.5003 0.50045 100.8 19.9004 121.4C30.7005 132.9 44.3004 140.8 59.0005 146.1C70.5005 150.2 89.9004 148.5 101.2 143.7C108.4 140.8 110.1 139.6 116.5 135.6C124.2 130.6 130.9 123.6 135.9 115.9C143.8 104.4 146.9 89.5003 146.4 75.9003ZM125 108.7C120.9 115 115.3 120.7 109 124.9C103.7 128.3 102.3 129.2 96.4005 131.6C87.1004 135.5 71.1004 136.9 61.7005 133.6C49.7005 129.3 38.4005 122.7 29.5005 113.3C13.5005 96.3003 10.0005 68.1003 21.0005 47.6003C26.3004 37.7003 35.4005 32.0003 43.7005 24.7003C48.6005 20.2003 53.4004 18.2003 59.3004 16.2003L60.2005 15.5003H60.4005C62.3005 15.5003 63.6004 15.1003 65.5005 14.7003C69.3005 14.1003 73.6004 14.5003 77.5005 15.3003C86.0005 16.9003 95.9004 17.7003 103.7 21.6003C114.6 26.7003 117.5 35.6003 124.8 43.9003C132.3 52.2003 133.1 65.0003 133.5 75.9003C133.9 87.2003 131.3 99.4003 124.8 108.9L125 108.7Z" fill="#6FC2B4"/>
<path d="M57.1001 3.79994C59.2001 3.79994 61.3001 3.29994 63.4001 2.89994C65.5001 2.49994 67.5001 2.39994 69.5001 2.49994C73.7001 2.69994 77.7001 3.59994 81.8001 4.19993C89.8001 5.49994 97.9001 6.49993 105.4 9.39993C112.9 12.2999 117.9 16.2999 122.5 22.0999C127.1 27.8999 126.5 27.4999 128.4 30.1999C130.3 32.8999 132.7 35.7999 135 38.5999C139.6 44.0999 141.9 51.1999 143.1 58.1999C144.3 65.1999 144.8 72.7999 144.7 80.0999C144.6 87.3999 143.3 95.8999 140.6 103.3C137.9 110.7 133.7 117.4 128.5 123.3C123.3 129.2 117.2 133.8 110.4 137.9C103.6 142 99.1001 143.6 93.1001 145.1C87.1001 146.6 79.0001 147.5 71.9001 147.1C64.8001 146.7 65.3001 146.5 62.2001 145.6C59.1001 144.7 55.2001 143.1 51.8001 141.6C37.9001 135.4 24.6001 126.1 15.9001 113.5C7.20006 100.9 3.90006 88.3999 3.60006 74.5999C3.40006 60.8999 6.90006 46.1999 15.5001 35.2999C20.2001 29.2999 26.2001 24.5999 32.0001 19.7999C37.8001 14.9999 37.9001 14.5999 41.0001 12.1999C44.1001 9.79993 47.1001 8.19993 50.5001 6.79994C53.9001 5.39994 53.9001 5.49994 55.6001 4.89994C57.3001 4.29994 57.5001 3.99994 58.4001 3.29994C60.3001 1.79994 57.4001 0.799935 56.1001 1.79994C54.8001 2.79994 55.4001 2.29994 55.2001 2.59994C54.7001 3.09994 56.0001 2.39994 55.0001 2.59994C54.0001 2.79994 54.0001 2.89994 53.5001 3.09994C51.7001 3.69993 49.9001 4.39993 48.2001 5.19993C44.7001 6.69993 41.3001 8.69994 38.3001 11.0999C35.3001 13.4999 32.1001 16.3999 29.0001 18.8999C25.9001 21.3999 22.9001 23.8999 20.0001 26.5999C14.2001 31.8999 9.40006 37.8999 6.20006 44.9999C3.00006 52.0999 1.30006 58.3999 0.500063 65.4999C-1.09994 79.5999 1.40006 94.2999 7.80006 107.1C14.8001 120.9 26.6001 131.6 40.0001 139.1C43.5001 141.1 47.2001 142.9 51.0001 144.5C54.8001 146.1 57.9001 147.4 61.5001 148.3C68.6001 150 76.1001 150 83.3001 149.2C97.6001 147.7 111.2 141.9 122.5 132.9C129 127.7 134.4 121.4 138.8 114.4C143.1 107.5 145.8 99.6999 147.2 91.6999C148.6 83.6999 148.4 76.1999 147.9 68.3999C147.4 60.9999 146.5 53.3999 143.7 46.3999C142.3 42.9999 140.5 39.7999 138.2 37.0999C135.9 34.3999 133.6 31.3999 131.4 28.3999C127.4 22.6999 123.4 16.8999 117.8 12.6999C111.2 7.79993 103.2 5.39994 95.3001 3.89994C87.4001 2.39994 87.1001 2.49994 82.9001 1.79994C78.7001 1.09994 74.4001 0.0999352 70.0001 -6.4835e-05C65.6001 -0.100065 65.7001 -6.48201e-05 63.7001 0.399935C61.7001 0.799935 59.6001 1.29994 57.5001 1.29994C55.4001 1.29994 55.6001 1.89994 55.5001 2.69994C55.4001 3.49994 56.5001 3.79994 57.1001 3.79994Z" fill="#060203"/>
<path d="M76.0001 79.5996C77.3001 97.0996 77.4001 114.7 76.2001 132.2C74.9001 114.7 74.8001 97.0996 76.0001 79.5996Z" fill="#060203"/>
<path d="M75.7002 15.5996C77.0002 31.7996 77.1002 48.0996 75.9002 64.3996C74.6002 48.1996 74.5002 31.8996 75.7002 15.5996Z" fill="#060203"/>
<path d="M69.9996 81.2002C61.1996 95.2002 51.3996 108.4 40.5996 120.8C49.3996 106.8 59.1996 93.6002 69.9996 81.2002Z" fill="#060203"/>
<path d="M110.1 27.2002C101.1 41.5002 91 55.0002 80 67.8002C89 53.5002 99.1 40.0002 110.1 27.2002Z" fill="#060203"/>
<path d="M66.4004 76.2998C51.0004 82.1998 35.1004 86.9998 18.9004 90.4998C34.3004 84.4998 50.2004 79.7998 66.4004 76.2998Z" fill="#060203"/>
<path d="M130.6 57.0996C114.6 63.1996 98.2 68.0996 81.5 71.7996C97.5 65.6996 113.9 60.7996 130.6 57.0996Z" fill="#060203"/>
<path d="M66.2998 70.4004C50.3998 65.9004 34.7998 60.2004 19.7998 53.4004C35.6998 57.9004 51.2998 63.6004 66.2998 70.4004Z" fill="#060203"/>
<path d="M129.2 93.3998C112.8 88.6998 96.6996 82.7998 81.0996 75.7998C97.5996 80.4998 113.6 86.3998 129.2 93.3998Z" fill="#060203"/>
<path d="M69.3996 65.1C59.3996 52.1 50.3996 38.4 42.5996 24C52.5996 37 61.5996 50.7 69.3996 65.1Z" fill="#060203"/>
<path d="M106.3 121.6C95.9002 107.9 86.4002 93.5 78.2002 78.5C88.6002 92.2 98.0002 106.6 106.3 121.6Z" fill="#060203"/>
<path d="M86.3996 72.6998C86.3996 78.9998 81.2996 84.0998 74.9996 84.0998C68.6996 84.0998 63.5996 78.9998 63.5996 72.6998C63.5996 66.3998 68.6996 61.2998 74.9996 61.2998C81.2996 61.2998 86.3996 66.3998 86.3996 72.6998Z" fill="#060203"/>
</g>
<defs>
<clipPath id="clip0_809_3085">
<rect width="148.3" height="149.7" fill="white"/>
</clipPath>
</defs>
</svg>
