<svg width="490" height="436" viewBox="0 0 490 436" fill="none" xmlns="http://www.w3.org/2000/svg">
<path d="M37.9874 188.552H31.0898V427.618H37.9874V188.552Z" fill="#E0E0E0"/>
<path d="M37.9962 188.552C37.9962 188.552 37.9962 188.954 37.9962 189.757C37.9962 190.56 37.9962 191.774 37.9962 193.333C37.9962 196.507 37.9962 201.164 38.0441 207.159C38.0441 219.206 38.1015 236.627 38.1397 258.198C38.1397 301.406 38.2163 361.214 38.2641 427.618V427.934H30.7734V427.618C30.7734 310.968 30.8787 213.345 31.0222 188.581V188.504H31.0891L36.3221 188.552C37.4605 188.552 37.9962 188.552 37.9962 188.552H36.2838H31.0891L31.1657 188.485C31.2996 213.278 31.4048 310.92 31.4048 427.523L31.0891 427.207H37.9962L37.6805 427.523C37.6805 361.204 37.7762 301.492 37.8049 258.332C37.8049 236.742 37.8814 219.292 37.9006 207.226C37.9006 201.192 37.9006 196.517 37.9484 193.323C37.9484 191.745 37.9484 190.531 37.9484 189.699C37.9484 188.867 37.9962 188.552 37.9962 188.552Z" fill="#263238"/>
<path d="M69.1857 101.447H3.66401C1.64044 101.447 0 103.086 0 105.109V205.265C0 207.288 1.64044 208.927 3.66401 208.927H69.1857C71.2093 208.927 72.8497 207.288 72.8497 205.265V105.109C72.8497 103.086 71.2093 101.447 69.1857 101.447Z" fill="#FF6600"/>
<path d="M48.5974 117.214C51.451 118.397 53.8727 120.427 55.5356 123.029C57.1984 125.631 58.0224 128.681 57.8962 131.766C57.9655 134.864 57.1276 137.915 55.4854 140.544C53.8073 143.094 51.4103 145.091 48.5974 146.281C45.2678 147.673 41.6826 148.351 38.0742 148.269H28.8424V160.871H18.2617V115.187H38.0455C41.6671 115.104 45.2646 115.795 48.5974 117.214ZM44.7038 137.608C45.491 136.845 46.1169 135.932 46.5442 134.923C46.9716 133.914 47.1919 132.829 47.1919 131.733C47.1919 130.637 46.9716 129.552 46.5442 128.543C46.1169 127.533 45.491 126.62 44.7038 125.857C43.0584 124.49 40.638 123.802 37.4619 123.802H28.852V139.664H37.4619C40.638 139.664 43.0584 138.976 44.7038 137.608Z" fill="white"/>
<g opacity="0.3">
<path d="M72.8497 107.413L0 183.847V196.66L72.8497 121.095V107.413Z" fill="white"/>
</g>
<g opacity="0.3">
<path d="M72.8497 125.178L0 201.603V205.227L72.8497 130.485V125.178Z" fill="white"/>
</g>
<path d="M68.7092 205.829H3.65625V105.118H68.7092V205.829ZM4.82338 204.625H67.5038V106.323H4.82338V204.625Z" fill="white"/>
<path d="M50.9132 179.65C50.0357 179.651 49.1629 179.777 48.3207 180.023L44.8862 171.934L48.445 170.337C48.5494 170.294 48.6438 170.229 48.7228 170.149C48.8018 170.068 48.8637 169.972 48.9048 169.866C48.9458 169.761 48.9653 169.649 48.9619 169.536C48.9585 169.423 48.9324 169.312 48.8851 169.209C48.8412 169.105 48.7772 169.011 48.6967 168.933C48.6163 168.854 48.521 168.792 48.4163 168.75C48.3121 168.705 48.1998 168.682 48.0863 168.682C47.9728 168.682 47.8604 168.705 47.7562 168.75L43.413 170.662C43.2064 170.753 43.044 170.921 42.9615 171.131C42.879 171.34 42.8831 171.574 42.9729 171.781L44.5897 175.606H30.8712C30.3833 174.487 30.0197 173.693 29.7519 173.148H31.8565C32.2092 173.148 32.5474 173.008 32.7968 172.759C33.0462 172.51 33.1863 172.172 33.1863 171.819C33.1863 171.467 33.0462 171.129 32.7968 170.879C32.5474 170.63 32.2092 170.49 31.8565 170.49H26.1166C25.7639 170.49 25.4257 170.63 25.1763 170.879C24.9269 171.129 24.7868 171.467 24.7868 171.819C24.7868 172.172 24.9269 172.51 25.1763 172.759C25.4257 173.008 25.7639 173.148 26.1166 173.148H27.829C28.049 173.521 28.5943 174.726 29.3118 176.371L26.5662 180.606C24.82 179.733 22.8403 179.44 20.9159 179.77C18.9914 180.1 17.2227 181.036 15.8675 182.441C14.5123 183.846 13.6416 185.647 13.3821 187.581C13.1226 189.515 13.488 191.482 14.425 193.194C15.362 194.906 16.8216 196.274 18.5912 197.099C20.3607 197.924 22.3476 198.163 24.2623 197.78C26.177 197.398 27.9194 196.414 29.2355 194.972C30.5517 193.531 31.3727 191.707 31.5791 189.766H35.5301C35.642 189.767 35.7529 189.744 35.8554 189.699L35.9606 189.623C36.0266 189.586 36.0877 189.541 36.1424 189.489L45.5368 178.015L46.6752 180.673C44.6803 181.698 43.1308 183.419 42.3201 185.509C41.5095 187.6 41.4941 189.915 42.2767 192.016C43.0594 194.117 44.5858 195.858 46.5669 196.909C48.5479 197.961 50.8461 198.25 53.026 197.721C55.2059 197.193 57.1161 195.884 58.395 194.042C59.6738 192.2 60.2325 189.953 59.965 187.727C59.6976 185.502 58.6226 183.451 56.9438 181.964C55.265 180.477 53.0989 179.657 50.8558 179.66L50.9132 179.65ZM50.3871 189.212C50.4502 189.368 50.5587 189.501 50.6985 189.595C50.8384 189.689 51.0031 189.738 51.1715 189.737C51.2866 189.739 51.4008 189.717 51.5063 189.671C51.6109 189.628 51.7057 189.565 51.7847 189.484C51.8637 189.403 51.9253 189.307 51.9655 189.202C52.0512 188.99 52.0512 188.754 51.9655 188.542L48.9234 181.4C50.797 180.906 52.7887 181.147 54.49 182.074C56.1913 183.001 57.4731 184.544 58.0727 186.385C58.6722 188.227 58.5439 190.228 57.7141 191.978C56.8844 193.728 55.416 195.095 53.6103 195.797C51.8045 196.5 49.7983 196.485 48.0031 195.756C46.2079 195.027 44.7598 193.639 43.9559 191.877C43.1521 190.115 43.0533 188.112 43.6799 186.279C44.3065 184.447 45.611 182.923 47.3257 182.021L50.3871 189.212ZM30.0771 188.026H23.7823L27.1976 182.777C28.0115 183.419 28.6865 184.219 29.1815 185.13C29.6765 186.04 29.9812 187.042 30.0771 188.074V188.026ZM21.4672 188.408C21.3826 188.539 21.3349 188.689 21.329 188.845C21.3231 189 21.3594 189.154 21.4339 189.29C21.5085 189.426 21.6185 189.54 21.7523 189.618C21.8862 189.697 22.0389 189.738 22.1943 189.737H30.0197C29.8173 191.341 29.1119 192.839 28.0046 194.018C26.8973 195.196 25.4451 195.993 23.8563 196.295C22.2676 196.597 20.6239 196.388 19.1613 195.698C17.6987 195.009 16.4922 193.874 15.715 192.456C14.9378 191.039 14.6299 189.412 14.8354 187.808C15.0408 186.205 15.7492 184.708 16.8587 183.532C17.9683 182.356 19.422 181.562 21.0114 181.263C22.6007 180.964 24.2439 181.176 25.7052 181.868L21.4672 188.408ZM28.0203 181.486L30.1345 178.235C31.4165 181.228 33.0045 184.985 34.2386 188.026H31.6078C31.4963 186.755 31.1205 185.52 30.5044 184.402C29.8883 183.284 29.0455 182.307 28.0299 181.534L28.0203 181.486ZM32.8897 180.444C32.3827 179.249 31.9331 178.225 31.5695 177.346H43.92L35.7597 187.271C35.1474 185.741 34.0473 183.092 32.8897 180.444Z" fill="white"/>
<g opacity="0.3">
<path d="M35.5982 103.016V237.219H53.228V403.952H73.5693V155.069H111.55V54.215H172.584V239.929H195.637V166.057H247.176V182.318H291.26V401.922H308.89V361.931H357.036V401.242H380.099V203.328H458.082V389.042H480.465" stroke="black" stroke-miterlimit="10"/>
<path d="M23.8484 103.016H35.6016V94.2057H22.6652" stroke="black" stroke-miterlimit="10"/>
<path d="M111.552 159.533H73.3438V155.069H111.552V159.533Z" stroke="black" stroke-miterlimit="10"/>
<path d="M172.579 58.561L111.367 58.561V54.2249L172.579 54.2249V58.561Z" stroke="black" stroke-miterlimit="10"/>
<path d="M209.406 166.047H200.492V156.843H209.406V166.047Z" stroke="black" stroke-miterlimit="10"/>
<path d="M232.59 166.038H228.133V160.696H232.59V166.038Z" stroke="black" stroke-miterlimit="10"/>
<path d="M291.402 187.728H247.18V182.327H291.402V187.728Z" stroke="black" stroke-miterlimit="10"/>
<path d="M458.073 203.328H380.1V199.297H458.073V203.328Z" stroke="black" stroke-miterlimit="10"/>
<path d="M431.046 199.297H400.145V191.275H431.046V199.297Z" stroke="black" stroke-miterlimit="10"/>
<path d="M424.499 191.581V184.16H447.078V199.002" stroke="black" stroke-miterlimit="10"/>
<path d="M275.682 180.1V120.104H347.158V169.812H371.739V85.2478H450.64V187.531H475.221" stroke="black" stroke-miterlimit="10"/>
<path d="M224.227 150.388V84.0948H175.636" stroke="black" stroke-miterlimit="10"/>
<path d="M71 166.964H54.9971V120.676H39.5562" stroke="black" stroke-miterlimit="10"/>
<path d="M122.305 78.9604H116.172V66.9572H122.305V78.9604Z" stroke="black" stroke-miterlimit="10"/>
<path d="M133.344 78.9604H127.211V66.9572H133.344V78.9604Z" stroke="black" stroke-miterlimit="10"/>
<path d="M144.383 78.9604H138.25V66.9572H144.383V78.9604Z" stroke="black" stroke-miterlimit="10"/>
<path d="M155.43 78.9604H149.297V66.9572H155.43V78.9604Z" stroke="black" stroke-miterlimit="10"/>
<path d="M166.485 78.9604H160.352V66.9572H166.485V78.9604Z" stroke="black" stroke-miterlimit="10"/>
<path d="M122.305 99.2514H116.172V87.2482H122.305V99.2514Z" stroke="black" stroke-miterlimit="10"/>
<path d="M133.344 99.2514H127.211V87.2482H133.344V99.2514Z" stroke="black" stroke-miterlimit="10"/>
<path d="M144.383 99.2514H138.25V87.2482H144.383V99.2514Z" stroke="black" stroke-miterlimit="10"/>
<path d="M155.43 99.2514H149.297V87.2482H155.43V99.2514Z" stroke="black" stroke-miterlimit="10"/>
<path d="M166.485 99.2514H160.352V87.2482H166.485V99.2514Z" stroke="black" stroke-miterlimit="10"/>
<path d="M122.305 119.533H116.172V107.529H122.305V119.533Z" stroke="black" stroke-miterlimit="10"/>
<path d="M133.344 119.533H127.211V107.529H133.344V119.533Z" stroke="black" stroke-miterlimit="10"/>
<path d="M144.383 119.533H138.25V107.529H144.383V119.533Z" stroke="black" stroke-miterlimit="10"/>
<path d="M155.43 119.533H149.297V107.529H155.43V119.533Z" stroke="black" stroke-miterlimit="10"/>
<path d="M166.485 119.533H160.352V107.529H166.485V119.533Z" stroke="black" stroke-miterlimit="10"/>
<path d="M122.305 139.824H116.172V127.82H122.305V139.824Z" stroke="black" stroke-miterlimit="10"/>
<path d="M133.344 139.824H127.211V127.82H133.344V139.824Z" stroke="black" stroke-miterlimit="10"/>
<path d="M144.383 139.824H138.25V127.82H144.383V139.824Z" stroke="black" stroke-miterlimit="10"/>
<path d="M155.43 139.824H149.297V127.82H155.43V139.824Z" stroke="black" stroke-miterlimit="10"/>
<path d="M166.485 139.824H160.352V127.82H166.485V139.824Z" stroke="black" stroke-miterlimit="10"/>
<path d="M122.305 160.105H116.172V148.102H122.305V160.105Z" stroke="black" stroke-miterlimit="10"/>
<path d="M133.344 160.105H127.211V148.102H133.344V160.105Z" stroke="black" stroke-miterlimit="10"/>
<path d="M144.383 160.105H138.25V148.102H144.383V160.105Z" stroke="black" stroke-miterlimit="10"/>
<path d="M155.43 160.105H149.297V148.102H155.43V160.105Z" stroke="black" stroke-miterlimit="10"/>
<path d="M166.485 160.105H160.352V148.102H166.485V160.105Z" stroke="black" stroke-miterlimit="10"/>
<path d="M122.305 180.396H116.172V168.393H122.305V180.396Z" stroke="black" stroke-miterlimit="10"/>
<path d="M133.344 180.396H127.211V168.393H133.344V180.396Z" stroke="black" stroke-miterlimit="10"/>
<path d="M144.383 180.396H138.25V168.393H144.383V180.396Z" stroke="black" stroke-miterlimit="10"/>
<path d="M155.43 180.396H149.297V168.393H155.43V180.396Z" stroke="black" stroke-miterlimit="10"/>
<path d="M166.485 180.396H160.352V168.393H166.485V180.396Z" stroke="black" stroke-miterlimit="10"/>
<path d="M84.6486 180.396H78.5156V168.393H84.6486V180.396Z" stroke="black" stroke-miterlimit="10"/>
<path d="M95.6877 180.396H89.5547V168.393H95.6877V180.396Z" stroke="black" stroke-miterlimit="10"/>
<path d="M106.742 180.396H100.609V168.393H106.742V180.396Z" stroke="black" stroke-miterlimit="10"/>
<path d="M84.6486 200.106H78.5156V188.102H84.6486V200.106Z" stroke="black" stroke-miterlimit="10"/>
<path d="M95.6877 200.106H89.5547V188.102H95.6877V200.106Z" stroke="black" stroke-miterlimit="10"/>
<path d="M106.742 200.106H100.609V188.102H106.742V200.106Z" stroke="black" stroke-miterlimit="10"/>
<path d="M84.6486 219.825H78.5156V207.822H84.6486V219.825Z" stroke="black" stroke-miterlimit="10"/>
<path d="M95.6877 219.825H89.5547V207.822H95.6877V219.825Z" stroke="black" stroke-miterlimit="10"/>
<path d="M106.742 219.825H100.609V207.822H106.742V219.825Z" stroke="black" stroke-miterlimit="10"/>
<path d="M84.6486 239.535H78.5156V227.531H84.6486V239.535Z" stroke="black" stroke-miterlimit="10"/>
<path d="M95.6877 239.535H89.5547V227.531H95.6877V239.535Z" stroke="black" stroke-miterlimit="10"/>
<path d="M106.742 239.535H100.609V227.531H106.742V239.535Z" stroke="black" stroke-miterlimit="10"/>
<path d="M84.6486 259.254H78.5156V247.251H84.6486V259.254Z" stroke="black" stroke-miterlimit="10"/>
<path d="M95.6877 259.254H89.5547V247.251H95.6877V259.254Z" stroke="black" stroke-miterlimit="10"/>
<path d="M106.742 259.254H100.609V247.251H106.742V259.254Z" stroke="black" stroke-miterlimit="10"/>
<path d="M84.6486 278.964H78.5156V266.961H84.6486V278.964Z" stroke="black" stroke-miterlimit="10"/>
<path d="M95.6877 278.964H89.5547V266.961H95.6877V278.964Z" stroke="black" stroke-miterlimit="10"/>
<path d="M106.742 278.964H100.609V266.961H106.742V278.964Z" stroke="black" stroke-miterlimit="10"/>
<path d="M84.6486 298.683H78.5156V286.68H84.6486V298.683Z" stroke="black" stroke-miterlimit="10"/>
<path d="M95.6877 298.683H89.5547V286.68H95.6877V298.683Z" stroke="black" stroke-miterlimit="10"/>
<path d="M106.742 298.683H100.609V286.68H106.742V298.683Z" stroke="black" stroke-miterlimit="10"/>
<path d="M84.6486 318.393H78.5156V306.39H84.6486V318.393Z" stroke="black" stroke-miterlimit="10"/>
<path d="M95.6877 318.393H89.5547V306.39H95.6877V318.393Z" stroke="black" stroke-miterlimit="10"/>
<path d="M106.742 318.393H100.609V306.39H106.742V318.393Z" stroke="black" stroke-miterlimit="10"/>
<path d="M84.6486 338.112H78.5156V326.109H84.6486V338.112Z" stroke="black" stroke-miterlimit="10"/>
<path d="M95.6877 338.112H89.5547V326.109H95.6877V338.112Z" stroke="black" stroke-miterlimit="10"/>
<path d="M106.742 338.112H100.609V326.109H106.742V338.112Z" stroke="black" stroke-miterlimit="10"/>
<path d="M84.6486 357.822H78.5156V345.819H84.6486V357.822Z" stroke="black" stroke-miterlimit="10"/>
<path d="M95.6877 357.822H89.5547V345.819H95.6877V357.822Z" stroke="black" stroke-miterlimit="10"/>
<path d="M106.742 357.822H100.609V345.819H106.742V357.822Z" stroke="black" stroke-miterlimit="10"/>
<path d="M84.6486 377.531H78.5156V365.528H84.6486V377.531Z" stroke="black" stroke-miterlimit="10"/>
<path d="M95.6877 377.531H89.5547V365.528H95.6877V377.531Z" stroke="black" stroke-miterlimit="10"/>
<path d="M106.742 377.531H100.609V365.528H106.742V377.531Z" stroke="black" stroke-miterlimit="10"/>
<path d="M183.125 261.54H176.992V249.537H183.125V261.54Z" stroke="black" stroke-miterlimit="10"/>
<path d="M194.172 261.54H188.039V249.537H194.172V261.54Z" stroke="black" stroke-miterlimit="10"/>
<path d="M183.125 281.25H176.992V269.247H183.125V281.25Z" stroke="black" stroke-miterlimit="10"/>
<path d="M194.172 281.25H188.039V269.247H194.172V281.25Z" stroke="black" stroke-miterlimit="10"/>
<path d="M183.125 300.969H176.992V288.966H183.125V300.969Z" stroke="black" stroke-miterlimit="10"/>
<path d="M194.172 300.969H188.039V288.966H194.172V300.969Z" stroke="black" stroke-miterlimit="10"/>
<path d="M183.125 320.679H176.992V308.676H183.125V320.679Z" stroke="black" stroke-miterlimit="10"/>
<path d="M194.172 320.679H188.039V308.676H194.172V320.679Z" stroke="black" stroke-miterlimit="10"/>
<path d="M183.125 340.398H176.992V328.395H183.125V340.398Z" stroke="black" stroke-miterlimit="10"/>
<path d="M194.172 340.398H188.039V328.395H194.172V340.398Z" stroke="black" stroke-miterlimit="10"/>
<path d="M183.125 360.108H176.992V348.105H183.125V360.108Z" stroke="black" stroke-miterlimit="10"/>
<path d="M194.172 360.108H188.039V348.105H194.172V360.108Z" stroke="black" stroke-miterlimit="10"/>
<path d="M183.125 379.828H176.992V367.825H183.125V379.828Z" stroke="black" stroke-miterlimit="10"/>
<path d="M194.172 379.828H188.039V367.824H194.172V379.828Z" stroke="black" stroke-miterlimit="10"/>
<path d="M122.305 200.677H116.172V188.674H122.305V200.677Z" stroke="black" stroke-miterlimit="10"/>
<path d="M133.344 200.677H127.211V188.674H133.344V200.677Z" stroke="black" stroke-miterlimit="10"/>
<path d="M144.383 200.677H138.25V188.674H144.383V200.677Z" stroke="black" stroke-miterlimit="10"/>
<path d="M155.43 200.677H149.297V188.674H155.43V200.677Z" stroke="black" stroke-miterlimit="10"/>
<path d="M166.485 200.677H160.352V188.674H166.485V200.677Z" stroke="black" stroke-miterlimit="10"/>
<path d="M122.305 220.968H116.172V208.965H122.305V220.968Z" stroke="black" stroke-miterlimit="10"/>
<path d="M133.344 220.968H127.211V208.965H133.344V220.968Z" stroke="black" stroke-miterlimit="10"/>
<path d="M144.383 220.968H138.25V208.965H144.383V220.968Z" stroke="black" stroke-miterlimit="10"/>
<path d="M155.43 220.968H149.297V208.965H155.43V220.968Z" stroke="black" stroke-miterlimit="10"/>
<path d="M166.485 220.968H160.352V208.965H166.485V220.968Z" stroke="black" stroke-miterlimit="10"/>
<path d="M122.305 241.249H116.172V229.246H122.305V241.249Z" stroke="black" stroke-miterlimit="10"/>
<path d="M133.344 241.249H127.211V229.246H133.344V241.249Z" stroke="black" stroke-miterlimit="10"/>
<path d="M144.383 241.249H138.25V229.246H144.383V241.249Z" stroke="black" stroke-miterlimit="10"/>
<path d="M155.43 241.249H149.297V229.246H155.43V241.249Z" stroke="black" stroke-miterlimit="10"/>
<path d="M166.485 241.249H160.352V229.246H166.485V241.249Z" stroke="black" stroke-miterlimit="10"/>
<path d="M122.305 261.54H116.172V249.537H122.305V261.54Z" stroke="black" stroke-miterlimit="10"/>
<path d="M133.344 261.54H127.211V249.537H133.344V261.54Z" stroke="black" stroke-miterlimit="10"/>
<path d="M144.383 261.54H138.25V249.537H144.383V261.54Z" stroke="black" stroke-miterlimit="10"/>
<path d="M155.43 261.54H149.297V249.537H155.43V261.54Z" stroke="black" stroke-miterlimit="10"/>
<path d="M166.485 261.54H160.352V249.537H166.485V261.54Z" stroke="black" stroke-miterlimit="10"/>
<path d="M122.305 281.812H116.172V269.808H122.305V281.812Z" stroke="black" stroke-miterlimit="10"/>
<path d="M133.344 281.812H127.211V269.808H133.344V281.812Z" stroke="black" stroke-miterlimit="10"/>
<path d="M144.383 281.812H138.25V269.808H144.383V281.812Z" stroke="black" stroke-miterlimit="10"/>
<path d="M155.43 281.812H149.297V269.808H155.43V281.812Z" stroke="black" stroke-miterlimit="10"/>
<path d="M166.485 281.812H160.352V269.808H166.485V281.812Z" stroke="black" stroke-miterlimit="10"/>
<path d="M122.305 302.103H116.172V290.099H122.305V302.103Z" stroke="black" stroke-miterlimit="10"/>
<path d="M133.344 302.103H127.211V290.099H133.344V302.103Z" stroke="black" stroke-miterlimit="10"/>
<path d="M144.383 302.103H138.25V290.099H144.383V302.103Z" stroke="black" stroke-miterlimit="10"/>
<path d="M155.43 302.103H149.297V290.099H155.43V302.103Z" stroke="black" stroke-miterlimit="10"/>
<path d="M166.485 302.103H160.352V290.099H166.485V302.103Z" stroke="black" stroke-miterlimit="10"/>
<path d="M122.305 322.384H116.172V310.381H122.305V322.384Z" stroke="black" stroke-miterlimit="10"/>
<path d="M133.344 322.384H127.211V310.381H133.344V322.384Z" stroke="black" stroke-miterlimit="10"/>
<path d="M144.383 322.384H138.25V310.381H144.383V322.384Z" stroke="black" stroke-miterlimit="10"/>
<path d="M155.43 322.384H149.297V310.381H155.43V322.384Z" stroke="black" stroke-miterlimit="10"/>
<path d="M166.485 322.384H160.352V310.381H166.485V322.384Z" stroke="black" stroke-miterlimit="10"/>
<path d="M122.305 342.675H116.172V330.672H122.305V342.675Z" stroke="black" stroke-miterlimit="10"/>
<path d="M133.344 342.675H127.211V330.672H133.344V342.675Z" stroke="black" stroke-miterlimit="10"/>
<path d="M144.383 342.675H138.25V330.672H144.383V342.675Z" stroke="black" stroke-miterlimit="10"/>
<path d="M155.43 342.675H149.297V330.672H155.43V342.675Z" stroke="black" stroke-miterlimit="10"/>
<path d="M166.485 342.675H160.352V330.672H166.485V342.675Z" stroke="black" stroke-miterlimit="10"/>
<path d="M122.305 362.956H116.172V350.953H122.305V362.956Z" stroke="black" stroke-miterlimit="10"/>
<path d="M133.344 362.956H127.211V350.953H133.344V362.956Z" stroke="black" stroke-miterlimit="10"/>
<path d="M144.383 362.956H138.25V350.953H144.383V362.956Z" stroke="black" stroke-miterlimit="10"/>
<path d="M155.43 362.956H149.297V350.953H155.43V362.956Z" stroke="black" stroke-miterlimit="10"/>
<path d="M166.485 362.956H160.352V350.953H166.485V362.956Z" stroke="black" stroke-miterlimit="10"/>
<path d="M122.305 383.819H116.172V371.816H122.305V383.819Z" stroke="black" stroke-miterlimit="10"/>
<path d="M133.344 383.819H127.211V371.816H133.344V383.819Z" stroke="black" stroke-miterlimit="10"/>
<path d="M144.383 383.819H138.25V371.816H144.383V383.819Z" stroke="black" stroke-miterlimit="10"/>
<path d="M155.43 383.819H149.297V371.816H155.43V383.819Z" stroke="black" stroke-miterlimit="10"/>
<path d="M166.485 383.819H160.352V371.816H166.485V383.819Z" stroke="black" stroke-miterlimit="10"/>
<path d="M111.555 159.533V404.11" stroke="black" stroke-miterlimit="10"/>
<path d="M205.359 170.955V400.68" stroke="black" stroke-miterlimit="10"/>
<path d="M217.375 170.955V400.68" stroke="black" stroke-miterlimit="10"/>
<path d="M229.375 170.955V400.68" stroke="black" stroke-miterlimit="10"/>
<path d="M241.383 170.955V400.68" stroke="black" stroke-miterlimit="10"/>
<path d="M253.391 193.818V400.68" stroke="black" stroke-miterlimit="10"/>
<path d="M265.398 193.818V400.68" stroke="black" stroke-miterlimit="10"/>
<path d="M277.398 193.818V400.68" stroke="black" stroke-miterlimit="10"/>
<path d="M15.0017 116.103H31.5469" stroke="black" stroke-miterlimit="10"/>
<path d="M15.0017 130.954H31.5469" stroke="black" stroke-miterlimit="10"/>
<path d="M15.0017 145.815H31.5469" stroke="black" stroke-miterlimit="10"/>
<path d="M15.0017 160.677H31.5469" stroke="black" stroke-miterlimit="10"/>
<path d="M15.0017 175.528H31.5469" stroke="black" stroke-miterlimit="10"/>
<path d="M15.0017 190.389H31.5469" stroke="black" stroke-miterlimit="10"/>
<path d="M15.0017 205.25H31.5469" stroke="black" stroke-miterlimit="10"/>
<path d="M15.0017 220.101H31.5469" stroke="black" stroke-miterlimit="10"/>
<path d="M15.0017 234.962H31.5469" stroke="black" stroke-miterlimit="10"/>
<path d="M15.0017 249.813H31.5469" stroke="black" stroke-miterlimit="10"/>
<path d="M15.0017 264.674H31.5469" stroke="black" stroke-miterlimit="10"/>
<path d="M15.0017 279.535H31.5469" stroke="black" stroke-miterlimit="10"/>
<path d="M15.0017 294.386H31.5469" stroke="black" stroke-miterlimit="10"/>
<path d="M15.0017 309.248H31.5469" stroke="black" stroke-miterlimit="10"/>
<path d="M15.0017 324.109H31.5469" stroke="black" stroke-miterlimit="10"/>
<path d="M15.0017 338.96H31.5469" stroke="black" stroke-miterlimit="10"/>
<path d="M15.0017 353.821H31.5469" stroke="black" stroke-miterlimit="10"/>
<path d="M15.0017 368.672H31.5469" stroke="black" stroke-miterlimit="10"/>
<path d="M15.0017 383.533H31.5469" stroke="black" stroke-miterlimit="10"/>
<path d="M15.0017 398.394H31.5469" stroke="black" stroke-miterlimit="10"/>
<path d="M15.0017 413.245H31.5469" stroke="black" stroke-miterlimit="10"/>
<path d="M454.631 216.11H382.594V209.251H454.631V216.11Z" stroke="black" stroke-miterlimit="10"/>
<path d="M454.631 228.103H382.594V221.244H454.631V228.103Z" stroke="black" stroke-miterlimit="10"/>
<path d="M454.631 240.096H382.594V233.237H454.631V240.096Z" stroke="black" stroke-miterlimit="10"/>
<path d="M454.631 252.1H382.594V245.241H454.631V252.1Z" stroke="black" stroke-miterlimit="10"/>
<path d="M454.631 264.103H382.594V257.244H454.631V264.103Z" stroke="black" stroke-miterlimit="10"/>
<path d="M454.631 276.106H382.594V269.247H454.631V276.106Z" stroke="black" stroke-miterlimit="10"/>
<path d="M454.631 288.099H382.594V281.24H454.631V288.099Z" stroke="black" stroke-miterlimit="10"/>
<path d="M454.631 300.102H382.594V293.243H454.631V300.102Z" stroke="black" stroke-miterlimit="10"/>
<path d="M454.631 312.105H382.594V305.246H454.631V312.105Z" stroke="black" stroke-miterlimit="10"/>
<path d="M454.631 324.099H382.594V317.24H454.631V324.099Z" stroke="black" stroke-miterlimit="10"/>
<path d="M454.631 336.112H382.594V329.253H454.631V336.112Z" stroke="black" stroke-miterlimit="10"/>
<path d="M454.631 348.105H382.594V341.246H454.631V348.105Z" stroke="black" stroke-miterlimit="10"/>
<path d="M454.631 360.098H382.594V353.239H454.631V360.098Z" stroke="black" stroke-miterlimit="10"/>
<path d="M454.631 372.101H382.594V365.243H454.631V372.101Z" stroke="black" stroke-miterlimit="10"/>
<path d="M454.631 384.104H382.594V377.246H454.631V384.104Z" stroke="black" stroke-miterlimit="10"/>
<path d="M454.631 396.108H382.594V389.249H454.631V396.108Z" stroke="black" stroke-miterlimit="10"/>
<path d="M454.631 408.101H382.594V401.242H454.631V408.101Z" stroke="black" stroke-miterlimit="10"/>
<path d="M351.732 361.823H315.713V342.961H351.732V361.823Z" stroke="black" stroke-miterlimit="10"/>
<path d="M343.153 342.961H324.281V309.819H343.153V342.961Z" stroke="black" stroke-miterlimit="10"/>
<path d="M172.586 239.929V403.647" stroke="black" stroke-miterlimit="10"/>
<path d="M379.469 221.983H292.01" stroke="black" stroke-miterlimit="10"/>
<path d="M379.469 231.759H292.01" stroke="black" stroke-miterlimit="10"/>
<path d="M309.255 248.847H295.914V239.081H309.255V248.847Z" stroke="black" stroke-miterlimit="10"/>
<path d="M325.712 248.847H312.371V239.081H325.712V248.847Z" stroke="black" stroke-miterlimit="10"/>
<path d="M342.157 248.847H328.816V239.081H342.157V248.847Z" stroke="black" stroke-miterlimit="10"/>
<path d="M358.624 248.847H345.283V239.081H358.624V248.847Z" stroke="black" stroke-miterlimit="10"/>
<path d="M375.071 248.847H361.73V239.081H375.071V248.847Z" stroke="black" stroke-miterlimit="10"/>
<path d="M309.255 263.984H295.914V254.218H309.255V263.984Z" stroke="black" stroke-miterlimit="10"/>
<path d="M325.712 263.984H312.371V254.218H325.712V263.984Z" stroke="black" stroke-miterlimit="10"/>
<path d="M342.157 263.984H328.816V254.218H342.157V263.984Z" stroke="black" stroke-miterlimit="10"/>
<path d="M358.624 263.984H345.283V254.218H358.624V263.984Z" stroke="black" stroke-miterlimit="10"/>
<path d="M375.071 263.984H361.73V254.218H375.071V263.984Z" stroke="black" stroke-miterlimit="10"/>
<path d="M309.255 279.131H295.914V269.365H309.255V279.131Z" stroke="black" stroke-miterlimit="10"/>
<path d="M325.712 279.131H312.371V269.365H325.712V279.131Z" stroke="black" stroke-miterlimit="10"/>
<path d="M342.157 279.131H328.816V269.365H342.157V279.131Z" stroke="black" stroke-miterlimit="10"/>
<path d="M358.624 279.131H345.283V269.365H358.624V279.131Z" stroke="black" stroke-miterlimit="10"/>
<path d="M375.071 279.131H361.73V269.365H375.071V279.131Z" stroke="black" stroke-miterlimit="10"/>
<path d="M309.255 306.478H295.914V296.712H309.255V306.478Z" stroke="black" stroke-miterlimit="10"/>
<path d="M325.712 306.478H312.371V296.712H325.712V306.478Z" stroke="black" stroke-miterlimit="10"/>
<path d="M342.157 306.478H328.816V296.712H342.157V306.478Z" stroke="black" stroke-miterlimit="10"/>
<path d="M358.624 306.478H345.283V296.712H358.624V306.478Z" stroke="black" stroke-miterlimit="10"/>
<path d="M375.071 306.478H361.73V296.712H375.071V306.478Z" stroke="black" stroke-miterlimit="10"/>
</g>
<g opacity="0.3">
<path d="M68.3375 29.8145C68.3375 29.8145 65.5866 12.8051 83.1277 8.9617C100.669 5.11832 108.389 23.2315 113.329 27.0748C118.269 30.9182 121.02 18.2942 131.452 21.5857C141.884 24.8772 144.654 32.564 147.405 33.1552C150.156 33.7465 150.699 25.4685 161.131 28.76C171.563 32.0515 177.055 38.0826 177.055 38.0826H39.2306C39.2306 38.0826 43.076 30.3959 50.2147 27.1044C57.3534 23.8129 63.3977 35.8555 68.3375 29.8145Z" stroke="black" stroke-miterlimit="10"/>
<path d="M405.007 45.9665C405.007 45.9665 403.43 36.2004 413.516 33.9929C423.603 31.7854 428.03 42.1822 430.87 44.3897C433.71 46.5972 435.287 39.3441 441.272 41.2362C447.258 43.1283 448.845 47.5433 450.442 47.8586C452.04 48.174 452.335 43.4437 458.33 45.3358C461.766 46.3578 464.902 48.1974 467.471 50.6968H388.324C388.324 50.6968 390.533 46.2818 394.634 44.3897C398.736 42.4976 402.128 49.4354 405.007 45.9665Z" stroke="black" stroke-miterlimit="10"/>
<path d="M181.539 41.7782C181.539 41.7782 179.961 32.0022 190.058 29.8046C200.154 27.6069 204.562 37.9939 207.401 40.2014C210.241 42.4089 211.829 35.1262 217.814 37.0971C223.799 39.0681 225.376 43.4042 226.954 43.7195C228.532 44.0349 228.847 39.3046 234.842 41.1967C238.281 42.2169 241.421 44.0566 243.992 46.5577H164.826C164.826 46.5577 167.034 42.1428 171.136 40.2507C175.238 38.3585 178.699 45.247 181.539 41.7782Z" stroke="black" stroke-miterlimit="10"/>
</g>
<path d="M404.032 241.18C404.032 271.543 421.997 296.15 444.162 296.15C466.328 296.15 484.293 271.513 484.293 241.18C484.293 210.847 466.328 106.485 444.162 106.485C421.997 106.485 404.032 210.828 404.032 241.18Z" fill="#92E3A9"/>
<path opacity="0.5" d="M404.032 241.18C404.032 271.543 421.997 296.15 444.162 296.15C466.328 296.15 484.293 271.513 484.293 241.18C484.293 210.847 466.328 106.485 444.162 106.485C421.997 106.485 404.032 210.828 404.032 241.18Z" fill="white"/>
<path d="M465.844 243.91L453.035 248.374L446.695 256.988L447.81 283.369L455.185 278.363L448.036 288.828L449.308 427.653H442.051L442.919 268.784L421.661 257.066L433.808 261.56L431.373 254.248L437.18 262.802L442.978 264.95L443.392 240.944L422.282 212.907L433.601 224.21L431.688 216.356L437.102 227.709L443.511 234.124L444.161 196.617L446.459 251.321L466.465 230.133L455.481 245.063L465.844 243.91Z" fill="#999999"/>
<path d="M422.085 196.745C421.91 198.996 422.485 201.242 423.722 203.131C425.18 204.861 427.17 206.06 429.382 206.541C429.693 204.278 429.103 201.983 427.738 200.151C426.373 198.319 424.343 197.096 422.085 196.745Z" fill="white"/>
<path d="M410.017 213.715C409.705 215.979 410.295 218.275 411.659 220.109C413.024 221.942 415.054 223.167 417.313 223.521C417.625 221.257 417.035 218.961 415.67 217.127C414.306 215.293 412.276 214.068 410.017 213.715Z" fill="white"/>
<path d="M410.016 246.788C410.616 248.969 411.919 250.891 413.723 252.257C415.678 253.39 417.951 253.847 420.191 253.558C419.598 251.379 418.298 249.459 416.494 248.098C414.538 246.96 412.261 246.499 410.016 246.788Z" fill="white"/>
<path d="M476.424 246.788C475.825 248.967 474.526 250.889 472.726 252.257C470.76 253.397 468.472 253.854 466.219 253.558C466.818 251.379 468.121 249.46 469.926 248.099C471.887 246.953 474.172 246.492 476.424 246.788Z" fill="white"/>
<path d="M423.957 233.06C423.789 235.315 424.368 237.562 425.604 239.456C427.065 241.181 429.054 242.376 431.264 242.856C431.572 240.592 430.98 238.297 429.614 236.465C428.247 234.634 426.216 233.411 423.957 233.06Z" fill="white"/>
<path d="M427.094 178.257C426.928 180.51 427.51 182.755 428.751 184.643C430.205 186.373 432.192 187.573 434.401 188.053C434.717 185.789 434.129 183.492 432.764 181.659C431.398 179.825 429.365 178.603 427.104 178.257H427.094Z" fill="white"/>
<path d="M434.303 192.35C434.133 194.595 434.712 196.834 435.949 198.716C437.393 200.448 439.369 201.654 441.569 202.145C441.753 199.898 441.188 197.653 439.962 195.76C438.504 194.03 436.514 192.831 434.303 192.35Z" fill="white"/>
<path d="M417.194 182.091C416.886 184.353 417.477 186.647 418.841 188.478C420.205 190.31 422.234 191.534 424.491 191.887C424.802 189.624 424.212 187.329 422.847 185.497C421.483 183.665 419.453 182.442 417.194 182.091Z" fill="white"/>
<path d="M472.795 182.091C472.965 184.343 472.386 186.587 471.149 188.477C469.69 190.207 467.7 191.405 465.489 191.887C465.321 189.632 465.899 187.384 467.136 185.491C468.597 183.766 470.586 182.571 472.795 182.091Z" fill="white"/>
<path d="M425.526 161.031C425.357 163.283 425.935 165.528 427.173 167.417C428.626 169.147 430.614 170.347 432.822 170.827C433.139 168.563 432.551 166.266 431.185 164.433C429.82 162.599 427.787 161.377 425.526 161.031Z" fill="white"/>
<path d="M429.066 142.731C428.197 144.845 428.194 147.215 429.057 149.331C429.92 151.448 431.581 153.14 433.681 154.044C434.553 151.932 434.56 149.561 433.698 147.444C432.837 145.328 431.176 143.635 429.076 142.731H429.066Z" fill="white"/>
<path d="M454.446 137.951C452.463 139.055 450.905 140.79 450.019 142.879C449.376 145.045 449.47 147.364 450.285 149.472C452.346 148.485 453.937 146.729 454.715 144.582C455.493 142.435 455.397 140.068 454.446 137.991V137.951Z" fill="white"/>
<path d="M442.615 159.829C441.114 161.551 440.347 163.792 440.477 166.072C440.608 168.352 441.627 170.49 443.315 172.029C444.823 170.311 445.595 168.068 445.464 165.786C445.333 163.503 444.31 161.364 442.615 159.829Z" fill="white"/>
<path d="M443.245 127.259C441.737 128.976 440.965 131.217 441.096 133.497C441.227 135.778 442.25 137.916 443.945 139.449C445.448 137.73 446.216 135.49 446.085 133.211C445.954 130.932 444.935 128.795 443.245 127.259Z" fill="white"/>
<path d="M469.809 196.745C469.984 198.99 469.416 201.231 468.191 203.121C466.733 204.851 464.743 206.05 462.532 206.531C462.363 204.276 462.942 202.029 464.178 200.135C465.632 198.418 467.61 197.226 469.809 196.745Z" fill="white"/>
<path d="M476.699 216.78C476.88 219.027 476.315 221.272 475.092 223.166C473.638 224.896 471.651 226.095 469.442 226.576C469.268 224.322 469.843 222.073 471.079 220.18C472.53 218.462 474.504 217.268 476.699 216.78Z" fill="white"/>
<path d="M458.399 224.053C458.568 226.308 457.989 228.555 456.752 230.449C455.296 232.174 453.31 233.369 451.103 233.849C450.927 231.598 451.503 229.352 452.739 227.463C454.198 225.733 456.188 224.534 458.399 224.053Z" fill="white"/>
<path d="M453.401 196.282C454.347 198.36 454.439 200.726 453.657 202.872C452.875 205.017 451.282 206.77 449.22 207.753C448.41 205.644 448.32 203.326 448.964 201.16C449.864 199.089 451.424 197.375 453.401 196.282Z" fill="white"/>
<path d="M466.357 270.183C464.096 270.171 461.901 269.412 460.116 268.025C458.504 266.434 457.463 264.355 457.158 262.112C459.42 262.124 461.614 262.882 463.399 264.27C465.01 265.862 466.05 267.94 466.357 270.183Z" fill="white"/>
<path d="M430.803 266.133C430.137 268.293 428.775 270.171 426.928 271.474C424.94 272.551 422.652 272.939 420.42 272.578C421.085 270.418 422.443 268.537 424.285 267.227C426.278 266.155 428.569 265.771 430.803 266.133Z" fill="white"/>
<path d="M462.215 178.257C462.39 180.508 461.815 182.754 460.579 184.643C459.12 186.373 457.13 187.572 454.919 188.053C454.75 185.798 455.329 183.551 456.565 181.657C458.022 179.932 460.008 178.737 462.215 178.257Z" fill="white"/>
<path d="M462.274 161.968C462.443 164.222 461.864 166.47 460.627 168.363C459.171 170.089 457.185 171.284 454.978 171.763C454.802 169.512 455.378 167.267 456.614 165.377C458.073 163.648 460.063 162.449 462.274 161.968Z" fill="white"/>
<path d="M284.794 198.243C284.794 235.593 306.901 265.867 334.164 265.867C361.427 265.867 383.543 235.593 383.543 198.243C383.543 160.893 361.417 32.5345 334.095 32.5345C306.772 32.5345 284.794 160.893 284.794 198.243Z" fill="#92E3A9"/>
<path opacity="0.5" d="M284.794 198.243C284.794 235.593 306.901 265.867 334.164 265.867C361.427 265.867 383.543 235.593 383.543 198.243C383.543 160.893 361.417 32.5345 334.095 32.5345C306.772 32.5345 284.794 160.893 284.794 198.243Z" fill="white"/>
<path d="M360.815 201.604L345.068 207.093L337.269 217.687L338.63 250.138L347.711 243.989L338.916 256.859L340.474 427.653H331.55L332.615 232.193L306.456 217.785L321.414 223.314L318.407 214.316L325.555 224.841L332.694 227.482L333.207 197.947L307.235 163.456L321.148 177.371L318.801 167.693L325.457 181.667L333.355 189.561L334.143 143.411L336.973 210.719L361.584 184.643L348.066 203.013L360.815 201.604Z" fill="#999999"/>
<path d="M306.979 143.529C306.979 143.529 306.525 148.062 309.01 151.413C311.495 154.764 315.962 155.601 315.962 155.601C315.962 155.601 316.415 151.068 313.94 147.718C311.465 144.367 306.979 143.529 306.979 143.529Z" fill="white"/>
<path d="M292.1 164.451C292.1 164.451 291.647 168.984 294.121 172.335C296.596 175.685 301.083 176.523 301.083 176.523C301.083 176.523 301.536 171.99 299.061 168.639C296.586 165.289 292.1 164.451 292.1 164.451Z" fill="white"/>
<path d="M292.111 205.141C292.111 205.141 293.205 209.566 296.666 211.862C300.127 214.159 304.623 213.469 304.623 213.469C304.623 213.469 303.529 209.044 300.068 206.748C296.607 204.452 292.111 205.141 292.111 205.141Z" fill="white"/>
<path d="M373.84 205.141C373.84 205.141 372.736 209.566 369.284 211.862C365.833 214.159 361.318 213.469 361.318 213.469C361.318 213.469 362.422 209.044 365.873 206.748C369.324 204.452 373.84 205.141 373.84 205.141Z" fill="white"/>
<path d="M309.296 188.25C309.296 188.25 308.842 192.783 311.317 196.134C313.792 199.485 318.278 200.322 318.278 200.322C318.278 200.322 318.732 195.789 316.247 192.439C313.762 189.088 309.296 188.25 309.296 188.25Z" fill="white"/>
<path d="M313.151 120.863C313.151 120.863 312.697 125.396 315.172 128.747C317.647 132.098 322.134 132.935 322.134 132.935C322.134 132.935 322.587 128.402 320.102 125.051C317.618 121.701 313.151 120.863 313.151 120.863Z" fill="white"/>
<path d="M322.016 138.168C322.016 138.168 321.563 142.701 324.037 146.052C326.512 149.403 330.999 150.25 330.999 150.25C330.999 150.25 331.452 145.717 328.977 142.366C326.502 139.016 322.016 138.168 322.016 138.168Z" fill="white"/>
<path d="M300.965 125.544C300.965 125.544 300.511 130.077 302.996 133.428C305.481 136.779 309.898 137.626 309.898 137.626C309.898 137.626 310.352 133.083 307.926 129.742C305.5 126.402 300.965 125.544 300.965 125.544Z" fill="white"/>
<path d="M369.374 125.544C369.374 125.544 369.827 130.077 367.343 133.428C364.858 136.779 360.391 137.626 360.391 137.626C360.391 137.626 359.938 133.083 362.413 129.742C364.887 126.402 369.374 125.544 369.374 125.544Z" fill="white"/>
<path d="M311.219 99.6357C311.219 99.6357 310.765 104.169 313.25 107.52C315.735 110.87 320.152 111.718 320.152 111.718C320.152 111.718 320.606 107.184 318.18 103.834C315.754 100.483 311.219 99.6357 311.219 99.6357Z" fill="white"/>
<path d="M315.576 77.1177C315.576 77.1177 313.999 81.3947 315.576 85.238C317.154 89.0814 321.256 91.0425 321.256 91.0425C321.256 91.0425 322.833 86.7655 321.256 82.9222C319.678 79.0788 315.576 77.1177 315.576 77.1177Z" fill="white"/>
<path d="M346.804 71.2343C346.804 71.2343 342.761 73.353 341.351 77.2555C339.941 81.158 341.677 85.366 341.677 85.366C341.677 85.366 345.719 83.2473 347.129 79.3546C348.539 75.462 346.804 71.2343 346.804 71.2343Z" fill="white"/>
<path d="M332.24 98.1971C332.24 98.1971 329.37 101.735 329.607 105.874C329.844 110.013 333.107 113.196 333.107 113.196C333.107 113.196 335.986 109.668 335.75 105.519C335.513 101.37 332.24 98.1971 332.24 98.1971Z" fill="white"/>
<path d="M333.019 58.088C333.019 58.088 330.14 61.6259 330.377 65.7649C330.613 69.9039 333.877 73.087 333.877 73.087C333.877 73.087 336.756 69.5491 336.519 65.4101C336.283 61.2711 333.019 58.088 333.019 58.088Z" fill="white"/>
<path d="M365.645 143.529C365.645 143.529 366.099 148.062 363.624 151.413C361.149 154.764 356.663 155.601 356.663 155.601C356.663 155.601 356.209 151.068 358.684 147.718C361.159 144.367 365.645 143.529 365.645 143.529Z" fill="white"/>
<path d="M374.176 168.215C374.176 168.215 374.63 172.749 372.155 176.099C369.68 179.45 365.194 180.287 365.194 180.287C365.194 180.287 364.74 175.754 367.215 172.404C369.69 169.053 374.176 168.215 374.176 168.215Z" fill="white"/>
<path d="M351.665 177.174C351.665 177.174 352.118 181.707 349.634 185.057C347.149 188.408 342.732 189.256 342.732 189.256C342.732 189.256 342.278 184.722 344.704 181.372C347.129 178.021 351.665 177.174 351.665 177.174Z" fill="white"/>
<path d="M345.503 142.997C345.503 142.997 347.238 147.215 345.818 151.117C344.399 155.02 340.356 157.119 340.356 157.119C340.356 157.119 338.621 152.911 340.04 149.008C341.46 145.106 345.503 142.997 345.503 142.997Z" fill="white"/>
<path d="M361.445 233.927C361.445 233.927 356.89 234.006 353.774 231.266C350.658 228.527 350.165 223.994 350.165 223.994C350.165 223.994 354.721 223.905 357.837 226.654C360.952 229.404 361.445 233.927 361.445 233.927Z" fill="white"/>
<path d="M317.707 228.941C317.707 228.941 316.465 233.326 312.945 235.514C309.425 237.702 304.928 236.864 304.928 236.864C304.928 236.864 306.171 232.479 309.701 230.291C313.231 228.103 317.707 228.941 317.707 228.941Z" fill="white"/>
<path d="M356.358 120.863C356.358 120.863 356.822 125.396 354.337 128.747C351.852 132.098 347.386 132.935 347.386 132.935C347.386 132.935 346.922 128.402 349.407 125.051C351.892 121.701 356.358 120.863 356.358 120.863Z" fill="white"/>
<path d="M356.437 100.789C356.437 100.789 356.901 105.322 354.465 108.673C352.03 112.023 347.514 112.861 347.514 112.861C347.514 112.861 347.051 108.328 349.535 104.977C352.02 101.627 356.437 100.789 356.437 100.789Z" fill="white"/>
<path d="M479.254 427.653H22.7623" stroke="#263238" stroke-linecap="round" stroke-linejoin="round"/>
<path d="M249.89 264.595L260.145 270.222L265.242 279.092C265.242 279.092 263.743 281.812 261.535 281.812C259.326 281.812 253.519 277.673 253.519 277.673C253.519 277.673 249.091 276.017 247.987 275.465C246.883 274.913 245.857 272.322 245.857 272.322L249.89 264.595Z" fill="white" stroke="#263238" stroke-linecap="round" stroke-linejoin="round"/>
<path d="M172.998 343.473C172.998 343.473 169.172 378.064 167.348 386.381C165.524 394.699 162.852 420.449 162.852 420.449C162.852 420.449 172.002 432.088 173.333 433.911C174.664 435.734 172.002 436.246 163.187 433.418C154.372 430.59 152.203 428.264 151.867 426.431C151.563 422.115 151.51 417.784 151.71 413.462C151.867 410.801 148.909 382.686 149.245 372.703C149.58 362.72 154.865 347.277 154.865 347.277L155.033 339.137L172.998 343.473Z" fill="#757575" stroke="#263238" stroke-linecap="round" stroke-linejoin="round"/>
<path d="M163.184 433.438C154.369 430.609 152.2 428.284 151.865 426.451C151.56 422.134 151.507 417.804 151.707 413.482C151.865 410.959 149.064 385.455 149.203 374.407C155.533 378.29 165.127 377.797 168.923 376.851C168.341 380.961 167.799 384.41 167.365 386.381C165.531 394.688 162.869 420.469 162.869 420.469C162.869 420.469 172.019 432.107 173.35 433.93C174.681 435.753 171.999 436.266 163.184 433.438Z" fill="#263238" stroke="#263238" stroke-linecap="round" stroke-linejoin="round"/>
<path d="M207.434 341.817L206.103 351.288C206.103 351.288 206.438 384.548 206.606 389.722C206.773 394.895 207.769 414.832 207.769 414.832C207.769 414.832 221.08 424.805 223.407 425.977C225.734 427.15 227.065 427.801 226.237 428.136C225.409 428.471 217.255 428.796 214.405 428.471C211.556 428.146 201.094 428.303 199.26 427.633C198.468 427.262 197.798 426.675 197.327 425.939C196.856 425.203 196.603 424.348 196.598 423.474C196.598 422.144 197.268 414.497 197.268 413.334C197.268 412.171 186.284 375.59 186.284 368.278C186.284 360.965 187.122 348.982 187.122 348.154C187.122 347.326 187.28 341.167 187.28 341.167L207.434 341.817Z" fill="#757575" stroke="#263238" stroke-linecap="round" stroke-linejoin="round"/>
<path d="M194.084 372.407C198.491 373.166 203.372 372.111 206.281 371.274C206.379 379.384 206.488 387.386 206.567 389.702C206.734 394.856 207.73 414.812 207.73 414.812C207.73 414.812 221.041 424.785 223.368 425.958C225.695 427.131 227.026 427.781 226.198 428.116C225.37 428.451 217.216 428.776 214.366 428.451C211.516 428.126 201.055 428.284 199.221 427.614C198.429 427.243 197.759 426.655 197.288 425.919C196.817 425.183 196.564 424.329 196.559 423.455C196.559 422.124 197.229 414.477 197.229 413.314C197.229 412.151 187.704 380.439 186.383 370.17C188.847 371.232 191.434 371.983 194.084 372.407Z" fill="#263238" stroke="#263238" stroke-linecap="round" stroke-linejoin="round"/>
<path d="M186.131 185.304C186.131 185.304 192.55 187.275 195.212 190.842C197.874 194.409 206.009 216.662 205.772 223.363C205.535 230.064 219.182 338.033 217.989 339.462C216.796 340.891 214.39 340.448 214.39 340.448C211.191 343.074 207.266 344.663 203.139 345.001C195.951 345.72 185.648 344.015 185.648 344.015C179.992 347.008 173.575 348.257 167.209 347.602C156.915 346.41 152.597 344.015 152.597 344.015C149.826 344.391 147.005 343.974 144.462 342.813C140.626 340.901 139.424 339.462 139.424 339.462L159.578 187.225C159.578 187.225 178.223 182.199 186.131 185.304Z" fill="#A3A3A3" stroke="#263238" stroke-linecap="round" stroke-linejoin="round"/>
<path d="M208.879 193.434C208.879 193.434 212.763 206.797 214.923 216.425C217.082 226.053 219.557 238.106 219.557 238.106C219.557 238.106 241.249 256.938 244.444 259.786C247.638 262.634 249.906 264.526 249.906 264.526L245.834 272.262L210.643 251.153L205.575 209.034L208.879 193.434Z" fill="#6BD688" stroke="#263238" stroke-linecap="round" stroke-linejoin="round"/>
<path d="M189.734 176.474V184.229C189.734 184.229 193.767 187.54 195.207 190.842C196.646 194.143 197.07 200.47 197.07 200.47L173.909 200.864L175.496 168.994L182.832 170.718L189.734 176.474Z" fill="white" stroke="#263238" stroke-linecap="round" stroke-linejoin="round"/>
<path d="M203.945 224.19C203.945 224.19 200.928 229.118 200.78 230.951C200.632 232.784 203.807 238.707 203.807 238.707L203.945 224.19Z" stroke="#263238" stroke-linecap="round" stroke-linejoin="round"/>
<path d="M190.316 185.382C190.316 185.382 194.772 197.454 198.657 206.225C202.542 214.996 203.114 221.608 202.532 226.782C201.95 231.956 204.928 276.657 204.928 276.657L216.297 274.351C216.297 274.351 211.978 241.298 211.692 239.426C211.406 237.554 207.659 216.139 209.099 209.241C210.539 202.342 209.385 194.577 208.813 193.473C208.241 192.369 190.316 185.382 190.316 185.382Z" fill="#6BD688" stroke="#263238" stroke-linecap="round" stroke-linejoin="round"/>
<path d="M204.352 191.483C205.802 194.771 206.877 198.212 207.556 201.741C208.197 206.235 208.414 213.074 208.414 213.074C208.414 213.074 203.07 197.041 201.354 193.365L199.639 189.728L204.352 191.483Z" fill="#263238" stroke="#263238" stroke-linecap="round" stroke-linejoin="round"/>
<path d="M206.563 136.946C206.563 136.946 213.031 143.411 213.031 146.574C213.031 149.737 207.855 154.044 206.563 155.443C205.271 156.843 201.525 164.934 202.964 171.113C204.404 177.292 205.518 184.111 205.094 188.565C204.67 193.02 204.108 199.287 204.108 199.287C204.108 199.287 194.761 189.364 191.29 186.782C187.819 184.2 189.702 176.434 189.702 176.434C189.702 176.434 182.8 169.674 182.514 167.949C182.228 166.225 173.887 147.973 173.453 144.376C173.019 140.779 175.898 133.162 177.476 131.733C179.053 130.304 187.257 128.274 192.266 129.141C197.275 130.008 205.271 135.074 206.563 136.946Z" fill="#263238" stroke="#263238" stroke-linecap="round" stroke-linejoin="round"/>
<path d="M200.522 139.962C200.522 139.962 206.853 148.013 207.425 150.023C207.996 152.034 205.699 158.075 205.452 160.371C205.206 162.667 204.595 168.422 201.43 172.009C198.265 175.596 194.528 179.893 192.082 180.061C189.637 180.228 180.714 174.03 179.994 172.591C179.274 171.152 181.295 152.605 181.719 151.6C182.143 150.595 195.494 144.13 200.522 139.962Z" fill="white" stroke="#263238" stroke-linecap="round" stroke-linejoin="round"/>
<path d="M200.564 159.05C200.327 159.859 200.515 160.607 200.968 160.745C201.422 160.883 201.954 160.332 202.22 159.533C202.487 158.735 202.27 157.976 201.806 157.848C201.343 157.72 200.791 158.252 200.564 159.05Z" fill="#263238"/>
<path d="M190.913 157.385C190.686 158.193 190.913 158.942 191.327 159.08C191.74 159.218 192.312 158.666 192.568 157.868C192.825 157.07 192.618 156.311 192.164 156.183C191.711 156.055 191.129 156.587 190.913 157.385Z" fill="#263238"/>
<path d="M196.5 153.906C196.796 152.97 194.301 150.378 189.45 153.62" stroke="#263238" stroke-linecap="round" stroke-linejoin="round"/>
<path d="M200.676 154.369C201.04 154.369 203.88 153.581 204.984 155.808" stroke="#263238" stroke-linecap="round" stroke-linejoin="round"/>
<path d="M198.797 166.116C198.797 166.116 197.811 167.269 195.346 166.55" stroke="#263238" stroke-linecap="round" stroke-linejoin="round"/>
<path d="M196.789 170.718C195.548 170.884 194.285 170.749 193.108 170.323C191.93 169.898 190.873 169.195 190.025 168.274" stroke="#263238" stroke-linecap="round" stroke-linejoin="round"/>
<path d="M145.593 269.759C145.593 269.759 138.396 269.463 134.945 267.887C131.494 266.31 127.056 261.56 126.751 258.692C126.445 255.824 127.737 244.748 128.91 241.722C130.084 238.697 133.367 230.803 133.367 230.803C133.367 230.803 154.941 205.614 155.799 205.358C156.656 205.102 158.678 206.225 159.683 208.807C160.689 211.389 154.753 242.442 151.914 252.08C150.111 258.077 148.001 263.978 145.593 269.759Z" fill="#263238" stroke="#263238" stroke-linecap="round" stroke-linejoin="round"/>
<path d="M175.783 188.979C175.783 188.979 177.942 209.389 175.645 227.354C173.348 245.319 172.48 277.801 172.48 277.801C172.48 277.801 160.115 279.101 153.213 277.948C146.311 276.795 142.712 274.647 142.712 274.647C142.712 274.647 149.752 244.462 152.346 237.563C154.939 230.665 156.083 213.271 156.083 213.271C156.083 213.271 154.643 188.112 155.363 186.102C156.083 184.091 160.835 183.372 160.835 183.372C160.835 183.372 173.634 183.224 175.783 188.979Z" fill="#6BD688" stroke="#263238" stroke-linecap="round" stroke-linejoin="round"/>
<path d="M166.733 183.934C166.733 183.934 169.75 186.664 169.75 195.868C169.75 205.072 161.556 221.303 158.391 226.773C155.226 232.242 150.336 241.141 150.336 241.141L150.621 234.676C150.621 234.676 160.689 217.135 163.706 205.496C165.472 198.42 164.708 190.95 161.546 184.377L166.733 183.934Z" fill="#263238" stroke="#263238" stroke-linecap="round" stroke-linejoin="round"/>
<path d="M184.844 142.12C184.844 142.12 182.26 162.381 181.393 173.31C180.917 181.628 180.937 189.967 181.452 198.282C176.769 195.87 172.636 192.515 169.314 188.427C166.869 185.372 162.126 184.407 161.554 184.407C160.982 184.407 158.961 184.259 158.961 184.259C158.961 184.259 162.846 163.416 165.143 154.221C167.441 145.027 170.478 136.325 172.331 134.246C174.1 132.504 176.381 131.375 178.839 131.023" fill="#263238"/>
<path d="M184.844 142.12C184.844 142.12 182.26 162.381 181.393 173.31C180.917 181.628 180.937 189.967 181.452 198.282C176.769 195.87 172.636 192.515 169.314 188.427C166.869 185.372 162.126 184.407 161.554 184.407C160.982 184.407 158.961 184.259 158.961 184.259C158.961 184.259 162.846 163.416 165.143 154.221C167.441 145.027 170.478 136.325 172.331 134.246C174.1 132.504 176.381 131.375 178.839 131.023" stroke="#263238" stroke-linecap="round" stroke-linejoin="round"/>
<path d="M189.734 184.229L189.596 190.556" stroke="#263238" stroke-linecap="round" stroke-linejoin="round"/>
<path d="M159.253 212.404L147.677 240.599L169.32 262.279L165.011 268.606C165.011 268.606 129.515 243.752 129.515 242.461C129.593 241.424 129.836 240.406 130.235 239.446C130.235 239.446 146.563 191.995 147.569 188.979C148.575 185.964 156.443 183.806 158.06 184.229C159.209 184.613 160.28 185.197 161.225 185.954" fill="#6BD688"/>
<path d="M159.253 212.404L147.677 240.599L169.32 262.279L165.011 268.606C165.011 268.606 129.515 243.752 129.515 242.461C129.593 241.424 129.836 240.406 130.235 239.446C130.235 239.446 146.563 191.995 147.569 188.979C148.575 185.964 156.443 183.806 158.06 184.229C159.209 184.613 160.28 185.197 161.225 185.954" stroke="#263238" stroke-linecap="round" stroke-linejoin="round"/>
<path d="M169.314 262.279L172.913 265.305C172.913 265.305 185.564 269.464 186.284 270.902C187.003 272.341 190.021 277.515 190.168 278.096C190.223 278.532 190.16 278.974 189.987 279.378C189.814 279.782 189.536 280.132 189.182 280.392C188.463 280.678 187.023 280.964 186.885 280.107C186.747 279.249 187.171 280.107 186.737 279.239C186.303 278.372 180.693 274.933 180.693 274.933C180.693 274.933 174.777 274.785 172.065 273.346C170.184 272.265 168.514 270.853 167.135 269.178L165.272 267.453L169.314 262.279Z" fill="white" stroke="#263238" stroke-linecap="round" stroke-linejoin="round"/>
<path d="M199.234 226.782L193.91 232.528" stroke="#263238" stroke-linecap="round" stroke-linejoin="round"/>
<path d="M193.906 229.65L189.164 233.681" stroke="#263238" stroke-linecap="round" stroke-linejoin="round"/>
<path d="M256.851 270.577L260.283 273.474C260.283 273.474 263.714 279.259 264.138 280.225C264.562 281.191 263.063 281.674 261.565 280.471C260.574 279.653 259.645 278.764 258.784 277.811C256.752 277.363 254.747 276.8 252.779 276.125C251.921 275.643 249.358 271.543 249.358 271.543" fill="white"/>
<path d="M256.851 270.577L260.283 273.474C260.283 273.474 263.714 279.259 264.138 280.225C264.562 281.191 263.063 281.674 261.565 280.471C260.574 279.653 259.645 278.764 258.784 277.811C256.752 277.363 254.747 276.8 252.779 276.125C251.921 275.643 249.358 271.543 249.358 271.543" stroke="#263238" stroke-linecap="round" stroke-linejoin="round"/>
<path d="M259.158 427.653H267.392V338.339C267.306 332.728 268.338 327.156 270.427 321.948C272.516 316.739 275.62 311.998 279.56 308C283.499 304.002 288.195 300.827 293.374 298.66C298.553 296.492 304.111 295.376 309.726 295.376C315.34 295.376 320.898 296.492 326.077 298.66C331.256 300.827 335.952 304.002 339.892 308C343.831 311.998 346.936 316.739 349.025 321.948C351.114 327.156 352.146 332.728 352.06 338.339V427.653H360.283V338.339C360.283 324.936 354.956 312.082 345.474 302.605C335.992 293.127 323.131 287.803 309.721 287.803C296.311 287.803 283.45 293.127 273.968 302.605C264.485 312.082 259.158 324.936 259.158 338.339V427.653Z" fill="#00B832" stroke="#263238" stroke-linecap="round" stroke-linejoin="round"/>
<path d="M131.858 410.397L195.633 400.493" stroke="#263238" stroke-linecap="round" stroke-linejoin="round"/>
<path d="M191.844 370.692L129.676 374.614" stroke="#263238" stroke-linecap="round" stroke-linejoin="round"/>
<path d="M197.969 385.829C197.969 385.367 197.832 384.916 197.575 384.531C197.318 384.147 196.953 383.848 196.526 383.671C196.099 383.494 195.629 383.448 195.176 383.538C194.723 383.628 194.306 383.851 193.98 384.178C193.653 384.504 193.43 384.92 193.34 385.373C193.25 385.826 193.296 386.296 193.473 386.723C193.65 387.15 193.949 387.514 194.334 387.771C194.718 388.028 195.17 388.165 195.632 388.165C195.939 388.165 196.243 388.104 196.526 387.987C196.81 387.869 197.067 387.697 197.284 387.481C197.501 387.264 197.673 387.006 197.791 386.723C197.908 386.439 197.969 386.136 197.969 385.829Z" fill="#878787" stroke="#263238" stroke-linecap="round" stroke-linejoin="round"/>
<path d="M296.939 377.246C296.939 375.439 296.403 373.673 295.399 372.17C294.395 370.668 292.967 369.497 291.297 368.806C289.627 368.114 287.789 367.933 286.016 368.286C284.243 368.638 282.614 369.508 281.336 370.786C280.058 372.064 279.187 373.691 278.834 375.464C278.482 377.236 278.663 379.072 279.355 380.742C280.046 382.411 281.218 383.838 282.721 384.842C284.224 385.845 285.991 386.381 287.799 386.381C290.223 386.381 292.548 385.419 294.262 383.705C295.976 381.992 296.939 379.669 296.939 377.246Z" fill="white" stroke="#263238" stroke-linecap="round" stroke-linejoin="round"/>
<path d="M125.677 327.725C115.844 327.719 106.231 330.628 98.0531 336.084C89.8751 341.539 83.4997 349.296 79.7335 358.374C75.9672 367.452 74.9792 377.442 76.8945 387.08C78.8099 396.719 83.5424 405.574 90.4935 412.524C97.4446 419.474 106.302 424.208 115.945 426.126C125.588 428.044 135.584 427.06 144.668 423.3C153.752 419.539 161.516 413.17 166.978 404.999C172.439 396.827 175.354 387.22 175.352 377.393C175.349 364.225 170.115 351.596 160.8 342.282C151.486 332.969 138.852 327.733 125.677 327.725ZM125.677 419.05C117.433 419.05 109.375 416.606 102.521 412.029C95.6672 407.452 90.3252 400.946 87.1706 393.334C84.0161 385.723 83.1907 377.347 84.7989 369.267C86.407 361.186 90.3765 353.764 96.2054 347.938C102.034 342.112 109.461 338.145 117.545 336.537C125.63 334.93 134.01 335.755 141.626 338.908C149.242 342.061 155.751 347.4 160.331 354.25C164.911 361.101 167.355 369.155 167.355 377.393C167.356 382.864 166.279 388.281 164.185 393.336C162.091 398.391 159.021 402.983 155.151 406.852C151.28 410.72 146.685 413.788 141.628 415.881C136.57 417.974 131.15 419.051 125.677 419.05Z" fill="#263238" stroke="#263238" stroke-linecap="round" stroke-linejoin="round"/>
<path d="M288.165 327.725C278.333 327.725 268.723 330.639 260.549 336.098C252.375 341.557 246.004 349.316 242.243 358.394C238.481 367.473 237.497 377.462 239.416 387.099C241.334 396.735 246.069 405.587 253.022 412.534C259.974 419.482 268.831 424.212 278.474 426.128C288.116 428.044 298.11 427.058 307.192 423.297C316.275 419.535 324.037 413.167 329.497 404.996C334.958 396.825 337.871 387.219 337.869 377.393C337.867 364.22 332.629 351.586 323.308 342.272C313.986 332.958 301.345 327.725 288.165 327.725ZM288.165 419.05C279.921 419.05 271.863 416.606 265.009 412.029C258.155 407.452 252.813 400.946 249.659 393.334C246.504 385.723 245.679 377.347 247.287 369.267C248.895 361.186 252.865 353.764 258.693 347.938C264.522 342.112 271.949 338.145 280.033 336.537C288.118 334.93 296.498 335.755 304.114 338.908C311.73 342.061 318.239 347.4 322.819 354.25C327.399 361.101 329.843 369.154 329.843 377.393C329.844 382.864 328.767 388.281 326.673 393.336C324.579 398.391 321.509 402.983 317.639 406.852C313.768 410.72 309.173 413.788 304.116 415.881C299.058 417.974 293.638 419.051 288.165 419.05Z" fill="#263238" stroke="#263238" stroke-linecap="round" stroke-linejoin="round"/>
<path d="M210.3 385.829C210.3 385.583 211.227 385.307 211.217 385.061C211.207 384.814 210.231 384.637 210.231 384.39C210.231 384.144 211.108 383.779 211.069 383.543C211.029 383.306 210.083 383.208 210.024 382.971C209.964 382.735 210.832 382.282 210.773 381.986C210.714 381.69 209.787 381.759 209.669 381.523C209.55 381.286 210.408 380.754 210.329 380.537C210.25 380.32 209.284 380.419 209.186 380.182C209.087 379.946 209.846 379.355 209.738 379.128C209.629 378.901 208.683 379.128 208.574 378.882C208.466 378.635 209.146 377.985 209.018 377.778C208.89 377.571 207.963 377.857 207.825 377.65C207.687 377.443 208.318 376.664 208.17 376.507C208.022 376.349 207.125 376.684 206.967 376.507C206.809 376.329 207.361 375.521 207.194 375.334C207.026 375.147 206.208 375.62 206.001 375.442C205.794 375.265 206.297 374.457 206.109 374.25C205.922 374.043 205.123 374.634 204.936 374.477C204.748 374.319 205.123 373.422 204.936 373.274C204.748 373.126 203.999 373.757 203.792 373.619C203.585 373.481 203.881 372.555 203.664 372.427C203.447 372.299 202.776 372.988 202.56 372.88C202.343 372.772 202.56 371.816 202.313 371.707C202.067 371.599 201.485 372.358 201.258 372.259C201.031 372.161 201.13 371.205 200.903 371.116C200.676 371.027 200.134 371.845 199.917 371.776C199.7 371.707 199.69 370.732 199.454 370.673C199.217 370.613 198.763 371.471 198.527 371.431C198.29 371.392 198.201 370.446 197.955 370.377C197.708 370.308 197.344 371.244 197.097 371.215C196.851 371.185 196.673 370.229 196.427 370.229C196.18 370.229 195.914 371.146 195.658 371.146C195.401 371.146 195.145 370.219 194.898 370.229C194.652 370.239 194.464 371.215 194.218 371.215C193.971 371.215 193.616 370.337 193.37 370.377C193.123 370.416 193.035 371.362 192.798 371.431C192.561 371.5 192.108 370.613 191.871 370.673C191.635 370.732 191.635 371.707 191.398 371.776C191.161 371.845 190.629 371.037 190.412 371.116C190.195 371.195 190.284 372.161 190.057 372.259C189.83 372.358 189.219 371.599 188.992 371.707C188.765 371.816 188.992 372.762 188.755 372.88C188.519 372.998 187.858 372.299 187.641 372.427C187.424 372.555 187.72 373.481 187.523 373.619C187.326 373.757 186.537 373.136 186.369 373.284C186.202 373.432 186.557 374.27 186.369 374.477C186.182 374.683 185.383 374.082 185.196 374.25C185.009 374.417 185.482 375.235 185.304 375.442C185.127 375.649 184.318 375.147 184.111 375.334C183.904 375.521 184.496 376.319 184.338 376.507C184.18 376.694 183.293 376.319 183.145 376.507C182.997 376.694 183.618 377.492 183.48 377.65C183.342 377.807 182.415 377.571 182.287 377.778C182.159 377.985 182.859 378.665 182.741 378.891C182.622 379.118 181.676 378.891 181.567 379.128C181.459 379.364 182.218 379.956 182.12 380.182C182.021 380.409 181.065 380.311 180.986 380.547C180.907 380.784 181.715 381.306 181.636 381.533C181.558 381.759 180.601 381.759 180.542 381.996C180.483 382.232 181.341 382.686 181.291 382.922C181.242 383.159 180.305 383.257 180.236 383.504C180.167 383.75 181.104 384.105 181.084 384.351C181.065 384.597 180.098 384.775 180.098 385.021C180.098 385.267 181.025 385.543 181.025 385.79C181.025 386.036 180.088 386.312 180.098 386.558C180.108 386.805 181.084 386.982 181.084 387.229C181.084 387.475 180.207 387.83 180.236 388.076C180.266 388.322 181.222 388.411 181.291 388.648C181.36 388.884 180.483 389.338 180.542 389.633C180.601 389.929 181.528 389.86 181.636 390.096C181.745 390.333 180.897 390.865 180.986 391.082C181.074 391.299 182.031 391.21 182.12 391.437C182.208 391.663 181.459 392.274 181.567 392.501C181.676 392.728 182.622 392.501 182.741 392.737C182.859 392.974 182.169 393.634 182.297 393.851C182.425 394.068 183.342 393.772 183.48 393.979C183.618 394.186 182.997 394.965 183.145 395.122C183.293 395.28 184.18 394.935 184.338 395.122C184.496 395.31 183.954 396.108 184.121 396.295C184.289 396.482 185.107 396.009 185.304 396.187C185.502 396.364 185.018 397.172 185.196 397.379C185.373 397.586 186.182 396.995 186.379 397.152C186.576 397.31 186.182 398.197 186.379 398.345C186.576 398.493 187.365 397.872 187.533 398.01C187.7 398.148 187.444 399.074 187.651 399.202C187.858 399.33 188.548 398.631 188.765 398.749C188.982 398.867 188.765 399.813 189.002 399.922C189.239 400.03 189.84 399.271 190.067 399.37C190.294 399.468 190.185 400.424 190.422 400.513C190.658 400.602 191.181 399.784 191.408 399.853C191.635 399.922 191.635 400.897 191.881 400.956C192.128 401.015 192.561 400.148 192.808 400.198C193.054 400.247 193.133 401.183 193.38 401.252C193.626 401.321 193.981 400.385 194.228 400.414C194.474 400.444 194.652 401.4 194.908 401.4C195.164 401.4 195.421 400.483 195.667 400.483C195.914 400.483 196.19 401.41 196.436 401.4C196.683 401.39 196.86 400.414 197.107 400.414C197.353 400.414 197.718 401.282 197.965 401.252C198.211 401.222 198.29 400.267 198.537 400.198C198.783 400.129 199.227 401.015 199.463 400.956C199.7 400.897 199.69 399.922 199.927 399.853C200.164 399.784 200.696 400.592 200.913 400.513C201.13 400.434 201.041 399.458 201.268 399.37C201.495 399.281 202.106 400.03 202.323 399.922C202.54 399.813 202.323 398.867 202.569 398.749C202.816 398.631 203.467 399.33 203.674 399.202C203.881 399.074 203.595 398.148 203.802 398.01C204.009 397.872 204.788 398.493 204.946 398.345C205.103 398.197 204.768 397.31 204.946 397.152C205.123 396.995 205.932 397.537 206.119 397.379C206.306 397.221 205.843 396.394 206.011 396.187C206.178 395.98 206.997 396.472 207.204 396.295C207.411 396.118 206.819 395.31 206.977 395.122C207.135 394.935 208.032 395.31 208.18 395.122C208.328 394.935 207.707 394.137 207.835 393.969C207.963 393.802 208.9 394.058 209.028 393.851C209.156 393.644 208.466 392.954 208.584 392.737C208.702 392.521 209.649 392.737 209.748 392.501C209.846 392.264 209.107 391.673 209.195 391.437C209.284 391.2 210.25 391.318 210.339 391.082C210.428 390.845 209.61 390.323 209.679 390.096C209.748 389.87 210.724 389.87 210.783 389.633C210.842 389.397 209.984 388.943 210.033 388.648C210.083 388.352 211.019 388.322 211.079 388.076C211.138 387.83 210.211 387.475 210.241 387.229C210.27 386.982 211.227 386.805 211.227 386.558C211.227 386.312 210.3 386.076 210.3 385.829ZM195.628 397.537C193.311 397.537 191.046 396.85 189.12 395.564C187.194 394.277 185.692 392.449 184.806 390.31C183.919 388.17 183.687 385.816 184.139 383.545C184.591 381.274 185.707 379.188 187.345 377.551C188.983 375.913 191.07 374.798 193.343 374.347C195.615 373.895 197.97 374.127 200.111 375.013C202.251 375.899 204.08 377.4 205.368 379.325C206.655 381.25 207.342 383.514 207.342 385.829C207.343 387.367 207.041 388.89 206.453 390.311C205.864 391.732 205.002 393.023 203.914 394.111C202.826 395.198 201.534 396.06 200.112 396.648C198.69 397.236 197.167 397.538 195.628 397.537Z" fill="#263238"/>
<path d="M187.071 387.824C185.948 383.09 188.879 378.342 193.616 377.22C198.353 376.098 203.103 379.027 204.225 383.762C205.348 388.496 202.418 393.244 197.68 394.366C192.943 395.488 188.193 392.559 187.071 387.824Z" fill="#263238"/>
<path d="M170.295 308.111L173.125 310.015L127.097 378.373L124.266 376.469L170.295 308.111Z" fill="#FF6600" stroke="#263238" stroke-linecap="round" stroke-linejoin="round"/>
<path d="M265.797 325.636L256.39 300.487L252.131 302.083L252.703 303.63L173.004 306.715L165.885 284.611L161.556 286L192.596 382.36L196.855 381.03L195.692 382.262L199.015 385.346L259.417 321.546L261.547 327.233L265.797 325.636ZM196.914 380.931L174.453 311.209L254.379 308.104L257.633 316.787L196.914 380.931Z" fill="#FF6600" stroke="#263238" stroke-linecap="round" stroke-linejoin="round"/>
<path d="M125.61 376.579L195.852 383.561L195.402 388.082L125.16 381.099L125.61 376.579Z" fill="#FF6600"/>
<path d="M152.779 279.407L155.895 282.708L168.21 283.398L174.797 277.682" fill="#757575"/>
<path d="M152.779 279.407L155.895 282.708L168.21 283.398L174.797 277.682" stroke="#263238" stroke-linecap="round" stroke-linejoin="round"/>
<path d="M158.5 283.398L159.022 286H161.556L165.885 284.61L166.477 283.398H158.5Z" fill="#757575" stroke="#263238" stroke-linecap="round" stroke-linejoin="round"/>
<path d="M144.443 274.214C144.563 275.222 144.795 276.213 145.133 277.17C145.488 277.692 152.942 281.329 160.229 280.462C167.515 279.594 171.499 278.905 176.005 278.905C180.511 278.905 183.459 281.329 183.804 279.594C184.149 277.86 178.953 275.091 176.35 274.913C173.747 274.736 164.38 275.958 159.696 275.958C155.013 275.958 143.792 271.267 144.443 274.214Z" fill="#263238" stroke="#263238" stroke-linecap="round" stroke-linejoin="round"/>
<path d="M288.169 373.323L274.937 355.003L265.806 325.636L256.4 300.487L252.14 302.083L252.712 303.63L173.013 306.715L171.278 301.324L166.959 302.743L192.595 382.36L196.855 381.03L195.691 382.262L199.014 385.346L259.417 321.546L261.547 327.233C261.547 327.233 270.924 354.639 271.831 356.097C272.639 357.388 282.608 371.5 285.004 374.881C284.439 375.603 284.137 376.495 284.145 377.412C284.154 378.328 284.473 379.215 285.051 379.927C285.629 380.638 286.432 381.133 287.328 381.33C288.223 381.526 289.159 381.414 289.983 381.01C290.806 380.606 291.468 379.935 291.86 379.107C292.253 378.278 292.352 377.341 292.143 376.449C291.933 375.556 291.427 374.761 290.707 374.194C289.987 373.626 289.096 373.319 288.179 373.323H288.169ZM196.914 380.931L174.453 311.209L254.378 308.104L257.632 316.786L196.914 380.931Z" fill="#FF6600" stroke="#263238" stroke-linecap="round" stroke-linejoin="round"/>
<path d="M252.131 302.083L245.406 284.669L249.932 282.787L256.391 300.486L252.131 302.083Z" fill="white" stroke="#263238" stroke-linecap="round" stroke-linejoin="round"/>
<path d="M249.931 282.787L260.688 278.895C261.062 278.725 261.467 278.634 261.877 278.627C262.287 278.619 262.695 278.696 263.075 278.852C263.454 279.008 263.798 279.24 264.084 279.534C264.371 279.828 264.594 280.177 264.741 280.56C265.014 281.28 265.002 282.076 264.707 282.787C264.412 283.498 263.856 284.069 263.153 284.384L252.218 288.326L249.931 282.787Z" fill="white" stroke="#263238" stroke-linecap="round" stroke-linejoin="round"/>
<path d="M254.013 302.605C253.456 302.598 252.922 302.387 252.511 302.012C252.099 301.637 251.839 301.125 251.78 300.572C251.72 300.019 251.866 299.464 252.188 299.01C252.51 298.557 252.988 298.237 253.53 298.112L277.618 292.839C278.731 292.516 279.694 291.811 280.338 290.849C280.983 289.887 281.268 288.729 281.143 287.577C281.018 286.426 280.492 285.355 279.656 284.553C278.82 283.751 277.729 283.269 276.573 283.191H262C261.689 283.212 261.377 283.168 261.083 283.063C260.79 282.959 260.521 282.795 260.293 282.582C260.066 282.369 259.884 282.111 259.76 281.826C259.636 281.54 259.572 281.231 259.572 280.92C259.572 280.608 259.636 280.3 259.76 280.014C259.884 279.728 260.066 279.471 260.293 279.258C260.521 279.045 260.79 278.881 261.083 278.776C261.377 278.671 261.689 278.628 262 278.648H276.573C278.879 278.677 281.094 279.549 282.801 281.099C284.507 282.649 285.587 284.77 285.836 287.061C286.084 289.352 285.485 291.655 284.151 293.535C282.817 295.415 280.84 296.741 278.594 297.264L254.506 302.536C254.345 302.578 254.179 302.602 254.013 302.605Z" fill="#263238"/>
<path d="M270.926 279.348C270.926 279.348 278.065 278.362 281.112 275.357C284.158 272.351 283.942 270.006 284.365 270.212C284.789 270.419 289.404 277.111 289.512 279.033C289.621 280.954 289.197 284.068 289.611 286.798C290.025 289.528 291.396 290.996 292.135 291.203C292.875 291.41 293.18 292.888 292.549 292.888C291.918 292.888 289.828 292.888 288.605 287.744C287.383 282.6 289.591 280.294 287.55 279.456C285.509 278.619 282.413 281.654 282.305 281.969C282.196 282.285 275.018 279.141 270.926 279.348Z" fill="#263238" stroke="#263238" stroke-linecap="round" stroke-linejoin="round"/>
<path d="M135.555 377.393C135.555 375.444 134.976 373.539 133.893 371.918C132.809 370.298 131.27 369.035 129.468 368.289C127.666 367.543 125.684 367.348 123.771 367.728C121.858 368.108 120.101 369.047 118.722 370.425C117.344 371.803 116.404 373.559 116.024 375.471C115.644 377.382 115.839 379.364 116.585 381.165C117.331 382.965 118.595 384.504 120.217 385.587C121.838 386.67 123.744 387.248 125.695 387.248C128.31 387.248 130.818 386.21 132.667 384.362C134.516 382.514 135.555 380.007 135.555 377.393Z" fill="white" stroke="#263238" stroke-linecap="round" stroke-linejoin="round"/>
<path d="M116.409 379.877L114.772 382.971L126.95 393.141L128.764 392.412C129.391 393.902 129.641 395.523 129.494 397.132C129.316 400.089 126.772 411.304 126.772 411.304L131.86 410.397C132.164 409.458 132.225 408.458 132.037 407.49C131.733 406.665 131.155 405.97 130.401 405.519L134.039 394.442L130.401 386.627C130.401 386.627 126.95 383.72 124.406 383.001C121.862 382.281 116.409 379.877 116.409 379.877Z" fill="#263238" stroke="#263238" stroke-linecap="round" stroke-linejoin="round"/>
<path d="M192.353 388.243L184.938 362.02L187.57 361.212L198.505 386.016C198.712 386.593 198.681 387.227 198.421 387.781C198.16 388.335 197.691 388.764 197.115 388.973L195.33 389.613C194.754 389.824 194.117 389.798 193.559 389.541C193.001 389.285 192.568 388.818 192.353 388.243Z" fill="#263238" stroke="#263238" stroke-linecap="round" stroke-linejoin="round"/>
<path d="M293.234 427.653H301.458V338.339C301.372 332.728 302.404 327.156 304.493 321.948C306.582 316.739 309.687 311.998 313.626 308C317.566 304.002 322.262 300.827 327.44 298.66C332.619 296.492 338.178 295.376 343.792 295.376C349.406 295.376 354.965 296.492 360.144 298.66C365.322 300.827 370.018 304.002 373.958 308C377.897 311.998 381.002 316.739 383.091 321.948C385.18 327.156 386.212 332.728 386.126 338.339V427.653H394.359V338.339C394.359 324.936 389.032 312.082 379.55 302.605C370.068 293.127 357.207 287.803 343.797 287.803C330.387 287.803 317.526 293.127 308.044 302.605C298.562 312.082 293.234 324.936 293.234 338.339V427.653Z" fill="#00B832" stroke="#263238" stroke-linecap="round" stroke-linejoin="round"/>
<path d="M327.33 427.653H335.563V338.339C335.478 332.728 336.509 327.156 338.598 321.948C340.687 316.739 343.792 311.998 347.732 308C351.671 304.002 356.367 300.827 361.546 298.66C366.725 296.493 372.283 295.377 377.898 295.377C383.512 295.377 389.07 296.493 394.249 298.66C399.428 300.827 404.124 304.002 408.063 308C412.003 311.998 415.108 316.739 417.197 321.948C419.286 327.156 420.317 332.728 420.232 338.339V427.653H428.455V338.339C428.455 331.703 427.147 325.131 424.606 319C422.065 312.869 418.341 307.298 413.646 302.605C408.951 297.912 403.377 294.19 397.242 291.65C391.108 289.111 384.533 287.804 377.893 287.804C371.253 287.804 364.678 289.111 358.543 291.65C352.409 294.19 346.835 297.912 342.14 302.605C337.444 307.298 333.72 312.869 331.179 319C328.638 325.131 327.33 331.703 327.33 338.339V427.653Z" fill="#00B832" stroke="#263238" stroke-linecap="round" stroke-linejoin="round"/>
<path d="M258.755 423.465H335.693V427.653H258.755V423.465Z" fill="white" stroke="#263238" stroke-linecap="round" stroke-linejoin="round"/>
<path d="M351.685 423.465H428.623V427.653H351.685V423.465Z" fill="white" stroke="#263238" stroke-linecap="round" stroke-linejoin="round"/>
<path d="M478.248 113.987V110.35C478.192 105.591 477.395 100.87 475.886 96.3565C472.073 84.5341 464.032 73.2501 454.732 67.8815C448.813 64.4682 443.409 64.0456 439.272 66.092L447.412 61.4276C449.418 60.1059 451.774 59.4162 454.176 59.4476C454.558 59.4476 454.931 59.4476 455.329 59.4973C455.726 59.547 456.108 59.5718 456.514 59.6381C456.919 59.6886 457.32 59.7633 457.716 59.8618C458.122 59.9529 458.545 60.0689 458.951 60.1932C459.824 60.4534 460.68 60.7688 461.512 61.1377C461.943 61.3282 462.341 61.5436 462.822 61.7507L464.148 62.4715C477.121 69.9279 487.648 88.983 487.648 104.948V108.593C487.648 124.558 466.163 141.915 466.163 141.915L457.459 146.761C457.615 146.664 457.762 146.553 457.898 146.43C464.306 140.548 478.248 126.273 478.248 113.987ZM452.552 80.4082C452.475 80.8132 452.425 81.2228 452.402 81.6344C452.394 81.7751 452.394 81.9162 452.402 82.0569C452.39 82.3025 452.39 82.5486 452.402 82.7942C452.402 90.2506 457.658 99.3639 464.165 103.134C464.405 103.266 464.629 103.39 464.87 103.506C465.11 103.622 465.334 103.738 465.558 103.838L466.246 104.111H466.304C465.292 109.844 460.501 111.841 454.748 108.535C448.258 104.782 443.002 95.6772 443.002 88.1794C442.986 81.5681 447.122 78.4198 452.593 80.4082H452.552Z" fill="#FF6600"/>
<path opacity="0.2" d="M452.594 80.4082C452.517 80.8132 452.467 81.2228 452.445 81.6343C452.436 81.775 452.436 81.9162 452.445 82.0569C452.432 82.3025 452.432 82.5486 452.445 82.7942C452.445 90.2506 457.7 99.3639 464.207 103.133C464.447 103.266 464.671 103.39 464.912 103.506C465.152 103.622 465.376 103.738 465.6 103.838L466.288 104.111H466.346C465.334 109.844 460.543 111.841 454.79 108.535C448.3 104.782 443.045 95.6771 443.045 88.1794C442.987 81.5681 447.123 78.4198 452.594 80.4082Z" fill="black"/>
<path d="M431.224 83.2168C431.224 67.2519 441.751 60.3755 454.732 67.865C467.713 75.3545 478.232 94.3764 478.232 110.341V113.978C478.232 126.281 464.298 140.548 457.891 146.463C457.528 146.794 457.094 147.036 456.621 147.17C456.149 147.304 455.652 147.326 455.17 147.236C454.688 147.145 454.233 146.943 453.842 146.647C453.451 146.35 453.134 145.967 452.917 145.527C447.38 134.202 431.249 100.085 431.249 86.8538L431.224 83.2168ZM454.741 108.552C461.231 112.297 466.495 109.264 466.495 101.775C466.495 94.2853 461.231 85.2051 454.741 81.4272C448.25 77.6494 442.986 80.723 442.986 88.2125C442.986 95.702 448.25 104.807 454.741 108.552Z" fill="#FF6600"/>
<path opacity="0.2" d="M431.224 83.2168C431.224 67.2519 441.751 60.3755 454.732 67.865C467.713 75.3545 478.232 94.3764 478.232 110.341V113.978C478.232 126.281 464.298 140.548 457.891 146.463C457.528 146.794 457.094 147.036 456.621 147.17C456.149 147.304 455.652 147.326 455.17 147.236C454.688 147.145 454.233 146.943 453.842 146.647C453.451 146.35 453.134 145.967 452.917 145.527C447.38 134.202 431.249 100.085 431.249 86.8538L431.224 83.2168ZM454.741 108.552C461.231 112.297 466.495 109.264 466.495 101.775C466.495 94.2853 461.231 85.2051 454.741 81.4272C448.25 77.6494 442.986 80.723 442.986 88.2125C442.986 95.702 448.25 104.807 454.741 108.552Z" fill="white"/>
<path d="M439.271 66.0754L447.412 61.4276C449.417 60.1059 451.773 59.4162 454.176 59.4476C454.557 59.4476 454.93 59.4476 455.328 59.4973C455.722 59.5243 456.115 59.5713 456.505 59.6381C456.912 59.6878 457.317 59.7625 457.715 59.8618C458.121 59.9529 458.544 60.0689 458.95 60.1932C459.823 60.4534 460.679 60.7688 461.512 61.1377C461.943 61.3282 462.341 61.5436 462.821 61.7507L464.148 62.4715C472.926 67.5418 480.569 77.8813 484.605 88.983L475.205 94.4013C471.169 83.3079 463.509 72.9684 454.731 67.8898C448.812 64.4516 443.408 64.0291 439.271 66.0754Z" fill="#FF6600"/>
<path opacity="0.5" d="M439.271 66.0754L447.412 61.4276C449.417 60.1059 451.773 59.4162 454.176 59.4476C454.557 59.4476 454.93 59.4476 455.328 59.4973C455.722 59.5243 456.115 59.5713 456.505 59.6381C456.912 59.6878 457.317 59.7625 457.715 59.8618C458.121 59.9529 458.544 60.0689 458.95 60.1932C459.823 60.4534 460.679 60.7688 461.512 61.1377C461.943 61.3282 462.341 61.5436 462.821 61.7507L464.148 62.4715C472.926 67.5418 480.569 77.8813 484.605 88.983L475.205 94.4013C471.169 83.3079 463.509 72.9684 454.731 67.8898C448.812 64.4516 443.408 64.0291 439.271 66.0754Z" fill="white"/>
<path d="M454.722 67.865L456.09 68.826C456.563 69.1273 457.02 69.4536 457.458 69.8036C458.287 70.5244 459.24 71.1706 460.036 71.9742C460.831 72.7779 461.694 73.4821 462.44 74.3189L463.625 75.5119L464.703 76.8043C470.411 83.7547 474.52 91.8752 476.739 100.59C477.037 101.667 477.203 102.777 477.443 103.904C477.684 105.031 477.75 106.124 477.916 107.218C478.081 108.312 478.073 109.455 478.131 110.582L478.231 113.962L478.33 110.582C478.33 109.455 478.33 108.32 478.33 107.193C478.33 106.066 478.131 104.931 477.965 103.813C477.8 102.694 477.617 101.576 477.352 100.499C475.333 91.6142 471.156 83.3628 465.192 76.4729C462.238 73.0078 458.694 70.0934 454.722 67.865Z" fill="#FAFAFA"/>
</svg>
