<svg width="113" height="36" viewBox="0 0 113 36" fill="none" xmlns="http://www.w3.org/2000/svg">
<g clip-path="url(#clip0_842_1514)">
<path d="M4.99277 0H108.007C110.769 0 113 2.17334 113 4.86312V31.1369C113 33.8267 110.769 36 108.007 36H4.99277C2.23128 36 0 33.8267 0 31.1369V4.86312C0 2.17334 2.23128 0 4.99277 0Z" fill="white"/>
<mask id="mask0_842_1514" style="mask-type:luminance" maskUnits="userSpaceOnUse" x="8" y="7" width="22" height="24">
<path d="M24.4776 15.7513L19.3743 12.8894C19.3743 12.8894 10.0957 7.66049 9.54344 7.35924C8.99114 7.05798 8.46094 7.23013 8.46094 7.87567V30.3837C8.46094 30.8571 8.85859 31.0723 9.32252 30.8141C9.78645 30.5559 19.3743 25.1548 19.3743 25.1548L24.4776 22.2929C24.4776 22.2929 28.8076 19.8613 29.382 19.5386C29.9563 19.2158 29.9122 18.7639 29.4261 18.5272C28.9401 18.269 24.4996 15.7513 24.4996 15.7513H24.4776Z" fill="white"/>
</mask>
<g mask="url(#mask0_842_1514)">
<path d="M8.48438 6.84277V19.0221V31.2229L21.0988 19.0221L8.48438 6.84277Z" fill="url(#paint0_linear_842_1514)"/>
<path d="M24.4789 15.7513L19.3978 12.8894L8.48438 6.75671V6.84279L21.0988 19.0221L24.4789 15.7513Z" fill="url(#paint1_linear_842_1514)"/>
<path d="M8.48438 31.2229V31.309L19.3978 25.1763L24.4789 22.2929L21.0988 19.0221L8.48438 31.2229Z" fill="url(#paint2_linear_842_1514)"/>
<path d="M24.4816 15.7513L21.1016 19.0221L24.4816 22.2929L30.3139 19.0221L24.4816 15.7513Z" fill="url(#paint3_linear_842_1514)"/>
</g>
<path d="M87.949 23.7991C87.4851 23.7991 87.0433 23.7131 86.6456 23.5409C86.248 23.3688 85.9166 23.1106 85.6515 22.7447H85.5631C85.6073 23.1536 85.6515 23.5409 85.6515 23.9283V26.8547H84.5469V16.5905H85.4526L85.6073 17.5589H85.6515C85.9387 17.1715 86.27 16.8918 86.6456 16.7196C87.0212 16.5475 87.463 16.4614 87.949 16.4614C88.9211 16.4614 89.6501 16.7842 90.1803 17.4297C90.7105 18.0753 90.9756 18.9791 90.9756 20.141C90.9756 21.303 90.7105 22.2068 90.1803 22.8523C89.6501 23.4979 88.899 23.8207 87.949 23.8207V23.7991ZM87.7723 17.3652C87.0212 17.3652 86.491 17.5589 86.1596 17.9677C85.8282 18.3765 85.6515 19.0006 85.6515 19.8828V20.1195C85.6515 21.1094 85.8282 21.8195 86.1596 22.2498C86.491 22.6802 87.0433 22.8954 87.7944 22.8954C88.5455 22.8954 88.9211 22.6372 89.2745 22.1422C89.628 21.6473 89.8047 20.9587 89.8047 20.098C89.8047 19.2373 89.628 18.5272 89.2745 18.0538C88.9211 17.5804 88.4129 17.3437 87.7723 17.3437V17.3652Z" fill="#171717"/>
<path d="M93.5148 23.67H92.4102V13.5995H93.5148V23.67Z" fill="#171717"/>
<path d="M99.8547 23.67L99.6338 22.6587H99.5896C99.2361 23.1106 98.8606 23.4118 98.5071 23.5624C98.1536 23.7131 97.6897 23.7991 97.1595 23.7991C96.6293 23.7991 95.8782 23.627 95.4584 23.2612C95.0387 22.8954 94.8398 22.3789 94.8398 21.7119C94.8398 20.2702 96.0107 19.5385 98.3745 19.4525L99.6117 19.4094V18.9791C99.6117 18.4196 99.4791 18.0107 99.2361 17.7525C98.9931 17.4943 98.5955 17.3652 98.0653 17.3652C97.5351 17.3652 96.7618 17.5373 96.0107 17.9031L95.6793 17.0855C96.0328 16.8918 96.4305 16.7412 96.8502 16.6336C97.27 16.526 97.7118 16.4614 98.1315 16.4614C98.9931 16.4614 99.6338 16.6551 100.054 17.0209C100.473 17.3867 100.672 17.9892 100.672 18.8284V23.67H99.8547ZM97.3583 22.9169C98.0432 22.9169 98.5734 22.7232 98.971 22.3574C99.3687 21.9916 99.5675 21.4752 99.5675 20.8081V20.1626L98.4629 20.2056C97.5792 20.2271 96.9607 20.3777 96.563 20.6144C96.1654 20.8511 95.9886 21.217 95.9886 21.7119C95.9886 22.2068 96.0991 22.4005 96.3421 22.5941C96.5851 22.7878 96.9165 22.8954 97.3583 22.8954V22.9169Z" fill="#171717"/>
<path d="M101.314 16.569H102.485L104.075 20.6145C104.429 21.5397 104.65 22.2068 104.716 22.6157H104.76C104.826 22.4005 104.937 22.0131 105.114 21.4967C105.29 20.9588 105.909 19.3234 106.925 16.5905H108.118L104.981 24.6599C104.672 25.4561 104.318 26.0155 103.898 26.3598C103.479 26.7041 102.971 26.8547 102.374 26.8547C101.778 26.8547 101.711 26.8117 101.38 26.7472V25.8864C101.623 25.9295 101.888 25.9725 102.197 25.9725C102.949 25.9725 103.501 25.5637 103.81 24.7244L104.208 23.7131L101.27 16.5905L101.314 16.569Z" fill="#171717"/>
<path d="M67.511 17.2361C67.8645 17.5158 68.5935 18.1183 68.5935 19.2373C68.5935 20.3562 67.9528 20.8511 67.3122 21.3461C67.1133 21.5397 66.8924 21.7549 66.8924 22.0777C66.8924 22.4005 67.1133 22.5726 67.2901 22.7232L67.8424 23.1321C68.5051 23.6915 69.1237 24.1865 69.1237 25.2193C69.1237 26.2522 67.7319 28.0167 65.1251 28.0167C62.5182 28.0167 61.8555 26.9838 61.8555 25.8864C61.8555 24.789 62.1206 24.5953 63.0263 24.0789C63.9763 23.5194 65.2576 23.4333 65.9425 23.3903C65.7215 23.1321 65.4785 22.8523 65.4785 22.3789C65.4785 21.9055 65.5448 21.9701 65.6332 21.7979C65.4564 21.7979 65.3018 21.8195 65.1472 21.8195C63.5345 21.8195 62.6287 20.6575 62.6287 19.4955C62.6287 18.3335 62.938 18.0538 63.6007 17.5158C64.4623 16.8272 65.5006 16.6981 66.318 16.6981H69.4551L68.483 17.2361H67.5331H67.511ZM66.4285 23.8207C66.2959 23.8207 66.2297 23.8207 66.075 23.8207C65.9204 23.8207 65.1251 23.8422 64.4844 24.0574C64.153 24.1649 63.181 24.5308 63.181 25.5851C63.181 26.6395 64.2414 27.3927 65.8541 27.3927C67.4668 27.3927 68.0854 26.7041 68.0854 25.8003C68.0854 24.8966 67.5773 24.6383 66.4285 23.8422V23.8207ZM66.8703 21.0018C67.2238 20.6575 67.2459 20.1841 67.2459 19.9259C67.2459 18.8499 66.5831 17.193 65.3239 17.193C64.0647 17.193 64.5065 17.3867 64.2635 17.688C63.9984 17.9892 63.9321 18.3981 63.9321 18.7854C63.9321 19.7752 64.5286 21.4321 65.832 21.4321C67.1354 21.4321 66.6273 21.26 66.8703 21.0233V21.0018Z" fill="#171717"/>
<path d="M57.9224 23.584C55.5144 23.584 54.2109 21.7549 54.2109 20.098C54.2109 18.4411 55.8457 16.5045 58.1433 16.5045C60.4409 16.5045 61.7664 18.2044 61.7664 19.9904C61.7664 21.7764 60.3746 23.584 57.9003 23.584H57.9224ZM59.8223 22.3789C60.1978 21.9055 60.2862 21.303 60.2862 20.7435C60.2862 19.4309 59.6455 16.9563 57.7677 16.9563C55.8899 16.9563 56.7736 17.15 56.398 17.4513C55.8016 17.9677 55.6911 18.6132 55.6911 19.2588C55.6911 20.722 56.4422 23.1321 58.2758 23.1321C60.1095 23.1321 59.4688 22.8523 59.8223 22.3789Z" fill="#171717"/>
<path d="M49.6841 23.584C47.2761 23.584 45.9727 21.7549 45.9727 20.098C45.9727 18.4411 47.6075 16.5045 49.905 16.5045C52.2026 16.5045 53.5281 18.2044 53.5281 19.9904C53.5281 21.7764 52.1363 23.584 49.662 23.584H49.6841ZM51.584 22.3789C51.9596 21.9055 52.0479 21.303 52.0479 20.7435C52.0479 19.4309 51.4073 16.9563 49.5294 16.9563C47.6516 16.9563 48.5353 17.15 48.1598 17.4513C47.5633 17.9677 47.4528 18.6132 47.4528 19.2588C47.4528 20.722 48.2039 23.1321 50.0376 23.1321C51.8712 23.1321 51.2305 22.8523 51.584 22.3789Z" fill="#171717"/>
<path d="M44.8269 23.3473L42.6398 23.8422C41.7561 23.9713 40.9608 24.1004 40.1213 24.1004C35.9018 24.1004 34.2891 21.0879 34.2891 18.7209C34.2891 16.3539 36.5645 13.1476 40.4527 13.1476C44.3409 13.1476 42.0654 13.2768 42.7944 13.4704C43.9432 13.7932 44.4734 14.159 44.8048 14.3957L43.5456 15.5792L43.0154 15.7083L43.3909 15.1058C42.8607 14.6109 41.9329 13.7071 40.1213 13.7071C38.3098 13.7071 35.8797 15.4931 35.8797 18.0968C35.8797 20.7005 37.9563 23.5194 41.2922 23.5194C44.6281 23.5194 42.7723 23.3258 43.2363 23.1536V20.7651L40.9387 20.8942L42.1538 20.2487H45.4013L45.0036 20.6145C44.8932 20.7005 44.8711 20.7436 44.849 20.8512C44.849 20.9803 44.8269 21.4106 44.8269 21.5613V23.3688V23.3473Z" fill="#171717"/>
<path d="M72.3516 22.9169C71.8435 22.8739 71.7331 22.7878 71.7331 22.2068V13.7717C71.7331 13.7501 71.7331 13.7071 71.7331 13.6856C71.7993 13.1692 71.954 13.0831 72.4179 12.8033H70.2308L69.082 13.3413H70.2529V22.5296C70.2529 22.8308 70.1866 22.8739 69.8332 23.3258H72.5284L73.1028 23.003C72.8376 22.9815 72.5725 22.9599 72.3295 22.9384L72.3516 22.9169Z" fill="#171717"/>
<path d="M78.5607 23.046C78.384 23.1321 78.2293 23.2397 78.0526 23.3042C77.5445 23.5194 77.0363 23.584 76.5724 23.584C76.1085 23.584 75.3353 23.5624 74.5621 23.003C73.4796 22.2713 73.0156 21.0018 73.0156 19.8828C73.0156 17.6019 74.9376 16.4614 76.4841 16.4614C78.0305 16.4614 77.5886 16.5905 78.0526 16.8703C78.8037 17.3652 79.0025 17.9892 79.113 18.3335L75.5562 19.7322L74.3853 19.8183C74.7609 21.6904 76.0643 22.7878 77.5224 22.7878C78.9804 22.7878 78.8479 22.5296 79.3781 22.2713L78.5828 23.003L78.5607 23.046ZM77.1468 18.6563C77.434 18.5487 77.5886 18.4626 77.5886 18.2474C77.5886 17.6664 76.9038 16.9779 76.0864 16.9779C75.269 16.9779 74.3411 17.4297 74.3411 19.0221C74.3411 20.6144 74.3632 19.5385 74.3853 19.7968L77.1468 18.6348V18.6563Z" fill="#171717"/>
<path d="M80.0381 16.5906V17.5589H79.9056V16.5906H79.5742V16.483H80.3474V16.5906H80.0161H80.0381Z" fill="#171717"/>
<path d="M81.3877 17.5589V16.569L81.0784 17.5589H80.9901L80.6808 16.569V17.5589H80.5703V16.483H80.7691L81.0563 17.3437L81.3435 16.483H81.5424V17.5589H81.4319H81.3877Z" fill="#171717"/>
<path d="M37.3326 10.2427H36.5815C36.5815 10.1351 36.5152 9.85533 36.3606 9.38193H35.256C35.1013 9.85533 35.0351 10.1351 35.0351 10.2427H34.3281C34.3281 10.1781 34.5049 9.68318 34.8804 8.7579C35.256 7.83261 35.4327 7.31618 35.4327 7.2301H36.3385C36.3385 7.31618 36.5152 7.81109 36.8466 8.73638C37.178 9.66166 37.3547 10.1566 37.3547 10.2427H37.3326ZM36.228 8.93004C35.9629 8.13387 35.8304 7.7035 35.8304 7.63895H35.7862C35.7862 7.7035 35.6536 8.13387 35.3664 8.93004H36.228Z" fill="#171717"/>
<path d="M40.3843 10.2427H39.7878C39.7878 10.1781 39.5669 9.85536 39.1251 9.23133C38.6612 8.58579 38.4181 8.15542 38.3519 7.91872H38.3077C38.3519 8.26301 38.374 8.56427 38.374 8.844C38.374 9.12374 38.374 9.68321 38.4181 10.2427H37.8438C37.8658 9.76929 37.8879 9.23133 37.8879 8.67186C37.8879 8.11238 37.8879 7.63898 37.8438 7.23014H38.5507C38.5507 7.31621 38.7495 7.63898 39.1472 8.19846C39.5669 8.80097 39.8099 9.20981 39.8541 9.425H39.8983C39.8541 9.0807 39.832 8.77945 39.832 8.49971C39.832 8.09087 39.832 7.6605 39.7878 7.20862H40.3843C40.3622 7.59595 40.3401 8.06935 40.3401 8.65034C40.3401 9.23133 40.3401 9.74777 40.3843 10.2212V10.2427Z" fill="#171717"/>
<path d="M43.8321 8.62879C43.8321 9.05915 43.6774 9.44648 43.3902 9.76925C43.103 10.092 42.7054 10.2642 42.1752 10.2642C41.645 10.2642 41.6229 10.2642 41.2031 10.2427C41.2031 9.76925 41.2252 9.25282 41.2252 8.67182C41.2252 8.09083 41.2252 7.63895 41.2031 7.2301H41.6229C41.6891 7.2301 41.7996 7.2301 41.9322 7.2301C42.0647 7.2301 42.1531 7.2301 42.1973 7.2301C42.7716 7.2301 43.1914 7.35921 43.4344 7.63895C43.6995 7.91869 43.81 8.24146 43.81 8.62879H43.8321ZM43.1693 8.73638C43.1693 8.43512 43.0809 8.19842 42.9042 7.98324C42.7275 7.78958 42.4624 7.68199 42.0868 7.68199C41.7112 7.68199 41.9322 7.68199 41.7996 7.68199C41.7996 7.98324 41.8217 8.30601 41.8217 8.65031C41.8217 8.9946 41.8217 9.38193 41.8438 9.74774C41.9542 9.74774 42.0426 9.76925 42.1531 9.76925C42.4845 9.76925 42.7496 9.66166 42.9042 9.468C43.0588 9.25282 43.1472 9.01612 43.1472 8.71486L43.1693 8.73638Z" fill="#171717"/>
<path d="M46.9872 10.2427H46.2803C46.1035 9.7047 45.9489 9.36041 45.8605 9.2313C45.7722 9.10219 45.5954 9.03763 45.3966 9.03763C45.1978 9.03763 45.2199 9.03763 45.1315 9.03763C45.1315 9.42496 45.1315 9.83381 45.1315 10.2427H44.4688C44.4688 9.76925 44.4908 9.25282 44.4908 8.67182C44.4908 8.09083 44.4908 7.63895 44.4688 7.2301H44.8885C44.9327 7.2301 45.0431 7.2301 45.1757 7.2301C45.3303 7.2301 45.4629 7.2301 45.5954 7.2301C46.3245 7.2301 46.6779 7.4668 46.6779 7.96172C46.6779 8.45664 46.4791 8.60727 46.0594 8.7579V8.80093C46.214 8.84397 46.3687 8.97308 46.4791 9.16674C46.5896 9.36041 46.7663 9.72622 46.9651 10.2642L46.9872 10.2427ZM46.1035 8.11235C46.1035 7.8111 45.9047 7.66047 45.5071 7.66047C45.1094 7.66047 45.2199 7.66047 45.1094 7.7035C45.1094 7.9402 45.1315 8.26298 45.1315 8.62879C45.2199 8.62879 45.2861 8.62879 45.3524 8.62879C45.8605 8.62879 46.1035 8.45664 46.1035 8.11235Z" fill="#171717"/>
<path d="M50.3912 8.67184C50.3912 9.14524 50.2366 9.53257 49.9494 9.85534C49.6622 10.1566 49.2866 10.3287 48.8448 10.3287C48.4029 10.3287 48.0716 10.1781 47.8065 9.89838C47.5193 9.61864 47.3867 9.25283 47.3867 8.80095C47.3867 8.34906 47.5414 7.94022 47.8286 7.61744C48.1158 7.31619 48.4913 7.14404 48.9332 7.14404C49.375 7.14404 49.7064 7.29467 49.9715 7.57441C50.2587 7.85414 50.3912 8.21995 50.3912 8.67184ZM49.7505 8.73639C49.7505 8.41362 49.6622 8.1554 49.5075 7.96174C49.3308 7.76807 49.132 7.66048 48.889 7.66048C48.646 7.66048 48.4692 7.76807 48.2925 7.96174C48.1378 8.1554 48.0495 8.41362 48.0495 8.73639C48.0495 9.05917 48.1378 9.31738 48.3146 9.51105C48.4913 9.70471 48.6901 9.8123 48.9332 9.8123C49.1762 9.8123 49.3529 9.70471 49.5296 9.51105C49.6843 9.31738 49.7726 9.05917 49.7726 8.73639H49.7505Z" fill="#171717"/>
<path d="M51.7409 10.2427H51.0781C51.0781 9.76925 51.1002 9.2313 51.1002 8.67182C51.1002 8.11235 51.1002 7.63895 51.0781 7.2301H51.7409C51.7409 7.61743 51.7188 8.09083 51.7188 8.67182C51.7188 9.25282 51.7188 9.76925 51.7409 10.2427Z" fill="#171717"/>
<path d="M55.1836 8.62879C55.1836 9.05915 55.029 9.44648 54.7418 9.76925C54.4546 10.092 54.0569 10.2642 53.5267 10.2642C52.9965 10.2642 52.9744 10.2642 52.5547 10.2427C52.5547 9.76925 52.5768 9.25282 52.5768 8.67182C52.5768 8.09083 52.5768 7.63895 52.5547 7.2301H52.9744C53.0407 7.2301 53.1512 7.2301 53.2837 7.2301C53.4163 7.2301 53.5046 7.2301 53.5488 7.2301C54.1232 7.2301 54.543 7.35921 54.786 7.63895C55.0511 7.91869 55.1615 8.24146 55.1615 8.62879H55.1836ZM54.5209 8.73638C54.5209 8.43512 54.4325 8.19842 54.2558 7.98324C54.079 7.78958 53.8139 7.68199 53.4384 7.68199C53.0628 7.68199 53.2837 7.68199 53.1512 7.68199C53.1512 7.98324 53.1733 8.30601 53.1733 8.65031C53.1733 8.9946 53.1733 9.38193 53.1954 9.74774C53.3058 9.74774 53.3942 9.76925 53.5046 9.76925C53.836 9.76925 54.1011 9.66166 54.2558 9.468C54.4104 9.25282 54.4988 9.01612 54.4988 8.71486L54.5209 8.73638Z" fill="#171717"/>
<path d="M59.7389 10.2427H58.9878C58.9878 10.1351 58.9215 9.85533 58.7668 9.38193H57.6622C57.5076 9.85533 57.4413 10.1351 57.4413 10.2427H56.7344C56.7344 10.1781 56.9111 9.68318 57.2867 8.7579C57.6622 7.83261 57.839 7.31618 57.839 7.2301H58.7447C58.7447 7.31618 58.9215 7.81109 59.2529 8.73638C59.5842 9.66166 59.761 10.1566 59.761 10.2427H59.7389ZM58.6564 8.93004C58.3913 8.13387 58.2587 7.7035 58.2587 7.63895H58.2145C58.2145 7.7035 58.082 8.13387 57.7948 8.93004H58.6564Z" fill="#171717"/>
<path d="M62.519 8.02628C62.519 8.39209 62.3865 8.67182 62.0993 8.84397C61.8121 9.01612 61.4807 9.10219 61.0609 9.10219C60.6412 9.10219 60.9284 9.10219 60.9063 9.10219C60.9063 9.38193 60.9063 9.76925 60.9284 10.2427H60.2656C60.2656 9.79077 60.2877 9.27433 60.2877 8.67182C60.2877 8.06931 60.2877 7.63895 60.2656 7.2301H60.6854C60.7517 7.2301 60.8621 7.2301 61.0168 7.2301C61.1935 7.2301 61.326 7.2301 61.4586 7.2301C61.7679 7.2301 62.0109 7.29466 62.2097 7.42377C62.4085 7.55288 62.519 7.76806 62.519 8.02628ZM61.9004 8.13387C61.9004 7.81109 61.6795 7.63895 61.2156 7.63895C60.7517 7.63895 60.9947 7.63895 60.8621 7.68199C60.8621 7.98324 60.8842 8.30601 60.8842 8.67182C60.9284 8.67182 60.9726 8.67182 61.0168 8.67182C61.5911 8.67182 61.8783 8.49968 61.8783 8.13387H61.9004Z" fill="#171717"/>
<path d="M65.3471 8.02628C65.3471 8.39209 65.2146 8.67182 64.9274 8.84397C64.6402 9.01612 64.3088 9.10219 63.8891 9.10219C63.4693 9.10219 63.7565 9.10219 63.7344 9.10219C63.7344 9.38193 63.7344 9.76925 63.7565 10.2427H63.0938C63.0938 9.79077 63.1158 9.27433 63.1158 8.67182C63.1158 8.06931 63.1158 7.63895 63.0938 7.2301H63.5135C63.5798 7.2301 63.6902 7.2301 63.8449 7.2301C64.0216 7.2301 64.1542 7.2301 64.2867 7.2301C64.596 7.2301 64.839 7.29466 65.0378 7.42377C65.2367 7.55288 65.3471 7.76806 65.3471 8.02628ZM64.7506 8.13387C64.7506 7.81109 64.5297 7.63895 64.0658 7.63895C63.6019 7.63895 63.8449 7.63895 63.7123 7.68199C63.7123 7.98324 63.7344 8.30601 63.7344 8.67182C63.7786 8.67182 63.8228 8.67182 63.867 8.67182C64.4414 8.67182 64.7285 8.49968 64.7285 8.13387H64.7506Z" fill="#171717"/>
<path d="M70.0084 8.67184C70.0084 9.14524 69.8538 9.53257 69.5666 9.85534C69.2794 10.1566 68.9038 10.3287 68.462 10.3287C68.0201 10.3287 67.6888 10.1781 67.4237 9.89838C67.1365 9.61864 67.0039 9.25283 67.0039 8.80095C67.0039 8.34906 67.1585 7.94022 67.4457 7.61744C67.7329 7.31619 68.1085 7.14404 68.5503 7.14404C68.9922 7.14404 69.3236 7.29467 69.5887 7.57441C69.8759 7.85414 70.0084 8.21995 70.0084 8.67184ZM69.3456 8.73639C69.3456 8.41362 69.2573 8.1554 69.1026 7.96174C68.9259 7.76807 68.7271 7.66048 68.4841 7.66048C68.2411 7.66048 68.0643 7.76807 67.8876 7.96174C67.7329 8.1554 67.6446 8.41362 67.6446 8.73639C67.6446 9.05917 67.7329 9.31738 67.9097 9.51105C68.0864 9.70471 68.2852 9.8123 68.5283 9.8123C68.7713 9.8123 68.948 9.70471 69.1247 9.51105C69.2794 9.31738 69.3677 9.05917 69.3677 8.73639H69.3456Z" fill="#171717"/>
<path d="M73.2359 10.2427H72.6394C72.6394 10.1781 72.4185 9.85536 71.9766 9.23133C71.5127 8.58579 71.2697 8.15542 71.2034 7.91872H71.1592C71.2034 8.26301 71.2255 8.56427 71.2255 8.844C71.2255 9.12374 71.2255 9.68321 71.2697 10.2427H70.6953C70.7174 9.76929 70.7395 9.23133 70.7395 8.67186C70.7395 8.11238 70.7395 7.63898 70.6953 7.23014H71.4023C71.4023 7.31621 71.6011 7.63898 71.9987 8.19846C72.4185 8.80097 72.6615 9.20981 72.7057 9.425H72.7499C72.7057 9.0807 72.6836 8.77945 72.6836 8.49971C72.6836 8.09087 72.6836 7.6605 72.6394 7.20862H73.2359C73.2138 7.59595 73.1917 8.06935 73.1917 8.65034C73.1917 9.23133 73.1917 9.74777 73.2359 10.2212V10.2427Z" fill="#171717"/>
</g>
<defs>
<linearGradient id="paint0_linear_842_1514" x1="14.7806" y1="6.84277" x2="14.7806" y2="31.2229" gradientUnits="userSpaceOnUse">
<stop stop-color="#257CB0"/>
<stop offset="0.2" stop-color="#3C8FB3"/>
<stop offset="0.7" stop-color="#73BDBA"/>
<stop offset="1" stop-color="#89CFBD"/>
</linearGradient>
<linearGradient id="paint1_linear_842_1514" x1="8.48438" y1="12.8894" x2="24.4789" y2="12.8894" gradientUnits="userSpaceOnUse">
<stop stop-color="#52C1AD"/>
<stop offset="1" stop-color="#DEE89A"/>
</linearGradient>
<linearGradient id="paint2_linear_842_1514" x1="16.4816" y1="19.0221" x2="16.4816" y2="31.309" gradientUnits="userSpaceOnUse">
<stop stop-color="#EC413D"/>
<stop offset="0.2" stop-color="#D64251"/>
<stop offset="0.7" stop-color="#9F4887"/>
<stop offset="1" stop-color="#8A4A9D"/>
</linearGradient>
<linearGradient id="paint3_linear_842_1514" x1="25.6967" y1="15.7513" x2="25.6967" y2="22.2929" gradientUnits="userSpaceOnUse">
<stop stop-color="#F58879"/>
<stop offset="0.6" stop-color="#FAB275"/>
<stop offset="1" stop-color="#FEC874"/>
</linearGradient>
<clipPath id="clip0_842_1514">
<rect width="113" height="36" fill="white"/>
</clipPath>
</defs>
</svg>
