<svg width="224" height="186" viewBox="0 0 224 186" fill="none" xmlns="http://www.w3.org/2000/svg">
<path d="M96.0418 80.4756H93.1172V181.662H96.0418V80.4756Z" fill="#E0E0E0"/>
<path d="M96.0469 80.4758C96.0469 80.4758 96.0469 80.6458 96.0469 80.9858C96.0469 81.3257 96.0469 81.8397 96.0469 82.4993C96.0469 83.8429 96.0469 85.8138 96.0672 88.3512C96.0672 93.4504 96.0915 100.824 96.1077 109.954C96.1077 128.242 96.1402 153.556 96.1604 181.662V181.796H92.9844V181.662C92.9844 132.289 93.029 90.9696 93.0898 80.488V80.4556H93.1182L95.337 80.4758C95.8197 80.4758 96.0469 80.4758 96.0469 80.4758H95.3208H93.1182L93.1507 80.4475C93.2075 90.9413 93.2521 132.269 93.2521 181.622L93.1182 181.488H96.0469L95.913 181.622C95.913 153.552 95.9536 128.279 95.9657 110.011C95.9657 100.873 95.9982 93.4868 96.0063 88.3796C96.0063 85.8259 96.0063 83.847 96.0266 82.4953C96.0266 81.8275 96.0266 81.3136 96.0266 80.9615C96.0266 80.6094 96.0469 80.4758 96.0469 80.4758Z" fill="#263238"/>
<path d="M109.265 43.6078H81.4832C80.6252 43.6078 79.9297 44.3017 79.9297 45.1578V87.5498C79.9297 88.4058 80.6252 89.0998 81.4832 89.0998H109.265C110.123 89.0998 110.818 88.4058 110.818 87.5498V45.1578C110.818 44.3017 110.123 43.6078 109.265 43.6078Z" fill="#FF6600"/>
<path d="M100.538 50.2814C101.748 50.7822 102.775 51.6414 103.48 52.7428C104.185 53.8443 104.534 55.1351 104.481 56.4409C104.51 57.7522 104.155 59.0435 103.459 60.156C102.747 61.2356 101.731 62.0806 100.538 62.5842C99.1265 63.1735 97.6063 63.4603 96.0763 63.426H92.162V68.7599H87.6758V49.4235H96.0642C97.5997 49.3885 99.1251 49.681 100.538 50.2814ZM98.8874 58.9136C99.2211 58.5907 99.4865 58.2041 99.6677 57.777C99.8489 57.3498 99.9423 56.8906 99.9423 56.4267C99.9423 55.9629 99.8489 55.5037 99.6677 55.0765C99.4865 54.6493 99.2211 54.2628 98.8874 53.9399C98.1897 53.3612 97.1634 53.0698 95.8167 53.0698H92.1661V59.7837H95.8167C97.1634 59.7837 98.1897 59.4923 98.8874 58.9136Z" fill="white"/>
<g opacity="0.3">
<path d="M110.818 46.1332L79.9297 78.4846V83.9076L110.818 51.9244V46.1332Z" fill="white"/>
</g>
<g opacity="0.3">
<path d="M110.818 53.6519L79.9297 85.9993V87.5331L110.818 55.8979V53.6519Z" fill="white"/>
</g>
<path d="M109.067 87.7887H81.4844V45.162H109.067V87.7887ZM81.9792 87.2788H108.556V45.6719H81.9792V87.2788Z" fill="white"/>
<path d="M101.518 76.7078C101.146 76.7083 100.776 76.7615 100.419 76.8657L98.9627 73.4419L100.472 72.7661C100.516 72.7476 100.556 72.7205 100.589 72.6863C100.623 72.652 100.649 72.6114 100.667 72.5668C100.684 72.5223 100.692 72.4747 100.691 72.4269C100.689 72.379 100.678 72.332 100.658 72.2886C100.64 72.2447 100.612 72.2049 100.578 72.1716C100.544 72.1382 100.504 72.1119 100.459 72.0943C100.415 72.0752 100.368 72.0654 100.32 72.0654C100.271 72.0654 100.224 72.0752 100.18 72.0943L98.338 72.9037C98.2504 72.9419 98.1816 73.0132 98.1466 73.1019C98.1116 73.1907 98.1134 73.2897 98.1514 73.3772L98.8369 74.996H93.0202C92.8134 74.5225 92.6592 74.1866 92.5456 73.9559H93.438C93.5876 73.9559 93.731 73.8966 93.8367 73.7911C93.9425 73.6856 94.0019 73.5426 94.0019 73.3934C94.0019 73.2442 93.9425 73.1011 93.8367 72.9956C93.731 72.8901 93.5876 72.8308 93.438 72.8308H91.0043C90.8547 72.8308 90.7113 72.8901 90.6056 72.9956C90.4998 73.1011 90.4404 73.2442 90.4404 73.3934C90.4404 73.5426 90.4998 73.6856 90.6056 73.7911C90.7113 73.8966 90.8547 73.9559 91.0043 73.9559H91.7303C91.8236 74.1137 92.0548 74.6236 92.3591 75.3197L91.1949 77.1125C90.4545 76.743 89.6151 76.619 88.7991 76.7586C87.9832 76.8983 87.2332 77.2944 86.6586 77.889C86.084 78.4837 85.7148 79.2459 85.6048 80.0646C85.4948 80.8833 85.6497 81.7156 86.047 82.4403C86.4443 83.165 87.0632 83.7441 87.8135 84.0933C88.5637 84.4425 89.4062 84.5435 90.218 84.3816C91.0299 84.2196 91.7687 83.8033 92.3267 83.1931C92.8848 82.5829 93.2329 81.8109 93.3204 80.9895H94.9956C95.0431 80.9899 95.0901 80.9802 95.1336 80.9612L95.1782 80.9288C95.2062 80.9132 95.232 80.8942 95.2552 80.8722L99.2385 76.0158L99.7212 77.1409C98.8754 77.5747 98.2184 78.303 97.8747 79.1878C97.5309 80.0726 97.5244 81.0524 97.8562 81.9416C98.1881 82.8309 98.8353 83.5679 99.6753 84.0129C100.515 84.458 101.49 84.5803 102.414 84.3566C103.338 84.1329 104.148 83.5788 104.69 82.7992C105.233 82.0197 105.47 81.0688 105.356 80.1266C105.243 79.1845 104.787 78.3166 104.075 77.6872C103.363 77.0579 102.445 76.7109 101.494 76.7119L101.518 76.7078ZM101.295 80.7548C101.322 80.8208 101.368 80.8773 101.427 80.917C101.486 80.9567 101.556 80.9777 101.628 80.9774C101.676 80.9782 101.725 80.9685 101.77 80.9491C101.814 80.9311 101.854 80.9042 101.888 80.8701C101.921 80.836 101.947 80.7954 101.964 80.7508C102.001 80.6612 102.001 80.5611 101.964 80.4715L100.674 77.4484C101.469 77.2393 102.313 77.3414 103.035 77.7338C103.756 78.1262 104.3 78.7791 104.554 79.5586C104.808 80.338 104.754 81.185 104.402 81.9258C104.05 82.6665 103.427 83.2449 102.662 83.5422C101.896 83.8395 101.045 83.8333 100.284 83.5247C99.5231 83.2162 98.9091 82.6288 98.5682 81.8829C98.2274 81.1371 98.1855 80.2894 98.4512 79.5137C98.7169 78.738 99.27 78.0932 99.997 77.7115L101.295 80.7548ZM92.6836 80.253H90.0145L91.4626 78.0312C91.8077 78.3029 92.0939 78.6417 92.3038 79.0271C92.5137 79.4126 92.6429 79.8365 92.6836 80.2732V80.253ZM89.0329 80.4149C88.997 80.47 88.9768 80.5338 88.9743 80.5994C88.9718 80.6651 88.9872 80.7302 89.0188 80.7879C89.0504 80.8456 89.0971 80.8936 89.1538 80.927C89.2106 80.9603 89.2753 80.9778 89.3412 80.9774H92.6592C92.5734 81.6561 92.2743 82.2903 91.8048 82.7889C91.3353 83.2876 90.7195 83.625 90.0459 83.7528C89.3723 83.8806 88.6754 83.7922 88.0552 83.5003C87.435 83.2084 86.9235 82.728 86.594 82.1281C86.2644 81.5281 86.1339 80.8394 86.221 80.1608C86.3081 79.4823 86.6084 78.8486 87.0789 78.3509C87.5494 77.8532 88.1657 77.517 88.8396 77.3905C89.5135 77.2639 90.2102 77.3537 90.8298 77.6467L89.0329 80.4149ZM91.8115 77.4849L92.7079 76.1089C93.2514 77.3756 93.9248 78.966 94.448 80.253H93.3326C93.2853 79.7148 93.126 79.1925 92.8647 78.7193C92.6035 78.2461 92.2461 77.8326 91.8155 77.5051L91.8115 77.4849ZM93.8761 77.0437C93.6611 76.5379 93.4705 76.1048 93.3163 75.7325H98.553L95.093 79.9333C94.8334 79.2858 94.3669 78.1648 93.8761 77.0437Z" fill="white"/>
<g opacity="0.3">
<path d="M20.3253 13.2886C20.3253 13.2886 19.1589 6.08931 26.5964 4.46258C34.0339 2.83584 37.3074 10.5023 39.4019 12.1291C41.4965 13.7558 42.6629 8.41262 47.0861 9.80577C51.5093 11.1989 52.684 14.4524 53.8505 14.7027C55.0169 14.9529 55.2468 11.4492 59.67 12.8423C64.0932 14.2355 66.4219 16.7882 66.4219 16.7882H7.98387C7.98387 16.7882 9.61434 13.5347 12.6412 12.1416C15.668 10.7484 18.2308 15.8455 20.3253 13.2886Z" stroke="black" stroke-width="0.85735" stroke-miterlimit="10"/>
<path d="M163.082 20.125C163.082 20.125 162.413 15.9915 166.69 15.0571C170.966 14.1228 172.844 18.5233 174.048 19.4576C175.252 20.392 175.921 17.322 178.458 18.1229C180.996 18.9237 181.669 20.7924 182.346 20.9259C183.024 21.0594 183.149 19.0572 185.691 19.8581C187.148 20.2907 188.477 21.0693 189.566 22.1272H156.008C156.008 22.1272 156.944 20.2585 158.683 19.4576C160.423 18.6568 161.861 21.5933 163.082 20.125Z" stroke="black" stroke-width="0.85735" stroke-miterlimit="10"/>
<path d="M68.3319 18.3522C68.3319 18.3522 67.663 14.2145 71.944 13.2843C76.2251 12.3541 78.0938 16.7505 79.2979 17.6848C80.5019 18.6192 81.175 15.5367 83.7127 16.3709C86.2504 17.2051 86.9193 19.0404 87.5882 19.1739C88.2571 19.3074 88.3909 17.3053 90.9328 18.1061C92.3911 18.5379 93.7225 19.3166 94.8125 20.3752H61.2456C61.2456 20.3752 62.182 18.5065 63.9212 17.7057C65.6604 16.9048 67.1278 19.8204 68.3319 18.3522Z" stroke="black" stroke-width="0.85735" stroke-miterlimit="10"/>
</g>
<path d="M162.664 102.751C162.664 115.602 170.282 126.017 179.68 126.017C189.078 126.017 196.695 115.589 196.695 102.751C196.695 89.9121 189.078 45.74 179.68 45.74C170.282 45.74 162.664 89.9037 162.664 102.751Z" fill="#92E3A9"/>
<path opacity="0.5" d="M162.664 102.751C162.664 115.602 170.282 126.017 179.68 126.017C189.078 126.017 196.695 115.589 196.695 102.751C196.695 89.9121 189.078 45.74 179.68 45.74C170.282 45.74 162.664 89.9037 162.664 102.751Z" fill="white"/>
<path d="M188.873 103.906L183.443 105.796L180.754 109.441L181.227 120.607L184.354 118.489L181.323 122.918L181.862 181.677H178.785L179.153 114.434L170.14 109.475L175.29 111.377L174.258 108.282L176.72 111.902L179.178 112.812L179.354 102.651L170.403 90.784L175.202 95.5683L174.391 92.2439L176.687 97.049L179.404 99.7644L179.68 83.8892L180.654 107.043L189.137 98.0751L184.479 104.394L188.873 103.906Z" fill="#999999"/>
<path d="M170.317 83.9431C170.243 84.8958 170.487 85.8463 171.011 86.646C171.629 87.3781 172.473 87.8855 173.411 88.0892C173.543 87.1314 173.293 86.1602 172.714 85.3848C172.135 84.6093 171.275 84.0916 170.317 83.9431Z" fill="white"/>
<path d="M165.204 91.126C165.072 92.0842 165.322 93.0559 165.9 93.8321C166.479 94.6082 167.34 95.1268 168.297 95.2762C168.43 94.318 168.18 93.3463 167.601 92.5701C167.022 91.794 166.162 91.2754 165.204 91.126Z" fill="white"/>
<path d="M165.201 105.124C165.456 106.047 166.008 106.861 166.773 107.439C167.602 107.919 168.566 108.112 169.516 107.99C169.264 107.067 168.713 106.255 167.948 105.679C167.119 105.197 166.153 105.002 165.201 105.124Z" fill="white"/>
<path d="M193.359 105.124C193.106 106.046 192.555 106.86 191.792 107.439C190.958 107.921 189.988 108.115 189.032 107.99C189.286 107.067 189.839 106.255 190.604 105.679C191.436 105.194 192.405 104.999 193.359 105.124Z" fill="white"/>
<path d="M171.114 99.3135C171.043 100.268 171.288 101.219 171.812 102.021C172.432 102.751 173.275 103.256 174.212 103.46C174.343 102.501 174.092 101.53 173.513 100.755C172.933 99.9795 172.072 99.462 171.114 99.3135Z" fill="white"/>
<path d="M172.441 76.1179C172.37 77.0715 172.617 78.0216 173.143 78.8208C173.76 79.5531 174.602 80.0606 175.539 80.264C175.673 79.3059 175.424 78.3336 174.845 77.5576C174.266 76.7816 173.403 76.2643 172.445 76.1179H172.441Z" fill="white"/>
<path d="M175.498 82.0825C175.426 83.033 175.672 83.9805 176.196 84.7771C176.808 85.5101 177.646 86.0205 178.579 86.2286C178.657 85.2773 178.418 84.327 177.898 83.5257C177.279 82.7936 176.436 82.2862 175.498 82.0825Z" fill="white"/>
<path d="M168.243 77.7407C168.112 78.6983 168.363 79.6689 168.941 80.4441C169.519 81.2194 170.38 81.7373 171.337 81.8868C171.469 80.9291 171.218 79.9579 170.64 79.1824C170.061 78.4069 169.2 77.8892 168.243 77.7407Z" fill="white"/>
<path d="M191.824 77.7407C191.895 78.6938 191.65 79.6439 191.126 80.4436C190.507 81.1757 189.663 81.6831 188.726 81.8868C188.654 80.9325 188.9 79.9812 189.424 79.1798C190.043 78.4497 190.887 77.9439 191.824 77.7407Z" fill="white"/>
<path d="M171.773 68.8269C171.701 69.78 171.947 70.73 172.471 71.5298C173.088 72.2621 173.93 72.7696 174.867 72.973C175.001 72.0149 174.752 71.0426 174.173 70.2666C173.594 69.4906 172.732 68.9733 171.773 68.8269Z" fill="white"/>
<path d="M173.28 61.0811C172.911 61.9757 172.91 62.9791 173.276 63.8748C173.642 64.7705 174.346 65.4869 175.236 65.8695C175.606 64.9754 175.609 63.9721 175.244 63.0761C174.878 62.1802 174.174 61.4635 173.284 61.0811H173.28Z" fill="white"/>
<path d="M184.036 59.0583C183.195 59.5256 182.535 60.2596 182.159 61.1439C181.886 62.0609 181.926 63.0423 182.272 63.9344C183.146 63.5168 183.82 62.7736 184.15 61.8647C184.48 60.9559 184.439 59.9541 184.036 59.075V59.0583Z" fill="white"/>
<path d="M179.024 68.3184C178.388 69.0472 178.062 69.9956 178.118 70.9606C178.173 71.9257 178.605 72.8308 179.321 73.4822C179.96 72.7548 180.288 71.8057 180.232 70.8396C180.177 69.8736 179.743 68.9681 179.024 68.3184Z" fill="white"/>
<path d="M179.29 54.5325C178.65 55.2592 178.323 56.2076 178.379 57.173C178.434 58.1383 178.868 59.0431 179.586 59.6921C180.224 58.9645 180.549 58.0165 180.494 57.0518C180.438 56.0871 180.006 55.1826 179.29 54.5325Z" fill="white"/>
<path d="M190.557 83.9431C190.632 84.8934 190.391 85.8417 189.871 86.6418C189.253 87.3739 188.409 87.8813 187.472 88.085C187.4 87.1307 187.646 86.1794 188.17 85.378C188.786 84.6511 189.625 84.1468 190.557 83.9431Z" fill="white"/>
<path d="M193.478 92.4231C193.555 93.3743 193.315 94.3242 192.797 95.126C192.18 95.8582 191.338 96.3658 190.401 96.5692C190.327 95.6152 190.571 94.6635 191.095 93.8621C191.71 93.1352 192.547 92.6296 193.478 92.4231Z" fill="white"/>
<path d="M185.718 95.5015C185.79 96.4558 185.544 97.4071 185.02 98.2085C184.403 98.9388 183.56 99.4447 182.625 99.6475C182.55 98.6948 182.794 97.7444 183.319 96.9447C183.937 96.2126 184.781 95.7052 185.718 95.5015Z" fill="white"/>
<path d="M183.598 83.7468C183.999 84.6264 184.038 85.628 183.706 86.536C183.375 87.444 182.699 88.1859 181.825 88.602C181.482 87.7092 181.443 86.7282 181.716 85.8115C182.098 84.9352 182.76 84.2093 183.598 83.7468Z" fill="white"/>
<path d="M189.09 115.026C188.131 115.021 187.2 114.7 186.443 114.113C185.76 113.44 185.319 112.56 185.189 111.61C186.148 111.615 187.079 111.936 187.836 112.524C188.519 113.197 188.959 114.077 189.09 115.026Z" fill="white"/>
<path d="M174.016 113.312C173.734 114.226 173.156 115.021 172.373 115.573C171.53 116.028 170.56 116.193 169.613 116.04C169.895 115.126 170.471 114.33 171.252 113.775C172.097 113.321 173.069 113.159 174.016 113.312Z" fill="white"/>
<path d="M187.335 76.1179C187.409 77.0706 187.165 78.0211 186.641 78.8208C186.022 79.5529 185.178 80.0603 184.241 80.264C184.169 79.3096 184.415 78.3584 184.939 77.557C185.557 76.8267 186.399 76.3208 187.335 76.1179Z" fill="white"/>
<path d="M187.359 69.2236C187.43 70.178 187.185 71.1293 186.661 71.9307C186.043 72.6609 185.201 73.1669 184.265 73.3697C184.191 72.417 184.435 71.4666 184.959 70.6668C185.578 69.9347 186.421 69.4273 187.359 69.2236Z" fill="white"/>
<path d="M112.111 84.5772C112.111 100.386 121.484 113.199 133.043 113.199C144.603 113.199 153.98 100.386 153.98 84.5772C153.98 68.7687 144.599 14.4399 133.014 14.4399C121.429 14.4399 112.111 68.7687 112.111 84.5772Z" fill="#92E3A9"/>
<path opacity="0.5" d="M112.111 84.5772C112.111 100.386 121.484 113.199 133.043 113.199C144.603 113.199 153.98 100.386 153.98 84.5772C153.98 68.7687 144.599 14.4399 133.014 14.4399C121.429 14.4399 112.111 68.7687 112.111 84.5772Z" fill="white"/>
<path d="M144.338 85.9995L137.661 88.3229L134.354 92.8068L134.931 106.542L138.782 103.939L135.053 109.387L135.713 181.676H131.93L132.381 98.9467L121.29 92.8485L127.632 95.1885L126.357 91.3803L129.388 95.835L132.415 96.9529L132.632 84.4521L121.62 69.8532L127.519 75.7428L126.524 71.6468L129.346 77.5614L132.695 80.9025L133.029 61.3691L134.229 89.8578L144.664 78.8211L138.932 86.596L144.338 85.9995Z" fill="#999999"/>
<path d="M121.513 61.4192C121.513 61.4192 121.321 63.3379 122.375 64.7561C123.428 66.1743 125.322 66.5288 125.322 66.5288C125.322 66.5288 125.514 64.6101 124.465 63.1919C123.416 61.7737 121.513 61.4192 121.513 61.4192Z" fill="white"/>
<path d="M115.205 70.2744C115.205 70.2744 115.013 72.1931 116.062 73.6113C117.111 75.0295 119.014 75.384 119.014 75.384C119.014 75.384 119.206 73.4653 118.156 72.0471C117.107 70.629 115.205 70.2744 115.205 70.2744Z" fill="white"/>
<path d="M115.21 87.4972C115.21 87.4972 115.674 89.37 117.142 90.3419C118.609 91.3138 120.516 91.0218 120.516 91.0218C120.516 91.0218 120.052 89.1489 118.584 88.1771C117.117 87.2052 115.21 87.4972 115.21 87.4972Z" fill="white"/>
<path d="M149.863 87.4972C149.863 87.4972 149.395 89.37 147.932 90.3419C146.469 91.3138 144.554 91.0218 144.554 91.0218C144.554 91.0218 145.022 89.1489 146.485 88.1771C147.949 87.2052 149.863 87.4972 149.863 87.4972Z" fill="white"/>
<path d="M122.494 80.3477C122.494 80.3477 122.302 82.2664 123.351 83.6845C124.4 85.1027 126.303 85.4573 126.303 85.4573C126.303 85.4573 126.495 83.5386 125.441 82.1204C124.388 80.7022 122.494 80.3477 122.494 80.3477Z" fill="white"/>
<path d="M124.135 51.8257C124.135 51.8257 123.942 53.7444 124.992 55.1626C126.041 56.5808 127.943 56.9353 127.943 56.9353C127.943 56.9353 128.136 55.0166 127.082 53.5984C126.029 52.1802 124.135 51.8257 124.135 51.8257Z" fill="white"/>
<path d="M127.888 59.1501C127.888 59.1501 127.696 61.0689 128.746 62.487C129.795 63.9052 131.697 64.2639 131.697 64.2639C131.697 64.2639 131.889 62.3452 130.84 60.927C129.791 59.5089 127.888 59.1501 127.888 59.1501Z" fill="white"/>
<path d="M118.96 53.8071C118.96 53.8071 118.767 55.7258 119.821 57.144C120.875 58.5622 122.747 58.9209 122.747 58.9209C122.747 58.9209 122.94 56.998 121.911 55.584C120.883 54.17 118.96 53.8071 118.96 53.8071Z" fill="white"/>
<path d="M147.971 53.8071C147.971 53.8071 148.163 55.7258 147.109 57.144C146.056 58.5622 144.162 58.9209 144.162 58.9209C144.162 58.9209 143.97 56.998 145.019 55.584C146.068 54.17 147.971 53.8071 147.971 53.8071Z" fill="white"/>
<path d="M123.311 42.8411C123.311 42.8411 123.119 44.7598 124.173 46.178C125.226 47.5961 127.099 47.9548 127.099 47.9548C127.099 47.9548 127.291 46.0361 126.263 44.618C125.234 43.1998 123.311 42.8411 123.311 42.8411Z" fill="white"/>
<path d="M125.154 33.3103C125.154 33.3103 124.485 35.1206 125.154 36.7473C125.823 38.374 127.562 39.2041 127.562 39.2041C127.562 39.2041 128.231 37.3938 127.562 35.7671C126.893 34.1404 125.154 33.3103 125.154 33.3103Z" fill="white"/>
<path d="M138.401 30.8198C138.401 30.8198 136.687 31.7166 136.089 33.3684C135.492 35.0201 136.227 36.8012 136.227 36.8012C136.227 36.8012 137.941 35.9044 138.539 34.2568C139.137 32.6092 138.401 30.8198 138.401 30.8198Z" fill="white"/>
<path d="M132.225 42.2323C132.225 42.2323 131.008 43.7297 131.108 45.4816C131.209 47.2335 132.592 48.5807 132.592 48.5807C132.592 48.5807 133.813 47.0875 133.713 45.3314C133.613 43.5754 132.225 42.2323 132.225 42.2323Z" fill="white"/>
<path d="M132.553 25.2556C132.553 25.2556 131.332 26.753 131.433 28.5049C131.533 30.2568 132.917 31.604 132.917 31.604C132.917 31.604 134.137 30.1066 134.037 28.3548C133.937 26.6029 132.553 25.2556 132.553 25.2556Z" fill="white"/>
<path d="M146.389 61.4192C146.389 61.4192 146.581 63.3379 145.531 64.7561C144.482 66.1743 142.58 66.5288 142.58 66.5288C142.58 66.5288 142.388 64.6101 143.437 63.1919C144.486 61.7737 146.389 61.4192 146.389 61.4192Z" fill="white"/>
<path d="M150.006 71.8679C150.006 71.8679 150.198 73.7866 149.149 75.2048C148.099 76.623 146.197 76.9775 146.197 76.9775C146.197 76.9775 146.005 75.0588 147.054 73.6406C148.103 72.2225 150.006 71.8679 150.006 71.8679Z" fill="white"/>
<path d="M140.459 75.6594C140.459 75.6594 140.651 77.5781 139.598 78.9963C138.544 80.4145 136.671 80.7732 136.671 80.7732C136.671 80.7732 136.479 78.8545 137.507 77.4363C138.536 76.0181 140.459 75.6594 140.459 75.6594Z" fill="white"/>
<path d="M137.848 61.1938C137.848 61.1938 138.584 62.9791 137.982 64.6308C137.38 66.2826 135.666 67.171 135.666 67.171C135.666 67.171 134.93 65.39 135.532 63.7382C136.134 62.0865 137.848 61.1938 137.848 61.1938Z" fill="white"/>
<path d="M144.609 99.6805C144.609 99.6805 142.678 99.7138 141.357 98.5543C140.036 97.3947 139.827 95.476 139.827 95.476C139.827 95.476 141.758 95.4384 143.079 96.6022C144.4 97.7659 144.609 99.6805 144.609 99.6805Z" fill="white"/>
<path d="M126.062 97.5701C126.062 97.5701 125.536 99.4262 124.043 100.352C122.551 101.278 120.644 100.924 120.644 100.924C120.644 100.924 121.171 99.0675 122.668 98.1415C124.164 97.2156 126.062 97.5701 126.062 97.5701Z" fill="white"/>
<path d="M142.446 51.8257C142.446 51.8257 142.643 53.7444 141.589 55.1626C140.536 56.5808 138.642 56.9353 138.642 56.9353C138.642 56.9353 138.445 55.0166 139.499 53.5984C140.553 52.1802 142.446 51.8257 142.446 51.8257Z" fill="white"/>
<path d="M142.489 43.329C142.489 43.329 142.685 45.2477 141.653 46.6659C140.62 48.084 138.705 48.4386 138.705 48.4386C138.705 48.4386 138.509 46.5199 139.562 45.1017C140.616 43.6835 142.489 43.329 142.489 43.329Z" fill="white"/>
<path d="M194.555 181.677H1.00026" stroke="#263238" stroke-width="0.85735" stroke-linecap="round" stroke-linejoin="round"/>
<path d="M97.3031 112.661L101.651 115.043L103.812 118.797C103.812 118.797 103.177 119.948 102.241 119.948C101.304 119.948 98.8416 118.196 98.8416 118.196C98.8416 118.196 96.9645 117.496 96.4963 117.262C96.028 117.029 95.5932 115.932 95.5932 115.932L97.3031 112.661Z" fill="white" stroke="#263238" stroke-width="0.85735" stroke-linecap="round" stroke-linejoin="round"/>
<path d="M64.6934 146.047C64.6934 146.047 63.0713 160.688 62.2978 164.208C61.5244 167.728 60.3914 178.628 60.3914 178.628C60.3914 178.628 64.2711 183.554 64.8355 184.325C65.3999 185.097 64.2711 185.314 60.5336 184.117C56.796 182.92 55.8763 181.935 55.7341 181.159C55.6049 179.333 55.5826 177.5 55.6672 175.67C55.7341 174.544 54.4799 162.644 54.622 158.418C54.7642 154.193 57.0051 147.657 57.0051 147.657L57.0761 144.212L64.6934 146.047Z" fill="#757575" stroke="#263238" stroke-width="0.85735" stroke-linecap="round" stroke-linejoin="round"/>
<path d="M60.5375 184.125C56.8 182.928 55.8802 181.944 55.738 181.168C55.6089 179.341 55.5865 177.508 55.6712 175.679C55.738 174.611 54.5507 163.816 54.6093 159.14C57.2933 160.784 61.3611 160.575 62.9707 160.175C62.724 161.914 62.4941 163.374 62.3101 164.208C61.5325 167.724 60.4037 178.636 60.4037 178.636C60.4037 178.636 64.2834 183.562 64.8478 184.334C65.4122 185.105 64.2751 185.322 60.5375 184.125Z" fill="#263238" stroke="#263238" stroke-width="0.85735" stroke-linecap="round" stroke-linejoin="round"/>
<path d="M79.3015 145.346L78.7371 149.355C78.7371 149.355 78.8792 163.432 78.9503 165.622C79.0214 167.812 79.4436 176.25 79.4436 176.25C79.4436 176.25 85.0876 180.471 86.0742 180.967C87.0609 181.464 87.6253 181.739 87.2741 181.881C86.9229 182.023 83.4655 182.16 82.2572 182.023C81.049 181.885 76.6133 181.952 75.8357 181.668C75.5 181.511 75.2158 181.263 75.016 180.951C74.8162 180.639 74.709 180.278 74.7069 179.908C74.7069 179.345 74.9912 176.108 74.9912 175.616C74.9912 175.124 70.3339 159.64 70.3339 156.546C70.3339 153.451 70.6892 148.379 70.6892 148.028C70.6892 147.678 70.7561 145.071 70.7561 145.071L79.3015 145.346Z" fill="#757575" stroke="#263238" stroke-width="0.85735" stroke-linecap="round" stroke-linejoin="round"/>
<path d="M73.638 158.293C75.5068 158.614 77.5762 158.168 78.8095 157.814C78.8513 161.246 78.8973 164.633 78.9308 165.614C79.0018 167.795 79.4241 176.242 79.4241 176.242C79.4241 176.242 85.0681 180.463 86.0547 180.959C87.0414 181.455 87.6057 181.731 87.2546 181.873C86.9034 182.014 83.4459 182.152 82.2377 182.014C81.0295 181.877 76.5937 181.943 75.8161 181.66C75.4804 181.503 75.1962 181.254 74.9964 180.943C74.7966 180.631 74.6895 180.269 74.6873 179.9C74.6873 179.337 74.9716 176.1 74.9716 175.608C74.9716 175.115 70.9331 161.693 70.3729 157.346C71.4177 157.796 72.5145 158.114 73.638 158.293Z" fill="#263238" stroke="#263238" stroke-width="0.85735" stroke-linecap="round" stroke-linejoin="round"/>
<path d="M70.2655 79.1006C70.2655 79.1006 72.9871 79.9348 74.1159 81.4447C75.2447 82.9547 78.6938 92.3731 78.5934 95.2094C78.4931 98.0458 84.2792 143.744 83.7733 144.349C83.2675 144.954 82.2474 144.766 82.2474 144.766C80.8909 145.878 79.2268 146.55 77.4772 146.693C74.4295 146.998 70.0606 146.276 70.0606 146.276C67.6627 147.543 64.9418 148.072 62.2427 147.795C57.878 147.29 56.0469 146.276 56.0469 146.276C54.8721 146.435 53.6761 146.259 52.5978 145.767C50.9715 144.958 50.4614 144.349 50.4614 144.349L59.0068 79.9139C59.0068 79.9139 66.9125 77.7867 70.2655 79.1006Z" fill="#A3A3A3" stroke="#263238" stroke-width="0.85735" stroke-linecap="round" stroke-linejoin="round"/>
<path d="M79.9087 82.5415C79.9087 82.5415 81.5559 88.1975 82.4715 92.2727C83.3871 96.3479 84.4365 101.449 84.4365 101.449C84.4365 101.449 93.634 109.42 94.9886 110.626C96.3431 111.831 97.3047 112.632 97.3047 112.632L95.5781 115.906L80.6571 106.972L78.5082 89.1444L79.9087 82.5415Z" fill="#03D64F" stroke="#263238" stroke-width="0.85735" stroke-linecap="round" stroke-linejoin="round"/>
<path d="M71.7958 75.3634V78.6461C71.7958 78.6461 73.5057 80.0475 74.1161 81.4449C74.7265 82.8422 74.9062 85.52 74.9062 85.52L65.0858 85.6869L65.7588 72.1975L68.8693 72.9275L71.7958 75.3634Z" fill="white" stroke="#263238" stroke-width="0.85735" stroke-linecap="round" stroke-linejoin="round"/>
<path d="M77.8203 95.5601C77.8203 95.5601 76.541 97.6456 76.4783 98.4214C76.4156 99.1973 77.7618 101.704 77.7618 101.704L77.8203 95.5601Z" stroke="#263238" stroke-width="0.85735" stroke-linecap="round" stroke-linejoin="round"/>
<path d="M72.0463 79.1338C72.0463 79.1338 73.936 84.2434 75.5832 87.9557C77.2304 91.668 77.4729 94.4668 77.2262 96.6566C76.9796 98.8465 78.2421 117.767 78.2421 117.767L83.0625 116.791C83.0625 116.791 81.2313 102.801 81.1101 102.008C80.9889 101.216 79.4002 92.1518 80.0106 89.232C80.621 86.3123 80.1318 83.0254 79.8893 82.5583C79.6469 82.0911 72.0463 79.1338 72.0463 79.1338Z" fill="#03D64F" stroke="#263238" stroke-width="0.85735" stroke-linecap="round" stroke-linejoin="round"/>
<path d="M77.9885 81.7158C78.6032 83.1078 79.059 84.5643 79.3472 86.058C79.619 87.96 79.7109 90.8548 79.7109 90.8548C79.7109 90.8548 77.445 84.0684 76.7175 82.5125L75.9901 80.9734L77.9885 81.7158Z" fill="#263238" stroke="#263238" stroke-width="0.85735" stroke-linecap="round" stroke-linejoin="round"/>
<path d="M78.9332 58.6329C78.9332 58.6329 81.6758 61.3692 81.6758 62.7081C81.6758 64.047 79.4809 65.8698 78.9332 66.4621C78.3856 67.0544 76.7969 70.4789 77.4073 73.0942C78.0177 75.7095 78.4901 78.5959 78.3103 80.4812C78.1305 82.3666 77.8922 85.0194 77.8922 85.0194C77.8922 85.0194 73.9289 80.8191 72.4573 79.7262C70.9857 78.6334 71.7842 75.3466 71.7842 75.3466C71.7842 75.3466 68.8577 72.4852 68.7365 71.7552C68.6152 71.0253 65.0783 63.3004 64.8944 61.7779C64.7104 60.2555 65.9312 57.0312 66.6001 56.4264C67.269 55.8216 70.7474 54.9623 72.8712 55.3294C74.995 55.6965 78.3856 57.8404 78.9332 58.6329Z" fill="#263238" stroke="#263238" stroke-width="0.85735" stroke-linecap="round" stroke-linejoin="round"/>
<path d="M76.3708 59.9092C76.3708 59.9092 79.0548 63.317 79.2973 64.1679C79.5398 65.0188 78.5657 67.5757 78.4612 68.5475C78.3566 69.5194 78.0974 71.9553 76.7554 73.4736C75.4134 74.9919 73.8289 76.8105 72.7921 76.8814C71.7553 76.9523 67.9718 74.3287 67.6666 73.7197C67.3614 73.1107 68.2184 65.2607 68.3982 64.8353C68.578 64.4098 74.2386 61.6736 76.3708 59.9092Z" fill="white" stroke="#263238" stroke-width="0.85735" stroke-linecap="round" stroke-linejoin="round"/>
<path d="M76.3893 67.9889C76.2889 68.3309 76.3684 68.6479 76.5607 68.7063C76.753 68.7647 76.9788 68.5311 77.0916 68.1932C77.2045 67.8554 77.1125 67.5342 76.916 67.48C76.7195 67.4257 76.4854 67.651 76.3893 67.9889Z" fill="#263238"/>
<path d="M72.2977 67.2838C72.2016 67.6258 72.2977 67.9428 72.4732 68.0012C72.6487 68.0596 72.891 67.826 72.9996 67.4882C73.1083 67.1503 73.0205 66.8291 72.8283 66.7749C72.6361 66.7207 72.3896 66.9459 72.2977 67.2838Z" fill="#263238"/>
<path d="M74.6619 65.8114C74.7873 65.4151 73.7296 64.3181 71.6727 65.6904" stroke="#263238" stroke-width="0.85735" stroke-linecap="round" stroke-linejoin="round"/>
<path d="M76.4347 66.0073C76.5894 66.0073 77.7935 65.6736 78.2617 66.6163" stroke="#263238" stroke-width="0.85735" stroke-linecap="round" stroke-linejoin="round"/>
<path d="M75.6406 70.9795C75.6406 70.9795 75.2226 71.4684 74.1774 71.1633" stroke="#263238" stroke-width="0.85735" stroke-linecap="round" stroke-linejoin="round"/>
<path d="M74.7852 72.9275C74.259 72.9977 73.7236 72.9404 73.2243 72.7603C72.7251 72.5802 72.2767 72.2828 71.9172 71.8931" stroke="#263238" stroke-width="0.85735" stroke-linecap="round" stroke-linejoin="round"/>
<path d="M53.0831 114.847C53.0831 114.847 50.0312 114.722 48.568 114.055C47.1047 113.387 45.2234 111.377 45.0938 110.163C44.9642 108.949 45.5119 104.261 46.0094 102.98C46.5069 101.7 47.8991 98.3589 47.8991 98.3589C47.8991 98.3589 57.0465 87.6975 57.4102 87.5891C57.7739 87.4806 58.6309 87.9561 59.0574 89.0489C59.4838 90.1418 56.967 103.285 55.763 107.364C54.9985 109.903 54.1041 112.4 53.0831 114.847Z" fill="#263238" stroke="#263238" stroke-width="0.85735" stroke-linecap="round" stroke-linejoin="round"/>
<path d="M65.8833 80.6562C65.8833 80.6562 66.7989 89.2946 65.8248 96.8985C64.8507 104.502 64.4828 118.25 64.4828 118.25C64.4828 118.25 59.2402 118.801 56.3137 118.313C53.3872 117.825 51.8612 116.916 51.8612 116.916C51.8612 116.916 54.8462 104.14 55.9458 101.22C57.0453 98.3 57.5303 90.938 57.5303 90.938C57.5303 90.938 56.9199 80.2892 57.2251 79.4383C57.5303 78.5874 59.5454 78.2829 59.5454 78.2829C59.5454 78.2829 64.9719 78.2203 65.8833 80.6562Z" fill="#03D64F" stroke="#263238" stroke-width="0.85735" stroke-linecap="round" stroke-linejoin="round"/>
<path d="M62.0449 78.5208C62.0449 78.5208 63.3242 79.6761 63.3242 83.572C63.3242 87.4678 59.85 94.3376 58.508 96.6526C57.166 98.9675 55.0924 102.734 55.0924 102.734L55.2136 99.9978C55.2136 99.9978 59.4821 92.5732 60.7614 87.6471C61.5103 84.6522 61.1865 81.4903 59.8459 78.7085L62.0449 78.5208Z" fill="#263238" stroke="#263238" stroke-width="0.85735" stroke-linecap="round" stroke-linejoin="round"/>
<path d="M69.7227 60.8229C69.7227 60.8229 68.6273 69.3987 68.2594 74.0245C68.0579 77.545 68.0662 81.0745 68.2845 84.5941C66.2988 83.5731 64.5465 82.1529 63.138 80.4229C62.1012 79.1299 60.0903 78.7211 59.8478 78.7211C59.6053 78.7211 58.7483 78.6586 58.7483 78.6586C58.7483 78.6586 60.3955 69.8367 61.3696 65.945C62.3437 62.0534 63.6314 58.3703 64.4173 57.4902C65.1673 56.753 66.1344 56.2749 67.1766 56.1262" fill="#263238"/>
<path d="M69.7227 60.8229C69.7227 60.8229 68.6273 69.3987 68.2594 74.0245C68.0579 77.545 68.0662 81.0745 68.2845 84.5941C66.2988 83.5731 64.5465 82.1529 63.138 80.4229C62.1012 79.1299 60.0903 78.7211 59.8478 78.7211C59.6053 78.7211 58.7483 78.6586 58.7483 78.6586C58.7483 78.6586 60.3955 69.8367 61.3696 65.945C62.3437 62.0534 63.6314 58.3703 64.4173 57.4902C65.1673 56.753 66.1344 56.2749 67.1766 56.1262" stroke="#263238" stroke-width="0.85735" stroke-linecap="round" stroke-linejoin="round"/>
<path d="M71.7969 78.646L71.7384 81.3238" stroke="#263238" stroke-width="0.85735" stroke-linecap="round" stroke-linejoin="round"/>
<path d="M58.8682 90.571L53.96 102.505L63.1367 111.681L61.3097 114.359C61.3097 114.359 46.2592 103.839 46.2592 103.293C46.2922 102.854 46.3952 102.423 46.5644 102.017C46.5644 102.017 53.4876 81.9326 53.9141 80.6563C54.3405 79.3799 57.6767 78.4664 58.3623 78.6458C58.8494 78.8081 59.3037 79.0553 59.7044 79.3757" fill="#03D64F"/>
<path d="M58.8682 90.571L53.96 102.505L63.1367 111.681L61.3097 114.359C61.3097 114.359 46.2592 103.839 46.2592 103.293C46.2922 102.854 46.3952 102.423 46.5644 102.017C46.5644 102.017 53.4876 81.9326 53.9141 80.6563C54.3405 79.3799 57.6767 78.4664 58.3623 78.6458C58.8494 78.8081 59.3037 79.0553 59.7044 79.3757" stroke="#263238" stroke-width="0.85735" stroke-linecap="round" stroke-linejoin="round"/>
<path d="M63.138 111.681L64.664 112.962C64.664 112.962 70.0278 114.722 70.333 115.331C70.6382 115.94 71.9175 118.13 71.9802 118.376C72.0033 118.56 71.9767 118.748 71.9032 118.919C71.8297 119.089 71.712 119.238 71.5621 119.348C71.257 119.469 70.6466 119.59 70.588 119.227C70.5295 118.864 70.7093 119.227 70.5253 118.86C70.3414 118.493 67.9626 117.037 67.9626 117.037C67.9626 117.037 65.4541 116.975 64.3044 116.366C63.5067 115.908 62.7985 115.31 62.2141 114.601L61.4239 113.871L63.138 111.681Z" fill="white" stroke="#263238" stroke-width="0.85735" stroke-linecap="round" stroke-linejoin="round"/>
<path d="M75.8242 96.6567L73.5666 99.0885" stroke="#263238" stroke-width="0.85735" stroke-linecap="round" stroke-linejoin="round"/>
<path d="M73.5625 97.8706L71.5516 99.5766" stroke="#263238" stroke-width="0.85735" stroke-linecap="round" stroke-linejoin="round"/>
<path d="M100.251 115.193L101.706 116.42C101.706 116.42 103.16 118.868 103.34 119.277C103.52 119.686 102.884 119.89 102.249 119.381C101.829 119.035 101.435 118.658 101.07 118.255C100.208 118.066 99.3584 117.827 98.524 117.542C98.1603 117.337 97.0733 115.602 97.0733 115.602" fill="white"/>
<path d="M100.251 115.193L101.706 116.42C101.706 116.42 103.16 118.868 103.34 119.277C103.52 119.686 102.884 119.89 102.249 119.381C101.829 119.035 101.435 118.658 101.07 118.255C100.208 118.066 99.3584 117.827 98.524 117.542C98.1603 117.337 97.0733 115.602 97.0733 115.602" stroke="#263238" stroke-width="0.85735" stroke-linecap="round" stroke-linejoin="round"/>
<path d="M101.232 181.677H104.723V143.874C104.687 141.499 105.124 139.141 106.01 136.936C106.896 134.732 108.212 132.725 109.882 131.033C111.553 129.341 113.544 127.997 115.74 127.079C117.935 126.162 120.292 125.69 122.673 125.69C125.053 125.69 127.41 126.162 129.606 127.079C131.802 127.997 133.793 129.341 135.463 131.033C137.134 132.725 138.45 134.732 139.336 136.936C140.222 139.141 140.659 141.499 140.623 143.874V181.677H144.109V143.874C144.109 138.201 141.851 132.761 137.83 128.749C133.81 124.738 128.357 122.484 122.671 122.484C116.985 122.484 111.532 124.738 107.511 128.749C103.491 132.761 101.232 138.201 101.232 143.874V181.677Z" fill="#03D64F" stroke="#263238" stroke-width="0.85735" stroke-linecap="round" stroke-linejoin="round"/>
<path d="M47.256 174.373L74.2969 170.181" stroke="#263238" stroke-width="0.85735" stroke-linecap="round" stroke-linejoin="round"/>
<path d="M72.6875 157.567L46.3281 159.227" stroke="#263238" stroke-width="0.85735" stroke-linecap="round" stroke-linejoin="round"/>
<path d="M75.2852 163.974C75.2852 163.779 75.227 163.588 75.1182 163.425C75.0093 163.263 74.8546 163.136 74.6735 163.061C74.4924 162.986 74.2932 162.967 74.101 163.005C73.9088 163.043 73.7323 163.137 73.5937 163.275C73.4551 163.414 73.3608 163.59 73.3225 163.782C73.2843 163.973 73.3039 164.172 73.3789 164.353C73.4539 164.533 73.5809 164.688 73.7439 164.796C73.9068 164.905 74.0984 164.963 74.2943 164.963C74.4244 164.963 74.5533 164.937 74.6735 164.888C74.7937 164.838 74.9029 164.765 74.995 164.673C75.087 164.582 75.1599 164.473 75.2097 164.353C75.2595 164.233 75.2852 164.104 75.2852 163.974Z" fill="#878787" stroke="#263238" stroke-width="0.85735" stroke-linecap="round" stroke-linejoin="round"/>
<path d="M117.258 160.341C117.258 159.576 117.031 158.829 116.605 158.193C116.179 157.557 115.574 157.062 114.865 156.769C114.157 156.476 113.378 156.4 112.626 156.549C111.874 156.698 111.184 157.066 110.642 157.607C110.1 158.148 109.731 158.837 109.581 159.587C109.432 160.337 109.508 161.114 109.802 161.821C110.095 162.527 110.592 163.131 111.229 163.556C111.866 163.981 112.616 164.208 113.382 164.208C114.41 164.208 115.396 163.8 116.123 163.075C116.849 162.35 117.258 161.367 117.258 160.341Z" fill="white" stroke="#263238" stroke-width="0.85735" stroke-linecap="round" stroke-linejoin="round"/>
<path d="M44.6407 139.381C40.4717 139.379 36.3957 140.61 32.9282 142.919C29.4607 145.228 26.7575 148.512 25.1606 152.354C23.5637 156.196 23.1448 160.424 23.9569 164.504C24.769 168.584 26.7756 172.331 29.7229 175.273C32.6703 178.215 36.4258 180.218 40.5146 181.03C44.6033 181.842 48.8416 181.426 52.6932 179.834C56.5448 178.242 59.8367 175.547 62.1525 172.088C64.4683 168.629 65.704 164.563 65.7031 160.404C65.702 154.83 63.4829 149.485 59.5334 145.543C55.5839 141.601 50.2272 139.385 44.6407 139.381ZM44.6407 178.035C41.1455 178.035 37.7289 177.001 34.8227 175.064C31.9166 173.126 29.6516 170.373 28.314 167.151C26.9765 163.929 26.6265 160.384 27.3084 156.964C27.9903 153.544 29.6733 150.402 32.1448 147.937C34.6163 145.471 37.7651 143.792 41.1931 143.111C44.6211 142.431 48.1743 142.78 51.4034 144.115C54.6325 145.449 57.3925 147.709 59.3343 150.608C61.2761 153.508 62.3126 156.917 62.3126 160.404C62.3131 162.719 61.8564 165.012 60.9685 167.152C60.0806 169.291 58.7789 171.235 57.1378 172.872C55.4967 174.509 53.5484 175.808 51.4041 176.694C49.2598 177.58 46.9616 178.036 44.6407 178.035Z" fill="#263238" stroke="#263238" stroke-width="0.85735" stroke-linecap="round" stroke-linejoin="round"/>
<path d="M113.538 139.381C109.37 139.381 105.295 140.615 101.829 142.925C98.3634 145.236 95.6622 148.52 94.0672 152.362C92.4722 156.205 92.0551 160.433 92.8686 164.512C93.6821 168.59 95.6897 172.337 98.6375 175.277C101.585 178.218 105.341 180.22 109.429 181.031C113.518 181.842 117.755 181.425 121.606 179.833C125.457 178.241 128.748 175.545 131.064 172.087C133.379 168.628 134.614 164.563 134.613 160.404C134.612 154.828 132.391 149.481 128.439 145.538C124.487 141.596 119.127 139.381 113.538 139.381ZM113.538 178.035C110.043 178.035 106.626 177.001 103.72 175.064C100.814 173.126 98.5492 170.373 97.2116 167.151C95.8741 163.929 95.5241 160.384 96.206 156.964C96.8879 153.544 98.571 150.402 101.042 147.937C103.514 145.471 106.663 143.792 110.091 143.111C113.519 142.431 117.072 142.78 120.301 144.115C123.53 145.449 126.29 147.709 128.232 150.608C130.174 153.508 131.21 156.917 131.21 160.404C131.211 162.719 130.754 165.012 129.866 167.152C128.978 169.291 127.677 171.235 126.035 172.872C124.394 174.509 122.446 175.808 120.302 176.694C118.157 177.58 115.859 178.036 113.538 178.035Z" fill="#263238" stroke="#263238" stroke-width="0.85735" stroke-linecap="round" stroke-linejoin="round"/>
<path d="M80.5211 163.974C80.5211 163.87 80.9141 163.753 80.9099 163.649C80.9057 163.545 80.4918 163.47 80.4918 163.365C80.4918 163.261 80.8639 163.107 80.8472 163.007C80.8304 162.906 80.4291 162.865 80.404 162.765C80.3789 162.665 80.7468 162.473 80.7217 162.348C80.6967 162.222 80.3037 162.252 80.2535 162.151C80.2033 162.051 80.5671 161.826 80.5336 161.734C80.5002 161.643 80.0905 161.684 80.0487 161.584C80.0068 161.484 80.3288 161.234 80.2828 161.138C80.2368 161.042 79.8354 161.138 79.7894 161.034C79.7435 160.929 80.0319 160.654 79.9776 160.566C79.9232 160.479 79.5302 160.6 79.4717 160.512C79.4132 160.425 79.6807 160.095 79.618 160.028C79.5553 159.962 79.1749 160.103 79.108 160.028C79.0411 159.953 79.2752 159.611 79.2041 159.532C79.1331 159.453 78.7861 159.653 78.6983 159.578C78.6105 159.503 78.8237 159.161 78.7443 159.073C78.6648 158.986 78.3262 159.236 78.2468 159.169C78.1673 159.102 78.3262 158.723 78.2468 158.66C78.1673 158.598 77.8496 158.865 77.7618 158.806C77.674 158.748 77.7994 158.356 77.7075 158.302C77.6155 158.247 77.3312 158.539 77.2392 158.493C77.1472 158.448 77.2392 158.043 77.1347 157.997C77.0302 157.951 76.7835 158.272 76.6874 158.231C76.5912 158.189 76.633 157.784 76.5369 157.747C76.4407 157.709 76.2108 158.055 76.1188 158.026C76.0268 157.997 76.0226 157.584 75.9223 157.559C75.822 157.534 75.6296 157.897 75.5293 157.88C75.429 157.864 75.3913 157.463 75.2868 157.434C75.1823 157.405 75.0276 157.801 74.9231 157.788C74.8186 157.776 74.7433 157.371 74.6388 157.371C74.5343 157.371 74.4214 157.759 74.3127 157.759C74.204 157.759 74.0953 157.367 73.9908 157.371C73.8863 157.376 73.8069 157.788 73.7023 157.788C73.5978 157.788 73.4473 157.417 73.3428 157.434C73.2383 157.451 73.2006 157.851 73.1003 157.88C73 157.909 72.8077 157.534 72.7073 157.559C72.607 157.584 72.607 157.997 72.5066 158.026C72.4063 158.055 72.1805 157.713 72.0886 157.747C71.9966 157.78 72.0342 158.189 71.9381 158.231C71.8419 158.272 71.5827 157.951 71.4865 157.997C71.3904 158.043 71.4866 158.443 71.3862 158.493C71.2859 158.543 71.0058 158.247 70.9138 158.302C70.8218 158.356 70.9472 158.748 70.8636 158.806C70.78 158.865 70.4455 158.602 70.3745 158.664C70.3034 158.727 70.4539 159.082 70.3745 159.169C70.295 159.257 69.9564 159.002 69.877 159.073C69.7975 159.144 69.9982 159.49 69.923 159.578C69.8477 159.665 69.5049 159.453 69.4171 159.532C69.3293 159.611 69.5801 159.949 69.5133 160.028C69.4464 160.108 69.0701 159.949 69.0074 160.028C68.9447 160.108 69.2081 160.445 69.1495 160.512C69.091 160.579 68.698 160.479 68.6437 160.566C68.5893 160.654 68.8861 160.942 68.836 161.038C68.7858 161.134 68.3845 161.038 68.3385 161.138C68.2925 161.238 68.6144 161.488 68.5726 161.584C68.5308 161.68 68.1253 161.638 68.0918 161.739C68.0584 161.839 68.4012 162.06 68.3677 162.156C68.3343 162.252 67.9288 162.252 67.9037 162.352C67.8786 162.452 68.2423 162.644 68.2214 162.744C68.2005 162.844 67.8033 162.886 67.7741 162.99C67.7448 163.094 68.142 163.244 68.1336 163.349C68.1253 163.453 67.7156 163.528 67.7156 163.632C67.7156 163.736 68.1085 163.853 68.1085 163.958C68.1085 164.062 67.7114 164.179 67.7156 164.283C67.7197 164.387 68.1336 164.462 68.1336 164.567C68.1336 164.671 67.7615 164.821 67.7741 164.925C67.7866 165.03 68.1921 165.067 68.2214 165.167C68.2507 165.267 67.8786 165.459 67.9037 165.584C67.9288 165.709 68.3218 165.68 68.3677 165.78C68.4137 165.88 68.0542 166.106 68.0918 166.197C68.1294 166.289 68.535 166.252 68.5726 166.348C68.6102 166.444 68.2925 166.702 68.3385 166.798C68.3845 166.894 68.7858 166.798 68.836 166.898C68.8861 166.998 68.5935 167.278 68.6478 167.37C68.7022 167.461 69.091 167.336 69.1495 167.424C69.2081 167.511 68.9447 167.841 69.0074 167.908C69.0701 167.974 69.4464 167.828 69.5133 167.908C69.5801 167.987 69.3502 168.325 69.4213 168.404C69.4923 168.483 69.8394 168.283 69.923 168.358C70.0066 168.433 69.8017 168.775 69.877 168.863C69.9522 168.95 70.295 168.7 70.3787 168.767C70.4623 168.834 70.295 169.209 70.3787 169.272C70.4623 169.334 70.7967 169.071 70.8678 169.13C70.9389 169.188 70.8302 169.58 70.918 169.634C71.0058 169.689 71.2984 169.393 71.3904 169.443C71.4824 169.493 71.3904 169.893 71.4907 169.939C71.5911 169.985 71.8461 169.664 71.9422 169.705C72.0384 169.747 71.9924 170.152 72.0928 170.189C72.1931 170.227 72.4147 169.881 72.5108 169.91C72.607 169.939 72.607 170.352 72.7115 170.377C72.816 170.402 73 170.035 73.1045 170.056C73.209 170.077 73.2425 170.473 73.347 170.502C73.4515 170.531 73.602 170.135 73.7065 170.147C73.811 170.16 73.8863 170.565 73.995 170.565C74.1037 170.565 74.2124 170.177 74.3169 170.177C74.4214 170.177 74.5385 170.569 74.643 170.565C74.7475 170.56 74.8228 170.147 74.9273 170.147C75.0318 170.147 75.1865 170.515 75.291 170.502C75.3955 170.49 75.429 170.085 75.5335 170.056C75.638 170.027 75.8261 170.402 75.9265 170.377C76.0268 170.352 76.0226 169.939 76.123 169.91C76.2233 169.881 76.4491 170.223 76.541 170.189C76.633 170.156 76.5954 169.743 76.6915 169.705C76.7877 169.668 77.0469 169.985 77.1389 169.939C77.2308 169.893 77.1389 169.493 77.2434 169.443C77.3479 169.393 77.6238 169.689 77.7116 169.634C77.7994 169.58 77.6782 169.188 77.766 169.13C77.8538 169.071 78.184 169.334 78.2509 169.272C78.3178 169.209 78.1757 168.834 78.2509 168.767C78.3262 168.7 78.669 168.93 78.7484 168.863C78.8279 168.796 78.6314 168.446 78.7025 168.358C78.7735 168.27 79.1205 168.479 79.2083 168.404C79.2961 168.329 79.0453 167.987 79.1122 167.908C79.1791 167.828 79.5595 167.987 79.6222 167.908C79.6849 167.828 79.4215 167.49 79.4759 167.42C79.5302 167.349 79.9274 167.457 79.9818 167.37C80.0361 167.282 79.7435 166.99 79.7936 166.898C79.8438 166.806 80.2451 166.898 80.287 166.798C80.3288 166.698 80.0152 166.448 80.0528 166.348C80.0905 166.247 80.5002 166.298 80.5378 166.197C80.5754 166.097 80.2284 165.876 80.2577 165.78C80.287 165.684 80.7008 165.684 80.7259 165.584C80.751 165.484 80.3873 165.292 80.4082 165.167C80.4291 165.042 80.8263 165.03 80.8513 164.925C80.8764 164.821 80.4834 164.671 80.496 164.567C80.5085 164.462 80.9141 164.387 80.9141 164.283C80.9141 164.179 80.5211 164.079 80.5211 163.974ZM74.3002 168.93C73.3179 168.93 72.3576 168.639 71.5408 168.094C70.7241 167.55 70.0875 166.776 69.7115 165.871C69.3356 164.965 69.2373 163.969 69.4289 163.008C69.6206 162.046 70.0936 161.163 70.7882 160.47C71.4828 159.777 72.3678 159.305 73.3312 159.114C74.2947 158.923 75.2933 159.021 76.2008 159.396C77.1084 159.771 77.8841 160.406 78.4298 161.221C78.9756 162.036 79.2669 162.994 79.2669 163.974C79.2674 164.625 79.1393 165.27 78.8899 165.871C78.6405 166.473 78.2747 167.019 77.8134 167.479C77.3521 167.94 76.8043 168.305 76.2015 168.553C75.5987 168.802 74.9526 168.93 74.3002 168.93Z" fill="#263238"/>
<path d="M70.6692 164.819C70.1933 162.815 71.4358 160.805 73.4444 160.331C75.453 159.856 77.467 161.095 77.943 163.099C78.4189 165.103 77.1764 167.113 75.1678 167.588C73.1592 168.062 71.1452 166.823 70.6692 164.819Z" fill="#263238"/>
<path d="M63.5616 131.08L64.7617 131.885L45.2455 160.818L44.0454 160.013L63.5616 131.08Z" fill="#FF6600" stroke="#263238" stroke-width="0.85735" stroke-linecap="round" stroke-linejoin="round"/>
<path d="M104.051 138.497L100.062 127.852L98.2563 128.528L98.4988 129.183L64.7061 130.489L61.6876 121.133L59.8523 121.721L73.0132 162.506L74.8192 161.943L74.3259 162.464L75.7348 163.77L101.346 136.766L102.249 139.173L104.051 138.497ZM74.8443 161.901L65.3207 132.391L99.2095 131.077L100.589 134.751L74.8443 161.901Z" fill="#FF6600" stroke="#263238" stroke-width="0.85735" stroke-linecap="round" stroke-linejoin="round"/>
<path d="M44.6118 160.059L74.3945 163.014L74.2038 164.928L44.421 161.972L44.6118 160.059Z" fill="#FF6600"/>
<path d="M56.1371 118.93L57.4582 120.328L62.6799 120.62L65.4727 118.2" fill="#757575"/>
<path d="M56.1371 118.93L57.4582 120.328L62.6799 120.62L65.4727 118.2" stroke="#263238" stroke-width="0.85735" stroke-linecap="round" stroke-linejoin="round"/>
<path d="M58.5553 120.62L58.7769 121.721H59.8513L61.6867 121.133L61.9375 120.62H58.5553Z" fill="#757575" stroke="#263238" stroke-width="0.85735" stroke-linecap="round" stroke-linejoin="round"/>
<path d="M52.6005 116.732C52.6517 117.159 52.7498 117.579 52.8932 117.984C53.0437 118.205 56.2043 119.744 59.2939 119.377C62.3834 119.01 64.0724 118.718 65.983 118.718C67.8936 118.718 69.1436 119.744 69.2899 119.01C69.4363 118.276 67.233 117.104 66.1293 117.028C65.0256 116.953 61.0539 117.471 59.0681 117.471C57.0823 117.471 52.3246 115.485 52.6005 116.732Z" fill="#263238" stroke="#263238" stroke-width="0.85735" stroke-linecap="round" stroke-linejoin="round"/>
<path d="M113.535 158.681L107.925 150.927L104.053 138.497L100.065 127.853L98.2589 128.528L98.5014 129.183L64.7087 130.489L63.9729 128.207L62.1417 128.808L73.0116 162.506L74.8176 161.943L74.3243 162.464L75.7332 163.77L101.344 136.766L102.247 139.173C102.247 139.173 106.223 150.773 106.608 151.39C106.951 151.937 111.177 157.91 112.193 159.34C111.954 159.646 111.825 160.024 111.829 160.412C111.833 160.8 111.968 161.175 112.213 161.476C112.458 161.777 112.799 161.987 113.178 162.07C113.558 162.153 113.955 162.105 114.304 161.935C114.653 161.764 114.934 161.48 115.1 161.129C115.267 160.778 115.309 160.382 115.22 160.004C115.131 159.626 114.917 159.29 114.612 159.05C114.306 158.809 113.928 158.679 113.539 158.681H113.535ZM74.8427 161.901L65.319 132.391L99.2079 131.077L100.588 134.752L74.8427 161.901Z" fill="#FF6600" stroke="#263238" stroke-width="0.85735" stroke-linecap="round" stroke-linejoin="round"/>
<path d="M98.2564 128.528L95.4052 121.158L97.3241 120.361L100.062 127.852L98.2564 128.528Z" fill="white" stroke="#263238" stroke-width="0.85735" stroke-linecap="round" stroke-linejoin="round"/>
<path d="M97.3246 120.361L101.886 118.714C102.044 118.642 102.216 118.603 102.39 118.6C102.564 118.597 102.737 118.629 102.898 118.695C103.059 118.761 103.204 118.86 103.326 118.984C103.447 119.108 103.542 119.256 103.604 119.418C103.72 119.723 103.715 120.06 103.59 120.361C103.465 120.662 103.229 120.904 102.931 121.037L98.2945 122.705L97.3246 120.361Z" fill="white" stroke="#263238" stroke-width="0.85735" stroke-linecap="round" stroke-linejoin="round"/>
<path d="M99.0579 128.749C98.822 128.746 98.5954 128.657 98.421 128.498C98.2466 128.34 98.1363 128.123 98.1111 127.889C98.0859 127.655 98.1475 127.42 98.2842 127.228C98.4209 127.036 98.6232 126.9 98.8531 126.847L109.067 124.616C109.538 124.479 109.947 124.181 110.22 123.773C110.493 123.366 110.614 122.876 110.561 122.389C110.508 121.901 110.285 121.448 109.931 121.109C109.576 120.769 109.114 120.565 108.623 120.532H102.444C102.312 120.541 102.18 120.522 102.056 120.478C101.931 120.434 101.817 120.364 101.721 120.274C101.624 120.184 101.547 120.075 101.495 119.954C101.442 119.833 101.415 119.703 101.415 119.571C101.415 119.439 101.442 119.308 101.495 119.187C101.547 119.066 101.624 118.957 101.721 118.867C101.817 118.777 101.931 118.708 102.056 118.663C102.18 118.619 102.312 118.601 102.444 118.609H108.623C109.601 118.621 110.54 118.99 111.264 119.647C111.988 120.303 112.445 121.2 112.551 122.17C112.656 123.14 112.402 124.115 111.837 124.91C111.271 125.706 110.433 126.267 109.48 126.488L99.267 128.72C99.1987 128.738 99.1285 128.748 99.0579 128.749Z" fill="#263238"/>
<path d="M106.222 118.905C106.222 118.905 109.249 118.488 110.541 117.216C111.833 115.944 111.741 114.951 111.92 115.039C112.1 115.126 114.057 117.959 114.103 118.772C114.149 119.585 113.969 120.903 114.145 122.059C114.32 123.214 114.901 123.836 115.215 123.923C115.528 124.011 115.658 124.637 115.39 124.637C115.123 124.637 114.237 124.637 113.718 122.459C113.2 120.282 114.136 119.306 113.271 118.951C112.405 118.597 111.093 119.881 111.047 120.015C111.001 120.148 107.957 118.818 106.222 118.905Z" fill="#263238" stroke="#263238" stroke-width="0.85735" stroke-linecap="round" stroke-linejoin="round"/>
<path d="M48.8281 160.404C48.8281 159.579 48.5829 158.772 48.1235 158.086C47.6642 157.401 47.0112 156.866 46.2473 156.55C45.4834 156.234 44.6428 156.152 43.8318 156.313C43.0208 156.474 42.2759 156.871 41.6912 157.454C41.1065 158.038 40.7083 158.781 40.547 159.59C40.3857 160.399 40.4685 161.238 40.7849 162C41.1014 162.762 41.6372 163.414 42.3247 163.872C43.0122 164.33 43.8205 164.575 44.6474 164.575C45.7562 164.575 46.8196 164.135 47.6036 163.353C48.3876 162.571 48.8281 161.51 48.8281 160.404Z" fill="white" stroke="#263238" stroke-width="0.85735" stroke-linecap="round" stroke-linejoin="round"/>
<path d="M40.7124 161.455L40.0184 162.765L45.1816 167.069L45.9508 166.76C46.2166 167.391 46.3228 168.077 46.2602 168.758C46.1849 170.01 45.1063 174.757 45.1063 174.757L47.2636 174.373C47.3923 173.976 47.4182 173.552 47.3388 173.142C47.2096 172.793 46.9647 172.499 46.6448 172.308L48.1875 167.62L46.6448 164.312C46.6448 164.312 45.1816 163.082 44.1029 162.777C43.0243 162.473 40.7124 161.455 40.7124 161.455Z" fill="#263238" stroke="#263238" stroke-width="0.85735" stroke-linecap="round" stroke-linejoin="round"/>
<path d="M72.912 164.996L69.7681 153.897L70.8843 153.555L75.5207 164.054C75.6082 164.298 75.5953 164.566 75.4848 164.801C75.3744 165.035 75.1753 165.216 74.9313 165.305L74.1746 165.576C73.93 165.665 73.6601 165.654 73.4236 165.546C73.1871 165.437 73.0032 165.24 72.912 164.996Z" fill="#263238" stroke="#263238" stroke-width="0.85735" stroke-linecap="round" stroke-linejoin="round"/>
<path d="M115.681 181.677H119.168V143.874C119.132 141.499 119.569 139.141 120.455 136.936C121.341 134.732 122.657 132.725 124.327 131.033C125.998 129.341 127.989 127.997 130.185 127.079C132.38 126.162 134.737 125.69 137.118 125.69C139.498 125.69 141.855 126.162 144.051 127.079C146.247 127.997 148.238 129.341 149.908 131.033C151.579 132.725 152.895 134.732 153.781 136.936C154.667 139.141 155.104 141.499 155.068 143.874V181.677H158.559V143.874C158.559 138.201 156.3 132.761 152.279 128.749C148.259 124.738 142.806 122.484 137.12 122.484C131.434 122.484 125.981 124.738 121.96 128.749C117.94 132.761 115.681 138.201 115.681 143.874V181.677Z" fill="#03D64F" stroke="#263238" stroke-width="0.85735" stroke-linecap="round" stroke-linejoin="round"/>
<path d="M130.138 181.677H133.629V143.874C133.593 141.499 134.03 139.141 134.916 136.936C135.802 134.732 137.118 132.725 138.789 131.033C140.459 129.341 142.45 127.997 144.646 127.079C146.842 126.162 149.198 125.69 151.579 125.69C153.96 125.69 156.316 126.162 158.512 127.079C160.708 127.997 162.699 129.341 164.369 131.033C166.04 132.725 167.356 134.732 168.242 136.936C169.128 139.141 169.565 141.499 169.529 143.874V181.677H173.016V143.874C173.016 141.065 172.461 138.284 171.384 135.688C170.306 133.093 168.727 130.735 166.736 128.749C164.746 126.763 162.382 125.187 159.781 124.113C157.18 123.038 154.392 122.484 151.577 122.484C148.762 122.484 145.974 123.038 143.373 124.113C140.772 125.187 138.408 126.763 136.417 128.749C134.427 130.735 132.848 133.093 131.77 135.688C130.693 138.284 130.138 141.065 130.138 143.874V181.677Z" fill="#03D64F" stroke="#263238" stroke-width="0.85735" stroke-linecap="round" stroke-linejoin="round"/>
<path d="M101.061 179.904H133.684V181.677H101.061V179.904Z" fill="white" stroke="#263238" stroke-width="0.85735" stroke-linecap="round" stroke-linejoin="round"/>
<path d="M140.464 179.904H173.086V181.677H140.464V179.904Z" fill="white" stroke="#263238" stroke-width="0.85735" stroke-linecap="round" stroke-linejoin="round"/>
<path d="M219.1 48.9153V47.3759C219.076 45.3618 218.738 43.3636 218.099 41.4532C216.482 36.4493 213.073 31.6733 209.129 29.401C206.62 27.9563 204.328 27.7774 202.574 28.6435L206.026 26.6693C206.876 26.1099 207.875 25.818 208.894 25.8312C209.055 25.8312 209.213 25.8312 209.382 25.8523C209.551 25.8733 209.713 25.8838 209.885 25.9119C210.056 25.9333 210.227 25.9649 210.394 26.0066C210.567 26.0451 210.746 26.0942 210.918 26.1468C211.288 26.257 211.651 26.3905 212.004 26.5466C212.187 26.6272 212.356 26.7184 212.559 26.8061L213.122 27.1112C218.622 30.2671 223.086 38.3323 223.086 45.0896V46.6325C223.086 53.3897 213.976 60.7361 213.976 60.7361L210.285 62.7874C210.351 62.7461 210.414 62.6992 210.472 62.6472C213.189 60.1575 219.1 54.1156 219.1 48.9153ZM208.205 34.703C208.172 34.8744 208.151 35.0478 208.141 35.222C208.138 35.2815 208.138 35.3412 208.141 35.4008C208.136 35.5048 208.136 35.6089 208.141 35.7129C208.141 38.8688 210.37 42.7261 213.129 44.3216C213.231 44.3777 213.326 44.4303 213.428 44.4794C213.53 44.5285 213.624 44.5776 213.719 44.6197L214.011 44.7354H214.036C213.607 47.162 211.575 48.0071 209.136 46.6079C206.384 45.0194 204.156 41.1657 204.156 37.9922C204.149 35.1939 205.903 33.8614 208.222 34.703H208.205Z" fill="#FF6600"/>
<path opacity="0.2" d="M208.22 34.703C208.187 34.8744 208.166 35.0478 208.157 35.222C208.153 35.2815 208.153 35.3412 208.157 35.4008C208.151 35.5047 208.151 35.6089 208.157 35.7129C208.157 38.8688 210.385 42.7261 213.144 44.3216C213.246 44.3777 213.341 44.4303 213.443 44.4794C213.545 44.5285 213.64 44.5776 213.734 44.6197L214.026 44.7354H214.051C213.622 47.162 211.591 48.0071 209.151 46.6079C206.399 45.0194 204.171 41.1657 204.171 37.9922C204.146 35.1939 205.9 33.8614 208.22 34.703Z" fill="black"/>
<path d="M199.158 35.8915C199.158 29.1343 203.622 26.2238 209.126 29.3938C214.63 32.5637 219.09 40.6149 219.09 47.3722V48.9116C219.09 54.1189 213.182 60.1573 210.465 62.661C210.311 62.801 210.127 62.9033 209.927 62.9601C209.726 63.0168 209.516 63.0264 209.311 62.9879C209.107 62.9495 208.914 62.8642 208.748 62.7387C208.582 62.6132 208.448 62.4509 208.356 62.2647C206.008 57.4712 199.169 43.031 199.169 37.4309L199.158 35.8915ZM209.129 46.6147C211.881 48.1997 214.113 46.9163 214.113 43.7463C214.113 40.5763 211.881 36.7331 209.129 35.1341C206.377 33.5351 204.145 34.836 204.145 38.006C204.145 41.176 206.377 45.0297 209.129 46.6147Z" fill="#FF6600"/>
<path opacity="0.2" d="M199.158 35.8915C199.158 29.1343 203.622 26.2238 209.126 29.3938C214.63 32.5637 219.09 40.6149 219.09 47.3722V48.9116C219.09 54.1189 213.182 60.1573 210.465 62.661C210.311 62.801 210.127 62.9033 209.927 62.9601C209.726 63.0168 209.516 63.0264 209.311 62.9879C209.107 62.9495 208.914 62.8642 208.748 62.7387C208.582 62.6132 208.448 62.4509 208.356 62.2647C206.008 57.4712 199.169 43.031 199.169 37.4309L199.158 35.8915ZM209.129 46.6147C211.881 48.1997 214.113 46.9163 214.113 43.7463C214.113 40.5763 211.881 36.7331 209.129 35.1341C206.377 33.5351 204.145 34.836 204.145 38.006C204.145 41.176 206.377 45.0297 209.129 46.6147Z" fill="white"/>
<path d="M202.571 28.6365L206.023 26.6693C206.873 26.1099 207.872 25.818 208.891 25.8312C209.052 25.8312 209.21 25.8312 209.379 25.8523C209.546 25.8637 209.713 25.8836 209.878 25.9119C210.051 25.9329 210.222 25.9646 210.391 26.0066C210.564 26.0451 210.743 26.0942 210.915 26.1468C211.285 26.257 211.648 26.3905 212.001 26.5466C212.184 26.6272 212.353 26.7184 212.556 26.8061L213.119 27.1112C216.841 29.2572 220.081 33.6335 221.793 38.3323L217.807 40.6256C216.096 35.9303 212.848 31.554 209.126 29.4045C206.617 27.9492 204.325 27.7704 202.571 28.6365Z" fill="#FF6600"/>
<path opacity="0.5" d="M202.571 28.6365L206.023 26.6693C206.873 26.1099 207.872 25.818 208.891 25.8312C209.052 25.8312 209.21 25.8312 209.379 25.8523C209.546 25.8637 209.713 25.8836 209.878 25.9119C210.051 25.9329 210.222 25.9646 210.391 26.0066C210.564 26.0451 210.743 26.0942 210.915 26.1468C211.285 26.257 211.648 26.3905 212.001 26.5466C212.184 26.6272 212.353 26.7184 212.556 26.8061L213.119 27.1112C216.841 29.2572 220.081 33.6335 221.793 38.3323L217.807 40.6256C216.096 35.9303 212.848 31.554 209.126 29.4045C206.617 27.9492 204.325 27.7704 202.571 28.6365Z" fill="white"/>
<path d="M209.127 29.3939L209.707 29.8007C209.907 29.9282 210.101 30.0663 210.287 30.2145C210.638 30.5195 211.042 30.7931 211.38 31.1332C211.717 31.4733 212.083 31.7714 212.399 32.1256L212.902 32.6305L213.359 33.1776C215.779 36.1194 217.521 39.5564 218.462 43.245C218.588 43.7009 218.659 44.1708 218.761 44.6477C218.863 45.1246 218.891 45.5875 218.961 46.0503C219.031 46.5132 219.028 46.9971 219.052 47.474L219.095 48.9047L219.137 47.474C219.137 46.9971 219.137 46.5167 219.137 46.0398C219.137 45.5629 219.052 45.0825 218.982 44.6091C218.912 44.1357 218.834 43.6623 218.722 43.2065C217.866 39.4459 216.095 35.9535 213.566 33.0373C212.314 31.5707 210.811 30.3371 209.127 29.3939Z" fill="#FAFAFA"/>
</svg>
