<svg width="477" height="453" viewBox="0 0 477 453" fill="none" xmlns="http://www.w3.org/2000/svg">
<path d="M421.279 64.8309C421.279 64.4966 421.22 64.1327 421.211 63.7492C421.112 55.5286 418.064 49.8449 410.62 45.528C396.676 37.4253 388.584 45.528 384.532 52.726C380.481 59.9241 374.188 48.2224 364.285 49.5695C354.383 50.9167 354.845 61.7236 352.141 67.5646C349.437 73.4056 343.596 65.7651 335.946 67.1221C328.295 68.4791 327.853 72.9631 326.496 74.7626C325.139 76.5621 313.004 72.0682 306.259 75.6672C301.958 78.1418 298.389 81.7109 295.914 86.0119H443.464C443.464 86.0119 445.263 75.1952 439.422 71.1734C434.171 67.5351 422.292 73.3564 421.279 64.8309Z" stroke="#263238" stroke-linecap="round" stroke-linejoin="round"/>
<path d="M352.839 78.2731C352.339 78.4016 351.873 78.6364 351.472 78.9614C349.574 80.6233 349.574 81.8131 349.574 81.8131" stroke="#263238" stroke-linecap="round" stroke-linejoin="round"/>
<path d="M385.384 64.3195C384.067 67.1909 382.906 70.3474 380.202 71.606C376.338 73.4154 372.719 69.3345 369.149 68.4102C368.143 68.0819 367.061 68.0719 366.049 68.3817C365.037 68.6914 364.145 69.3057 363.495 70.1409C361.883 71.9797 361.863 76.1392 359.749 77.3192C358.456 77.8214 357.072 78.0427 355.688 77.9682" stroke="#263238" stroke-linecap="round" stroke-linejoin="round"/>
<path d="M429.302 77.6044C429.194 77.3487 429.086 77.0832 428.958 76.8374C426.126 71.1734 419.419 75.7262 415.289 74.143C411.631 72.727 412.831 66.9352 412.339 63.9065C411.356 58.0065 404.03 53.5913 398.278 54.4862C394.027 55.2182 390.185 57.4642 387.461 60.809" stroke="#263238" stroke-linecap="round" stroke-linejoin="round"/>
<path d="M430.464 82.8063C430.359 81.8141 430.195 80.829 429.973 79.8563" stroke="#263238" stroke-linecap="round" stroke-linejoin="round"/>
<path d="M124.104 94.3899C124.088 94.1378 124.088 93.8849 124.104 93.6327C124.035 87.8999 121.902 83.9371 116.71 80.9182C106.975 75.264 101.33 80.9182 98.4982 85.9431C95.6662 90.9679 91.2805 82.8062 84.3775 83.7404C77.4745 84.6746 77.7793 92.2167 75.9012 96.2976C74.023 100.378 69.9323 95.0487 64.5928 95.9927C59.2533 96.9367 58.9485 100.074 58.0045 101.322C57.0605 102.571 48.5841 99.4442 43.8739 101.952C40.8747 103.68 38.385 106.17 36.6562 109.169H139.582C139.582 109.169 140.831 101.637 136.76 98.8149C133.092 96.2779 124.802 100.329 124.104 94.3899Z" stroke="#263238" stroke-linecap="round" stroke-linejoin="round"/>
<path d="M76.303 103.781C75.9444 103.869 75.609 104.033 75.3197 104.263C73.9922 105.433 73.9922 106.229 73.9922 106.229" stroke="#263238" stroke-linecap="round" stroke-linejoin="round"/>
<path d="M99.047 94.0064C98.1325 95.9731 97.3262 98.2053 95.4283 99.0903C92.734 100.349 90.2068 97.5071 87.719 96.8581C87.0186 96.6306 86.265 96.6247 85.5611 96.8411C84.8572 97.0576 84.2372 97.4859 83.7856 98.0676C82.6646 99.346 82.645 102.257 81.17 103.073C80.2665 103.427 79.297 103.581 78.3281 103.525" stroke="#263238" stroke-linecap="round" stroke-linejoin="round"/>
<path d="M129.7 103.309C129.621 103.122 129.542 102.945 129.454 102.778C127.487 98.8445 122.797 102.001 119.925 100.89C117.359 99.9065 118.204 95.865 117.86 93.7509C117.192 89.6602 112.058 86.543 108.027 87.1723C105.049 87.6779 102.355 89.2466 100.445 91.5875" stroke="#263238" stroke-linecap="round" stroke-linejoin="round"/>
<path d="M130.508 106.937C130.438 106.233 130.323 105.533 130.164 104.843" stroke="#263238" stroke-linecap="round" stroke-linejoin="round"/>
<g opacity="0.3">
<path d="M124.102 208.899H116.934V215.222H124.102V208.899Z" stroke="black" stroke-miterlimit="10"/>
<path d="M112.088 212.734H109.188V215.232H112.088V212.734Z" stroke="black" stroke-miterlimit="10"/>
<path d="M403.665 248.842H376.495V198.653H378.315V193.451H314.653V198.653H316.856V273.308H300.159V113.132H242.909V234.26H221.974V220.857H227.461V215.183H181.677V133.92H184.647V129.672H129.078V133.92H133.061V215.321H89.1451V273.534H66.0859" stroke="black" stroke-miterlimit="10"/>
<path d="M302.451 111.382H240.363V113.122H302.451V111.382Z" stroke="black" stroke-miterlimit="10"/>
<path d="M145.027 138.65H138.035V145.209H145.027V138.65Z" stroke="black" stroke-miterlimit="10"/>
<path d="M155.284 138.65H148.293V145.209H155.284V138.65Z" stroke="black" stroke-miterlimit="10"/>
<path d="M165.542 138.65H158.551V145.209H165.542V138.65Z" stroke="black" stroke-miterlimit="10"/>
<path d="M175.796 138.65H168.805V145.209H175.796V138.65Z" stroke="black" stroke-miterlimit="10"/>
<path d="M145.027 149.044H138.035V155.602H145.027V149.044Z" stroke="black" stroke-miterlimit="10"/>
<path d="M155.284 149.044H148.293V155.603H155.284V149.044Z" stroke="black" stroke-miterlimit="10"/>
<path d="M165.542 149.044H158.551V155.603H165.542V149.044Z" stroke="black" stroke-miterlimit="10"/>
<path d="M175.796 149.044H168.805V155.602H175.796V149.044Z" stroke="black" stroke-miterlimit="10"/>
<path d="M145.027 159.438H138.035V165.996H145.027V159.438Z" stroke="black" stroke-miterlimit="10"/>
<path d="M155.284 159.438H148.293V165.996H155.284V159.438Z" stroke="black" stroke-miterlimit="10"/>
<path d="M165.542 159.438H158.551V165.996H165.542V159.438Z" stroke="black" stroke-miterlimit="10"/>
<path d="M175.796 159.438H168.805V165.996H175.796V159.438Z" stroke="black" stroke-miterlimit="10"/>
<path d="M145.027 169.831H138.035V176.39H145.027V169.831Z" stroke="black" stroke-miterlimit="10"/>
<path d="M155.284 169.831H148.293V176.39H155.284V169.831Z" stroke="black" stroke-miterlimit="10"/>
<path d="M165.542 169.831H158.551V176.39H165.542V169.831Z" stroke="black" stroke-miterlimit="10"/>
<path d="M175.796 169.831H168.805V176.39H175.796V169.831Z" stroke="black" stroke-miterlimit="10"/>
<path d="M145.027 180.225H138.035V186.784H145.027V180.225Z" stroke="black" stroke-miterlimit="10"/>
<path d="M155.284 180.225H148.293V186.784H155.284V180.225Z" stroke="black" stroke-miterlimit="10"/>
<path d="M165.542 180.225H158.551V186.784H165.542V180.225Z" stroke="black" stroke-miterlimit="10"/>
<path d="M175.796 180.225H168.805V186.784H175.796V180.225Z" stroke="black" stroke-miterlimit="10"/>
<path d="M145.027 190.619H138.035V197.178H145.027V190.619Z" stroke="black" stroke-miterlimit="10"/>
<path d="M155.284 190.619H148.293V197.178H155.284V190.619Z" stroke="black" stroke-miterlimit="10"/>
<path d="M165.542 190.619H158.551V197.178H165.542V190.619Z" stroke="black" stroke-miterlimit="10"/>
<path d="M175.796 190.619H168.805V197.178H175.796V190.619Z" stroke="black" stroke-miterlimit="10"/>
<path d="M145.027 201.013H138.035V207.572H145.027V201.013Z" stroke="black" stroke-miterlimit="10"/>
<path d="M155.284 201.013H148.293V207.572H155.284V201.013Z" stroke="black" stroke-miterlimit="10"/>
<path d="M165.542 201.013H158.551V207.572H165.542V201.013Z" stroke="black" stroke-miterlimit="10"/>
<path d="M175.796 201.013H168.805V207.572H175.796V201.013Z" stroke="black" stroke-miterlimit="10"/>
<path d="M145.027 211.407H138.035V217.966H145.027V211.407Z" stroke="black" stroke-miterlimit="10"/>
<path d="M155.284 211.407H148.293V217.966H155.284V211.407Z" stroke="black" stroke-miterlimit="10"/>
<path d="M165.542 211.407H158.551V217.966H165.542V211.407Z" stroke="black" stroke-miterlimit="10"/>
<path d="M175.796 211.407H168.805V217.966H175.796V211.407Z" stroke="black" stroke-miterlimit="10"/>
<path d="M145.027 220.916H138.035V227.475H145.027V220.916Z" stroke="black" stroke-miterlimit="10"/>
<path d="M155.284 220.916H148.293V227.474H155.284V220.916Z" stroke="black" stroke-miterlimit="10"/>
<path d="M165.542 220.916H158.551V227.474H165.542V220.916Z" stroke="black" stroke-miterlimit="10"/>
<path d="M175.796 220.916H168.805V227.475H175.796V220.916Z" stroke="black" stroke-miterlimit="10"/>
<path d="M145.027 231.31H138.035V237.868H145.027V231.31Z" stroke="black" stroke-miterlimit="10"/>
<path d="M155.284 231.31H148.293V237.868H155.284V231.31Z" stroke="black" stroke-miterlimit="10"/>
<path d="M165.542 231.31H158.551V237.868H165.542V231.31Z" stroke="black" stroke-miterlimit="10"/>
<path d="M175.796 231.31H168.805V237.868H175.796V231.31Z" stroke="black" stroke-miterlimit="10"/>
<path d="M145.027 241.703H138.035V248.262H145.027V241.703Z" stroke="black" stroke-miterlimit="10"/>
<path d="M155.284 241.703H148.293V248.262H155.284V241.703Z" stroke="black" stroke-miterlimit="10"/>
<path d="M165.542 241.703H158.551V248.262H165.542V241.703Z" stroke="black" stroke-miterlimit="10"/>
<path d="M175.796 241.703H168.805V248.262H175.796V241.703Z" stroke="black" stroke-miterlimit="10"/>
<path d="M145.027 252.097H138.035V258.656H145.027V252.097Z" stroke="black" stroke-miterlimit="10"/>
<path d="M155.284 252.097H148.293V258.656H155.284V252.097Z" stroke="black" stroke-miterlimit="10"/>
<path d="M165.542 252.097H158.551V258.656H165.542V252.097Z" stroke="black" stroke-miterlimit="10"/>
<path d="M175.796 252.097H168.805V258.656H175.796V252.097Z" stroke="black" stroke-miterlimit="10"/>
<path d="M145.027 262.491H138.035V269.05H145.027V262.491Z" stroke="black" stroke-miterlimit="10"/>
<path d="M155.284 262.491H148.293V269.05H155.284V262.491Z" stroke="black" stroke-miterlimit="10"/>
<path d="M165.542 262.491H158.551V269.05H165.542V262.491Z" stroke="black" stroke-miterlimit="10"/>
<path d="M175.796 262.491H168.805V269.05H175.796V262.491Z" stroke="black" stroke-miterlimit="10"/>
<path d="M145.027 272.885H138.035V279.444H145.027V272.885Z" stroke="black" stroke-miterlimit="10"/>
<path d="M155.284 272.885H148.293V279.444H155.284V272.885Z" stroke="black" stroke-miterlimit="10"/>
<path d="M165.542 272.885H158.551V279.444H165.542V272.885Z" stroke="black" stroke-miterlimit="10"/>
<path d="M175.796 272.885H168.805V279.444H175.796V272.885Z" stroke="black" stroke-miterlimit="10"/>
<path d="M145.027 283.279H138.035V289.838H145.027V283.279Z" stroke="black" stroke-miterlimit="10"/>
<path d="M155.284 283.279H148.293V289.838H155.284V283.279Z" stroke="black" stroke-miterlimit="10"/>
<path d="M165.542 283.279H158.551V289.838H165.542V283.279Z" stroke="black" stroke-miterlimit="10"/>
<path d="M175.796 283.279H168.805V289.838H175.796V283.279Z" stroke="black" stroke-miterlimit="10"/>
<path d="M145.027 293.673H138.035V300.231H145.027V293.673Z" stroke="black" stroke-miterlimit="10"/>
<path d="M155.284 293.673H148.293V300.231H155.284V293.673Z" stroke="black" stroke-miterlimit="10"/>
<path d="M165.542 293.673H158.551V300.231H165.542V293.673Z" stroke="black" stroke-miterlimit="10"/>
<path d="M175.796 293.673H168.805V300.231H175.796V293.673Z" stroke="black" stroke-miterlimit="10"/>
<path d="M185.089 220.916H178.098V227.474H185.089V220.916Z" stroke="black" stroke-miterlimit="10"/>
<path d="M195.347 220.916H188.355V227.474H195.347V220.916Z" stroke="black" stroke-miterlimit="10"/>
<path d="M205.601 220.916H198.609V227.475H205.601V220.916Z" stroke="black" stroke-miterlimit="10"/>
<path d="M215.859 220.916H208.867V227.475H215.859V220.916Z" stroke="black" stroke-miterlimit="10"/>
<path d="M185.089 231.31H178.098V237.868H185.089V231.31Z" stroke="black" stroke-miterlimit="10"/>
<path d="M195.347 231.31H188.355V237.868H195.347V231.31Z" stroke="black" stroke-miterlimit="10"/>
<path d="M205.601 231.31H198.609V237.868H205.601V231.31Z" stroke="black" stroke-miterlimit="10"/>
<path d="M215.859 231.31H208.867V237.868H215.859V231.31Z" stroke="black" stroke-miterlimit="10"/>
<path d="M185.089 241.703H178.098V248.262H185.089V241.703Z" stroke="black" stroke-miterlimit="10"/>
<path d="M195.347 241.703H188.355V248.262H195.347V241.703Z" stroke="black" stroke-miterlimit="10"/>
<path d="M205.601 241.703H198.609V248.262H205.601V241.703Z" stroke="black" stroke-miterlimit="10"/>
<path d="M215.859 241.703H208.867V248.262H215.859V241.703Z" stroke="black" stroke-miterlimit="10"/>
<path d="M185.089 252.097H178.098V258.656H185.089V252.097Z" stroke="black" stroke-miterlimit="10"/>
<path d="M195.347 252.097H188.355V258.656H195.347V252.097Z" stroke="black" stroke-miterlimit="10"/>
<path d="M205.601 252.097H198.609V258.656H205.601V252.097Z" stroke="black" stroke-miterlimit="10"/>
<path d="M215.859 252.097H208.867V258.656H215.859V252.097Z" stroke="black" stroke-miterlimit="10"/>
<path d="M185.089 262.491H178.098V269.05H185.089V262.491Z" stroke="black" stroke-miterlimit="10"/>
<path d="M195.347 262.491H188.355V269.05H195.347V262.491Z" stroke="black" stroke-miterlimit="10"/>
<path d="M205.601 262.491H198.609V269.05H205.601V262.491Z" stroke="black" stroke-miterlimit="10"/>
<path d="M215.859 262.491H208.867V269.05H215.859V262.491Z" stroke="black" stroke-miterlimit="10"/>
<path d="M185.089 272.885H178.098V279.444H185.089V272.885Z" stroke="black" stroke-miterlimit="10"/>
<path d="M195.347 272.885H188.355V279.444H195.347V272.885Z" stroke="black" stroke-miterlimit="10"/>
<path d="M205.601 272.885H198.609V279.444H205.601V272.885Z" stroke="black" stroke-miterlimit="10"/>
<path d="M215.859 272.885H208.867V279.444H215.859V272.885Z" stroke="black" stroke-miterlimit="10"/>
<path d="M185.089 283.279H178.098V289.838H185.089V283.279Z" stroke="black" stroke-miterlimit="10"/>
<path d="M195.347 283.279H188.355V289.838H195.347V283.279Z" stroke="black" stroke-miterlimit="10"/>
<path d="M205.601 283.279H198.609V289.838H205.601V283.279Z" stroke="black" stroke-miterlimit="10"/>
<path d="M215.859 283.279H208.867V289.838H215.859V283.279Z" stroke="black" stroke-miterlimit="10"/>
<path d="M185.089 293.673H178.098V300.231H185.089V293.673Z" stroke="black" stroke-miterlimit="10"/>
<path d="M195.347 293.673H188.355V300.231H195.347V293.673Z" stroke="black" stroke-miterlimit="10"/>
<path d="M205.601 293.673H198.609V300.231H205.601V293.673Z" stroke="black" stroke-miterlimit="10"/>
<path d="M215.859 293.673H208.867V300.231H215.859V293.673Z" stroke="black" stroke-miterlimit="10"/>
<path d="M104.406 220.916H97.4141V227.474H104.406V220.916Z" stroke="black" stroke-miterlimit="10"/>
<path d="M114.663 220.916H107.672V227.474H114.663V220.916Z" stroke="black" stroke-miterlimit="10"/>
<path d="M124.917 220.916H117.926V227.475H124.917V220.916Z" stroke="black" stroke-miterlimit="10"/>
<path d="M135.175 220.916H128.184V227.475H135.175V220.916Z" stroke="black" stroke-miterlimit="10"/>
<path d="M104.406 231.31H97.4141V237.868H104.406V231.31Z" stroke="black" stroke-miterlimit="10"/>
<path d="M114.663 231.31H107.672V237.868H114.663V231.31Z" stroke="black" stroke-miterlimit="10"/>
<path d="M124.917 231.31H117.926V237.868H124.917V231.31Z" stroke="black" stroke-miterlimit="10"/>
<path d="M135.175 231.31H128.184V237.868H135.175V231.31Z" stroke="black" stroke-miterlimit="10"/>
<path d="M104.406 241.703H97.4141V248.262H104.406V241.703Z" stroke="black" stroke-miterlimit="10"/>
<path d="M114.663 241.703H107.672V248.262H114.663V241.703Z" stroke="black" stroke-miterlimit="10"/>
<path d="M124.917 241.703H117.926V248.262H124.917V241.703Z" stroke="black" stroke-miterlimit="10"/>
<path d="M135.175 241.703H128.184V248.262H135.175V241.703Z" stroke="black" stroke-miterlimit="10"/>
<path d="M104.406 252.097H97.4141V258.656H104.406V252.097Z" stroke="black" stroke-miterlimit="10"/>
<path d="M114.663 252.097H107.672V258.656H114.663V252.097Z" stroke="black" stroke-miterlimit="10"/>
<path d="M124.917 252.097H117.926V258.656H124.917V252.097Z" stroke="black" stroke-miterlimit="10"/>
<path d="M135.175 252.097H128.184V258.656H135.175V252.097Z" stroke="black" stroke-miterlimit="10"/>
<path d="M104.406 262.491H97.4141V269.05H104.406V262.491Z" stroke="black" stroke-miterlimit="10"/>
<path d="M114.663 262.491H107.672V269.05H114.663V262.491Z" stroke="black" stroke-miterlimit="10"/>
<path d="M124.917 262.491H117.926V269.05H124.917V262.491Z" stroke="black" stroke-miterlimit="10"/>
<path d="M135.175 262.491H128.184V269.05H135.175V262.491Z" stroke="black" stroke-miterlimit="10"/>
<path d="M104.406 272.885H97.4141V279.444H104.406V272.885Z" stroke="black" stroke-miterlimit="10"/>
<path d="M114.663 272.885H107.672V279.444H114.663V272.885Z" stroke="black" stroke-miterlimit="10"/>
<path d="M124.917 272.885H117.926V279.444H124.917V272.885Z" stroke="black" stroke-miterlimit="10"/>
<path d="M135.175 272.885H128.184V279.444H135.175V272.885Z" stroke="black" stroke-miterlimit="10"/>
<path d="M104.406 283.279H97.4141V289.838H104.406V283.279Z" stroke="black" stroke-miterlimit="10"/>
<path d="M114.663 283.279H107.672V289.838H114.663V283.279Z" stroke="black" stroke-miterlimit="10"/>
<path d="M124.917 283.279H117.926V289.838H124.917V283.279Z" stroke="black" stroke-miterlimit="10"/>
<path d="M135.175 283.279H128.184V289.838H135.175V283.279Z" stroke="black" stroke-miterlimit="10"/>
<path d="M104.406 293.673H97.4141V300.231H104.406V293.673Z" stroke="black" stroke-miterlimit="10"/>
<path d="M114.663 293.673H107.672V300.231H114.663V293.673Z" stroke="black" stroke-miterlimit="10"/>
<path d="M124.917 293.673H117.926V300.231H124.917V293.673Z" stroke="black" stroke-miterlimit="10"/>
<path d="M135.175 293.673H128.184V300.231H135.175V293.673Z" stroke="black" stroke-miterlimit="10"/>
<path d="M333.515 200.541H326.523V207.1H333.515V200.541Z" stroke="black" stroke-miterlimit="10"/>
<path d="M343.769 200.541H336.777V207.1H343.769V200.541Z" stroke="black" stroke-miterlimit="10"/>
<path d="M354.027 200.541H347.035V207.1H354.027V200.541Z" stroke="black" stroke-miterlimit="10"/>
<path d="M364.281 200.541H357.289V207.1H364.281V200.541Z" stroke="black" stroke-miterlimit="10"/>
<path d="M333.515 210.935H326.523V217.494H333.515V210.935Z" stroke="black" stroke-miterlimit="10"/>
<path d="M343.769 210.935H336.777V217.494H343.769V210.935Z" stroke="black" stroke-miterlimit="10"/>
<path d="M354.027 210.935H347.035V217.494H354.027V210.935Z" stroke="black" stroke-miterlimit="10"/>
<path d="M364.281 210.935H357.289V217.494H364.281V210.935Z" stroke="black" stroke-miterlimit="10"/>
<path d="M333.515 221.329H326.523V227.887H333.515V221.329Z" stroke="black" stroke-miterlimit="10"/>
<path d="M343.769 221.329H336.777V227.887H343.769V221.329Z" stroke="black" stroke-miterlimit="10"/>
<path d="M354.027 221.329H347.035V227.887H354.027V221.329Z" stroke="black" stroke-miterlimit="10"/>
<path d="M364.281 221.329H357.289V227.887H364.281V221.329Z" stroke="black" stroke-miterlimit="10"/>
<path d="M333.515 231.723H326.523V238.281H333.515V231.723Z" stroke="black" stroke-miterlimit="10"/>
<path d="M343.769 231.723H336.777V238.281H343.769V231.723Z" stroke="black" stroke-miterlimit="10"/>
<path d="M354.027 231.723H347.035V238.281H354.027V231.723Z" stroke="black" stroke-miterlimit="10"/>
<path d="M364.281 231.723H357.289V238.281H364.281V231.723Z" stroke="black" stroke-miterlimit="10"/>
<path d="M333.515 242.116H326.523V248.675H333.515V242.116Z" stroke="black" stroke-miterlimit="10"/>
<path d="M343.769 242.116H336.777V248.675H343.769V242.116Z" stroke="black" stroke-miterlimit="10"/>
<path d="M354.027 242.116H347.035V248.675H354.027V242.116Z" stroke="black" stroke-miterlimit="10"/>
<path d="M364.281 242.116H357.289V248.675H364.281V242.116Z" stroke="black" stroke-miterlimit="10"/>
<path d="M333.515 252.51H326.523V259.069H333.515V252.51Z" stroke="black" stroke-miterlimit="10"/>
<path d="M343.769 252.51H336.777V259.069H343.769V252.51Z" stroke="black" stroke-miterlimit="10"/>
<path d="M354.027 252.51H347.035V259.069H354.027V252.51Z" stroke="black" stroke-miterlimit="10"/>
<path d="M364.281 252.51H357.289V259.069H364.281V252.51Z" stroke="black" stroke-miterlimit="10"/>
<path d="M333.515 262.904H326.523V269.463H333.515V262.904Z" stroke="black" stroke-miterlimit="10"/>
<path d="M343.769 262.904H336.777V269.463H343.769V262.904Z" stroke="black" stroke-miterlimit="10"/>
<path d="M354.027 262.904H347.035V269.463H354.027V262.904Z" stroke="black" stroke-miterlimit="10"/>
<path d="M364.281 262.904H357.289V269.463H364.281V262.904Z" stroke="black" stroke-miterlimit="10"/>
<path d="M333.515 273.298H326.523V279.857H333.515V273.298Z" stroke="black" stroke-miterlimit="10"/>
<path d="M343.769 273.298H336.777V279.857H343.769V273.298Z" stroke="black" stroke-miterlimit="10"/>
<path d="M354.027 273.298H347.035V279.857H354.027V273.298Z" stroke="black" stroke-miterlimit="10"/>
<path d="M364.281 273.298H357.289V279.857H364.281V273.298Z" stroke="black" stroke-miterlimit="10"/>
<path d="M248.297 116.918V306.839" stroke="black" stroke-miterlimit="10"/>
<path d="M255.242 116.918V306.839" stroke="black" stroke-miterlimit="10"/>
<path d="M262.172 116.918V306.839" stroke="black" stroke-miterlimit="10"/>
<path d="M269.105 116.918V306.839" stroke="black" stroke-miterlimit="10"/>
<path d="M276.047 116.918V306.839" stroke="black" stroke-miterlimit="10"/>
<path d="M282.98 116.918V306.839" stroke="black" stroke-miterlimit="10"/>
<path d="M289.914 116.918V306.839" stroke="black" stroke-miterlimit="10"/>
<path d="M296.855 116.918V306.839" stroke="black" stroke-miterlimit="10"/>
</g>
<path d="M249.983 199.931C249.207 198.102 217.455 164.6 217.455 164.6L199.922 182.841L232.755 207.238C229.78 210.438 227.144 213.938 224.889 217.681C222.371 222.076 212.981 237.052 208.821 244.29V244.339C208.664 244.604 208.526 244.86 208.388 245.106L208.329 245.194C208.211 245.42 208.093 245.627 207.975 245.833L207.907 245.951L207.631 246.473C207.601 246.52 207.575 246.569 207.553 246.62L207.336 247.033C207.306 247.08 207.28 247.129 207.258 247.181L207.1 247.505L207.041 247.633C206.99 247.742 206.944 247.854 206.904 247.967C205.861 250.839 208.467 251.36 210.562 252.146C212.656 252.933 222.303 257.368 225.961 257.368C229.619 257.368 230.877 257.889 230.877 255.795C230.877 253.7 223.571 249.796 222.784 248.488C221.998 247.181 218.851 241.182 218.851 241.182C218.851 241.182 244.172 215.33 246.001 212.459C247.83 209.588 250.77 201.76 249.983 199.931Z" fill="#D4D4D4" stroke="#263238" stroke-linecap="round" stroke-linejoin="round"/>
<path d="M169.317 293.594C190.367 293.594 207.431 276.53 207.431 255.48C207.431 234.43 190.367 217.366 169.317 217.366C148.267 217.366 131.203 234.43 131.203 255.48C131.203 276.53 148.267 293.594 169.317 293.594Z" fill="#263238" stroke="#263238" stroke-linecap="round" stroke-linejoin="round"/>
<path d="M174.705 288.976C193.21 286.006 205.803 268.596 202.832 250.092C199.861 231.587 182.452 218.994 163.947 221.964C145.443 224.935 132.85 242.344 135.82 260.849C138.791 279.354 156.2 291.947 174.705 288.976Z" fill="white" stroke="#263238" stroke-linecap="round" stroke-linejoin="round"/>
<path d="M169.317 287.851C187.195 287.851 201.688 273.358 201.688 255.48C201.688 237.602 187.195 223.109 169.317 223.109C151.438 223.109 136.945 237.602 136.945 255.48C136.945 273.358 151.438 287.851 169.317 287.851Z" fill="white" stroke="#263238" stroke-linecap="round" stroke-linejoin="round"/>
<path d="M307.684 293.594C328.734 293.594 345.798 276.53 345.798 255.48C345.798 234.43 328.734 217.366 307.684 217.366C286.635 217.366 269.57 234.43 269.57 255.48C269.57 276.53 286.635 293.594 307.684 293.594Z" fill="#263238" stroke="#263238" stroke-linecap="round" stroke-linejoin="round"/>
<path d="M338.918 268.752C346.244 251.502 338.199 231.579 320.948 224.253C303.698 216.927 283.774 224.972 276.448 242.223C269.122 259.473 277.168 279.396 294.418 286.722C311.669 294.048 331.592 286.003 338.918 268.752Z" fill="white" stroke="#263238" stroke-linecap="round" stroke-linejoin="round"/>
<path d="M307.684 287.851C325.562 287.851 340.055 273.358 340.055 255.48C340.055 237.602 325.562 223.109 307.684 223.109C289.806 223.109 275.312 237.602 275.312 255.48C275.312 273.358 289.806 287.851 307.684 287.851Z" fill="white" stroke="#263238" stroke-linecap="round" stroke-linejoin="round"/>
<path d="M308.107 260.18C310.703 260.18 312.807 258.076 312.807 255.48C312.807 252.884 310.703 250.78 308.107 250.78C305.511 250.78 303.406 252.884 303.406 255.48C303.406 258.076 305.511 260.18 308.107 260.18Z" stroke="#263238" stroke-linecap="round" stroke-linejoin="round"/>
<path d="M196.645 185.86L222.831 259.138" stroke="#FF6600" stroke-width="4" stroke-miterlimit="10" stroke-linecap="round"/>
<path d="M308.933 257.171C299.788 247.525 276.483 184.08 272.549 173.194C272.383 172.736 272.37 172.237 272.512 171.77C272.653 171.304 272.943 170.896 273.336 170.608L282.245 164.099" stroke="#FF6600" stroke-width="4" stroke-miterlimit="10" stroke-linecap="round"/>
<path d="M170.301 253.838C170.301 253.838 188.079 198.555 277.533 189.105" stroke="#FF6600" stroke-width="4" stroke-miterlimit="10" stroke-linecap="round"/>
<path d="M235.82 257.722C235.82 257.722 250.265 254.388 259.991 238.557C269.716 222.725 277.494 208.27 284.161 204.661" stroke="#FF6600" stroke-width="4" stroke-miterlimit="10" stroke-linecap="round"/>
<path d="M183.517 177.03C183.517 177.03 183.251 183.992 185.129 186.135C187.008 188.279 199.054 188.544 204.678 187.738C210.303 186.932 212.712 184.788 212.181 183.185C211.65 181.582 202.81 175.958 196.644 175.417C190.479 174.876 183.792 174.64 183.517 177.03Z" fill="white" stroke="#263238" stroke-linecap="round" stroke-linejoin="round"/>
<path d="M273.926 153.547C273.926 153.547 294.763 156.32 298.922 171.601C303.082 186.882 289.207 194.11 280.593 194.11" stroke="#263238" stroke-linecap="round" stroke-linejoin="round"/>
<path d="M288.645 148.542C288.645 148.542 307.259 165.21 303.395 177.157C299.53 189.105 276.697 186.332 276.137 185.457" stroke="#263238" stroke-linecap="round" stroke-linejoin="round"/>
<path d="M231.445 248.695L166.447 250.779L165.66 257.83L229.882 270.102L231.445 248.695Z" fill="white" stroke="#263238" stroke-linecap="round" stroke-linejoin="round"/>
<path d="M229.884 270.112C235.798 270.112 240.593 265.318 240.593 259.403C240.593 253.489 235.798 248.695 229.884 248.695C223.97 248.695 219.176 253.489 219.176 259.403C219.176 265.318 223.97 270.112 229.884 270.112Z" fill="white" stroke="#263238" stroke-linecap="round" stroke-linejoin="round"/>
<path d="M249.481 254.113L231.113 258.273C230.804 258.343 230.513 258.48 230.261 258.672C230.009 258.864 229.801 259.109 229.651 259.388C229.501 259.667 229.412 259.976 229.392 260.292C229.371 260.609 229.418 260.926 229.53 261.223C229.632 261.494 229.787 261.743 229.986 261.955C230.185 262.167 230.424 262.338 230.689 262.457C230.953 262.577 231.239 262.643 231.53 262.652C231.82 262.662 232.109 262.613 232.381 262.511L252.54 254.949L249.481 254.113Z" fill="white" stroke="#263238" stroke-miterlimit="10" stroke-linecap="round"/>
<path d="M259.325 251.753H247.004V256.04H259.325V251.753Z" fill="white" stroke="#263238" stroke-miterlimit="10" stroke-linecap="round"/>
<path d="M169.32 262.265C173.067 262.265 176.105 259.227 176.105 255.48C176.105 251.733 173.067 248.695 169.32 248.695C165.573 248.695 162.535 251.733 162.535 255.48C162.535 259.227 165.573 262.265 169.32 262.265Z" fill="white" stroke="#263238" stroke-linecap="round" stroke-linejoin="round"/>
<path d="M240.866 136.88L258.92 144.658C258.92 144.658 267.259 146.32 268.094 147.431C268.906 148.546 269.567 149.763 270.061 151.05C270.346 151.876 268.399 151.876 268.399 151.876C268.399 151.876 270.622 154.934 269.786 155.809C268.95 156.684 268.124 156.92 267.563 155.809C267.183 155.103 266.605 154.522 265.902 154.137L260.621 152.476L257.563 148.542C257.563 148.542 231.996 146.045 229.784 145.209C227.571 144.373 219.223 132.425 219.223 132.425L223.392 127.42L240.866 136.88Z" fill="#D4D4D4" stroke="#263238" stroke-linecap="round" stroke-linejoin="round"/>
<path d="M269.827 245.096C269.306 244.309 263.819 243.788 260.426 242.746C257.227 241.605 254.092 240.292 251.035 238.812C251.035 238.812 266.7 185.034 266.7 182.939C266.7 180.117 260.013 178.426 257.958 177.442C249.611 173.373 240.973 169.928 232.116 167.137C228.055 165.898 223.777 165.347 219.864 163.656C216.363 162.142 215.694 160.037 215.694 160.037L184.001 157.54L182.89 160.037C182.89 160.037 182.821 160.431 182.723 161.08C182.33 163.705 181.435 170.431 182.33 171.995C183.441 173.961 189.282 179.498 195.674 181.169C212.872 185.653 227.77 192.969 245.981 192.232C245.48 194.651 242.943 207.139 242.943 211.141C242.943 215.576 241.635 233.325 241.635 233.325C241.635 233.325 240.848 246.109 240.071 249.511C239.294 252.913 240.071 252.127 242.156 252.127C244.241 252.127 263.298 250.553 265.913 249.511C268.529 248.469 270.348 245.883 269.827 245.096Z" fill="#263238" stroke="#263238" stroke-linecap="round" stroke-linejoin="round"/>
<path d="M247.955 230.798C247.464 235.41 247.09 238.773 247.09 238.773" stroke="#263238" stroke-linecap="round" stroke-linejoin="round"/>
<path d="M240.5 180.058C248.603 183.333 253.932 185.791 253.932 185.791L249.94 188.407H257.059L254.503 190.373L256.784 191.229C256.784 191.229 251.091 199.774 250.235 208.929C249.812 213.383 249.055 220.64 248.396 226.885" stroke="#757575" stroke-linecap="round" stroke-linejoin="round"/>
<path d="M206.844 167.363C209.666 168.494 216.254 171.061 227.159 174.974C231.093 176.39 234.849 177.816 238.192 179.134" stroke="#757575" stroke-linecap="round" stroke-linejoin="round"/>
<path d="M195.821 162.722C195.821 162.722 189.271 167.285 191.553 166.999C193.834 166.714 201.809 163.007 201.239 164.718C200.71 166.105 200.052 167.438 199.272 168.701L205.251 166.734" stroke="#757575" stroke-linecap="round" stroke-linejoin="round"/>
<path d="M260.404 242.746C257.205 241.605 254.07 240.292 251.014 238.812C251.014 238.812 248.447 242.539 241.092 240.523C240.895 243.535 240.547 246.535 240.049 249.511C239.263 252.904 240.049 252.127 242.134 252.127C244.219 252.127 263.276 250.553 265.891 249.511C268.507 248.469 270.326 245.863 269.825 245.076C269.323 244.29 263.817 243.788 260.404 242.746Z" fill="white" stroke="#263238" stroke-linecap="round" stroke-linejoin="round"/>
<path d="M251.035 238.832L251.468 237.318C251.195 237.776 251.046 238.298 251.035 238.832Z" stroke="#263238" stroke-linecap="round" stroke-linejoin="round"/>
<path d="M260.404 242.746C257.205 241.605 254.07 240.292 251.014 238.812C250.748 241.684 250.748 243.247 250.748 243.247L240.797 243.818C240.647 245.727 240.397 247.628 240.049 249.511C239.263 252.904 240.049 252.127 242.134 252.127C244.219 252.127 263.276 250.553 265.891 249.511C268.507 248.469 270.326 245.863 269.825 245.076C269.323 244.29 263.817 243.788 260.404 242.746Z" fill="#03D64F" stroke="#263238" stroke-linecap="round" stroke-linejoin="round"/>
<path d="M241.192 235.921L241.113 240.543C241.113 240.543 242.746 242.343 247.397 241.458C252.048 240.573 252.313 238.35 252.313 238.35L252.972 233.434C251.289 234.642 249.372 235.488 247.344 235.916C245.316 236.344 243.221 236.346 241.192 235.921Z" fill="#616161" stroke="#263238" stroke-linecap="round" stroke-linejoin="round"/>
<path d="M242.154 252.146C244.238 252.146 263.295 250.573 265.911 249.531C268.143 248.636 269.844 246.581 269.903 245.538C261.457 249.531 240.069 249.531 240.069 249.531C239.282 252.923 240.069 252.146 242.154 252.146Z" fill="white" stroke="#263238" stroke-linecap="round" stroke-linejoin="round"/>
<path d="M266.699 151.325C266.699 151.325 270.318 151.05 272.255 152.987C274.192 154.924 275.313 160.765 278.371 163.273C281.43 165.78 284.763 163.823 287.221 160.49C289.68 157.156 291.214 153.449 290.378 151.777C289.542 150.106 275.382 152.889 275.382 152.889" stroke="#263238" stroke-width="4" stroke-miterlimit="10" stroke-linecap="round"/>
<path d="M222.174 86.5529C222.174 86.5529 218.447 85.1369 213.097 87.4182C207.748 89.6996 200.766 95.8749 197.669 102.503C194.571 109.13 191.346 123.684 190.402 129.279C189.458 134.874 186.882 143.527 186.026 146.743C183.824 155.062 180.834 162.653 182.594 162.653C184.355 162.653 196.725 161.296 203.382 162.653C210.039 164.01 216.913 164.895 219.115 163.135C219.686 162.663 218.447 161.168 218.87 159.202C220.01 153.882 222.331 145.13 222.498 144.147C222.724 142.79 231.869 127.253 234.682 119.976C237.494 112.7 236.501 98.4512 235.468 95.0981C234.436 91.7449 226.687 87.0741 225.92 86.9462C225.153 86.8184 222.174 86.5529 222.174 86.5529Z" fill="#03D64F" stroke="#263238" stroke-linecap="round" stroke-linejoin="round"/>
<path d="M233.461 92.6102C234.069 95.5822 234.398 98.6042 234.444 101.637C234.444 106.318 235.27 113.093 235.27 113.093L237.788 117.213C237.788 117.213 240.905 105.689 239.656 98.5299C238.407 91.3712 233.461 92.6102 233.461 92.6102Z" fill="#263238" stroke="#263238" stroke-linecap="round" stroke-linejoin="round"/>
<path d="M199.32 117.774L196.508 118.855" stroke="#263238" stroke-linecap="round" stroke-linejoin="round"/>
<path d="M198.109 112.641L213.951 112.198L202.702 116.486" stroke="#263238" stroke-linecap="round" stroke-linejoin="round"/>
<path d="M213.531 159.457C209.942 158.376 204.789 156.881 200.836 155.986" stroke="#263238" stroke-linecap="round" stroke-linejoin="round"/>
<path d="M217.807 160.775L215.84 160.155" stroke="#263238" stroke-linecap="round" stroke-linejoin="round"/>
<path d="M200.184 153.813C203.812 154.445 207.379 155.393 210.843 156.645" stroke="#263238" stroke-linecap="round" stroke-linejoin="round"/>
<path d="M195.3 139.771C194.376 140.666 193.461 141.511 192.566 142.278" stroke="#263238" stroke-linecap="round" stroke-linejoin="round"/>
<path d="M212.587 118.993C208.237 125.084 203.539 130.918 198.516 136.467" stroke="#263238" stroke-linecap="round" stroke-linejoin="round"/>
<path d="M220.697 109.12C220.697 109.12 214.188 116.623 207.619 122.523C201.05 128.423 185.809 141.826 185.809 141.826C185.809 141.826 205.751 134.048 216.292 122.523C226.833 110.999 227.817 106.633 227.817 106.633C227.817 106.633 223.185 106.003 220.697 109.12Z" fill="#263238" stroke="#263238" stroke-linecap="round" stroke-linejoin="round"/>
<path d="M198.27 97.281C195.681 97.4664 193.081 97.4664 190.492 97.281C186.44 96.9663 179.587 96.2976 177.404 101.332C175.221 106.367 175.85 107.871 175.23 112.542C174.611 117.213 169.458 118.836 171.022 120.409C172.585 121.982 170.619 124.283 170.619 124.283C170.619 124.283 167.836 131.875 168.77 136.546C169.704 141.216 180.835 143.704 183.323 144.019C185.811 144.334 186.745 143.036 190.492 135.297C192.311 131.354 193.871 127.298 195.163 123.152C195.782 121.284 198.27 104.469 198.899 102.286C199.529 100.103 199.519 96.9565 198.27 97.281Z" fill="#263238" stroke="#263238" stroke-linecap="round" stroke-linejoin="round"/>
<path d="M174.765 121.54C177.108 122.121 179.496 122.496 181.904 122.661C186.408 123.035 190.912 120.035 190.528 123.408C190.145 126.781 185.611 140.302 182.278 141.806C178.944 143.311 169.141 140.302 169.141 134.667C169.141 129.033 174.765 121.54 174.765 121.54Z" fill="#666666" stroke="#263238" stroke-linecap="round" stroke-linejoin="round"/>
<path d="M249.747 66.8665L250.131 69.4822L249.059 72.5993C249.059 72.5993 250.544 78.4994 250.672 79.3745C250.799 80.2497 246.394 81.9607 246.394 81.9607C246.394 81.9607 244.673 89.0899 242.874 89.8765C241.074 90.6632 233.748 86.9265 233.748 86.9265L231.447 100.988L217.848 86.7397L220.09 74.8118L217.828 65.3718L249.747 66.8665Z" fill="white" stroke="#263238" stroke-linecap="round" stroke-linejoin="round"/>
<path d="M237.324 67.25C237.324 67.25 237.609 68.548 236.882 69.2166C236.223 69.6674 235.491 70.0001 234.718 70.2L234.069 72.5895L232.24 72.2846L231.926 65.9913L237.324 67.25Z" fill="#263238" stroke="#263238" stroke-linecap="round" stroke-linejoin="round"/>
<path d="M250.131 69.4821L238.812 66.6305L249.619 65.6963L250.131 69.4821Z" fill="#263238" stroke="#263238" stroke-linecap="round" stroke-linejoin="round"/>
<path d="M248.671 70.4065C248.152 70.0442 247.559 69.8016 246.935 69.6962C246.311 69.5907 245.672 69.6251 245.062 69.7968" stroke="#263238" stroke-linecap="round" stroke-linejoin="round"/>
<path d="M244.091 83.3176C244.091 83.3176 240.708 83.239 240.246 80.2595" stroke="#263238" stroke-linecap="round" stroke-linejoin="round"/>
<path d="M246.934 73.0713C246.767 74.0547 246.383 74.8315 246.078 74.7823C245.773 74.7332 245.665 73.8777 245.832 72.8845C246 71.8913 246.383 71.1243 246.688 71.1735C246.993 71.2227 247.101 72.0683 246.934 73.0713Z" fill="#263238"/>
<path d="M250.454 65.4898C250.454 65.4898 251.506 55.9514 249.225 53.0014C246.944 50.0514 234.475 47.0228 232.99 47.4554C231.936 47.7825 230.91 48.1936 229.922 48.6846C226.93 49.7844 224.013 51.0786 221.19 52.5589C218.614 54.1323 218.486 54.1028 217.66 57.4756C216.834 60.8484 216.824 67.4663 216.824 67.4663L250.454 65.4898Z" fill="#03D64F" stroke="#263238" stroke-linecap="round" stroke-linejoin="round"/>
<path d="M228.496 64.5065C228.496 64.5065 250.129 63.5232 254.171 64.1427C258.212 64.7622 262.559 64.9884 262.559 64.9884C262.559 64.9884 251.644 66.3257 246.039 67.1714C240.434 68.017 230.689 67.84 230.689 67.84L228.496 64.5065Z" fill="#03D64F" stroke="#263238" stroke-linecap="round" stroke-linejoin="round"/>
<path d="M226.973 62.9725C226.662 60.396 226.769 57.7862 227.288 55.2435C227.884 52.9541 228.769 50.7501 229.923 48.6846C229.923 48.6846 224.318 48.6846 222.882 51.3691C221.447 54.0537 223.315 64.6638 223.315 64.6638L227.032 64.9687L226.973 63.5232V62.9725Z" fill="#263238" stroke="#263238" stroke-linecap="round" stroke-linejoin="round"/>
<path d="M232.765 72.4714C232.398 73.9837 231.591 75.3531 230.445 76.4063C229.3 77.4596 227.867 78.1495 226.33 78.3886C224.792 78.6278 223.218 78.4056 221.807 77.75C220.395 77.0944 219.21 76.035 218.401 74.7057C217.592 73.3764 217.195 71.837 217.261 70.2822C217.327 68.7275 217.852 67.2272 218.771 65.9711C219.69 64.7151 220.96 63.7598 222.422 63.226C223.884 62.6922 225.471 62.604 226.983 62.9724C229.009 63.4661 230.756 64.744 231.84 66.5252C232.924 68.3064 233.257 70.4451 232.765 72.4714Z" fill="#263238" stroke="#263238" stroke-linecap="round" stroke-linejoin="round"/>
<path d="M229.666 71.7143C229.448 72.6117 228.969 73.4241 228.289 74.0491C227.609 74.674 226.759 75.0834 225.846 75.2255C224.934 75.3675 224 75.2359 223.162 74.8473C222.324 74.4586 221.621 73.8304 221.14 73.0419C220.659 72.2534 220.423 71.3402 220.461 70.4175C220.499 69.4948 220.81 68.6041 221.354 67.8579C221.898 67.1118 222.651 66.5437 223.518 66.2255C224.385 65.9073 225.327 65.8531 226.225 66.07C227.429 66.3635 228.467 67.1226 229.112 68.1807C229.758 69.2388 229.957 70.5096 229.666 71.7143Z" fill="#666666" stroke="#263238" stroke-linecap="round" stroke-linejoin="round"/>
<path d="M233.746 86.9757L230.039 85.3237L232.36 94.5867L233.746 86.9757Z" fill="#263238" stroke="#263238" stroke-linecap="round" stroke-linejoin="round"/>
<path d="M198.268 97.2811C198.268 97.2811 203.184 89.9749 214.463 87.3101C219.842 86.0514 223.815 89.4931 225.683 92.2956C227.552 95.0981 227.856 100.703 227.856 100.703C227.856 100.703 219.449 91.0566 216.961 91.0566C214.473 91.0566 200.49 96.1994 197.668 102.503L198.268 97.2811Z" fill="#263238" stroke="#263238" stroke-linecap="round" stroke-linejoin="round"/>
<path d="M205.496 107.518C205.496 107.518 227.198 131.275 229.922 132.514C232.646 133.753 274.29 147.362 274.29 147.362C274.329 148.039 274.542 148.695 274.909 149.265C275.276 149.835 275.785 150.301 276.385 150.617C277.681 151.165 279.033 151.571 280.416 151.827C280.416 151.827 279.728 154.354 281.016 154.57C282.304 154.786 286.808 156.34 287.713 155.691C288.617 155.042 289.866 150.774 289.561 149.388C289.257 148.001 275.362 142.505 275.362 142.505L240.395 122.1C240.395 122.1 226.126 96.6812 222.262 92.856C218.397 89.0308 210.895 92.8068 210.895 92.8068" fill="white"/>
<path d="M205.496 107.518C205.496 107.518 227.198 131.275 229.922 132.514C232.646 133.753 274.29 147.362 274.29 147.362C274.329 148.039 274.542 148.695 274.909 149.265C275.276 149.835 275.785 150.301 276.385 150.617C277.681 151.165 279.033 151.571 280.416 151.827C280.416 151.827 279.728 154.354 281.016 154.57C282.304 154.786 286.808 156.34 287.713 155.691C288.617 155.042 289.866 150.774 289.561 149.388C289.257 148.001 275.362 142.505 275.362 142.505L240.395 122.1C240.395 122.1 226.126 96.6812 222.262 92.856C218.397 89.0308 210.895 92.8068 210.895 92.8068" stroke="#263238" stroke-linecap="round" stroke-linejoin="round"/>
<path d="M205.496 107.518C205.496 107.518 212.084 114.735 218.456 121.422L235.173 113.093C230.679 105.384 224.533 95.1668 222.193 92.856C218.338 89.0308 210.826 92.8068 210.826 92.8068" fill="#03D64F"/>
<path d="M205.496 107.518C205.496 107.518 212.084 114.735 218.456 121.422L235.173 113.093C230.679 105.384 224.533 95.1668 222.193 92.856C218.338 89.0308 210.826 92.8068 210.826 92.8068" stroke="#263238" stroke-linecap="round" stroke-linejoin="round"/>
<path d="M283.749 150.794L282.973 155.435" stroke="#263238" stroke-linecap="round" stroke-linejoin="round"/>
<path d="M286.238 150.155L285.078 155.524" stroke="#263238" stroke-linecap="round" stroke-linejoin="round"/>
<path d="M288.301 150.499L287.691 155.691" stroke="#263238" stroke-linecap="round" stroke-linejoin="round"/>
<path d="M475.754 451.527C434.592 332.544 309.816 260.76 183.93 288.667C142.069 297.935 103.28 317.768 71.2577 346.277C39.2356 374.786 15.048 411.02 1 451.527H475.754Z" fill="#6DE799" stroke="#263238" stroke-miterlimit="10"/>
<path d="M41.5633 400.433C32.9742 413.106 25.6212 426.574 19.6055 440.652" stroke="#263238" stroke-miterlimit="10"/>
<path d="M226.517 436.964L232.722 448.42L227.196 452.275H252.586L253.677 449.266L250.058 438.459L238.671 436.709L229.939 427.652L204.333 422.352L200.449 426.875L209.506 434.634L226.517 436.964Z" fill="white" stroke="#263238" stroke-miterlimit="10"/>
<path d="M92.3707 443.543L103.62 451.527H214.049L212.416 439.491L206.143 441.458L200.901 437.19L197.214 428.842L193.015 429.166L192.75 439L186.653 441.556L179.219 421.831L173.87 419.953L164.941 418.271L156.661 424.997L170.762 433.473L175.286 442.845L150.84 431.782L132.796 419.304L128.144 403.836L111.978 402.547L102.007 412.696C99.5665 415.034 96.9995 417.236 94.3177 419.294C91.6627 421.103 80.8558 424.722 80.8558 424.722L80.728 435.135L67.4727 438.695L70.0588 444.841L92.3707 443.543Z" fill="white" stroke="#263238" stroke-miterlimit="10"/>
<path d="M420.225 415.331L411.375 405.694L400.381 394.691L394.137 377.748L405.003 377.168L404.295 371.268L396.625 372.29L402.387 367.954L408.464 362.329L407.166 356.557L398.119 348.789L393.842 336.595C350.811 302.723 297.898 283.825 243.144 282.774C188.391 281.723 134.792 298.577 90.4927 330.774L106.02 337.284L100.198 349.575L89.6569 354.354L91.9874 370.324L87.7197 373.107L83.3242 380.796L86.2742 391.151L96.4222 390.118L94.5539 400.935L104.446 398.742L116.541 373.451L116.227 363.745L132.265 358.966L134.782 351.099L151.253 345.573L150.801 335.287L162.896 331.983C162.896 331.983 170.595 325.395 172.336 325.002C174.076 324.608 182.877 325.72 182.877 325.72L193.163 330.764L205.336 328.04L214.393 319.308L228.042 317.499C228.042 317.499 232.054 319.053 234.925 318.404C237.796 317.755 245.663 311.746 245.663 311.746L264.868 318.472L273.019 322.16L274.986 330.892L283.974 330.115L285.724 324.215L294.073 326.024L294.525 330.813L278.103 339.378L290.887 349.988L314.428 356.98L325.746 366.676L338.814 364.994L340.437 358.534L344.832 356.331L327.132 348.051L317.555 348.956L324.605 344.944L315.421 336.605L325.195 333.822L339.552 337.962L345.56 351.286L353.643 357.432L362.631 373.166L377.509 379.636L381.747 398.84L397.087 404.593L397.923 411.122L397.854 419.077L403.675 428.783L406.006 433.759L416.291 433.306L418.75 422.381L420.225 415.331Z" fill="white" stroke="#263238" stroke-miterlimit="10"/>
<path d="M418.232 376.066L425.115 376.981L427.573 388.024L419.933 386.667L425.213 418.507L421.073 432.864L429.343 448.135L436.482 452.285H476.002C463.441 415.539 442.481 382.229 414.79 355.003L415.537 358.347L414.672 368.357L418.232 376.066Z" fill="white" stroke="#263238" stroke-miterlimit="10"/>
<path d="M279.49 381.229L237.325 372.88L220.569 377.207L218.956 389.174L210.283 383.156L198.129 388.909L201.226 408.379L213.39 413.62L218.494 400.876L229.173 407.671L250.708 419.382L257.945 435.489L277.346 451.331L300.897 441.832L298.37 433.228L290.936 424.496L284.603 401.466L288.222 390.285L279.49 381.229Z" fill="white" stroke="#263238" stroke-miterlimit="10"/>
<path d="M313.768 387.05L304.525 386.657L298.379 394.74L306.196 410.719L313.768 409.038V387.05Z" fill="white" stroke="#263238" stroke-miterlimit="10"/>
<path d="M370.359 386.086L348.244 380.009L342.619 373.923L338.352 376.705L345.009 387.443L351.863 401.8L361.371 403.354L362.601 400.64L355.422 393.068L371.854 395.526L370.359 386.086Z" fill="white" stroke="#263238" stroke-miterlimit="10"/>
</svg>
