<svg width="55" height="55" viewBox="0 0 55 55" fill="none" xmlns="http://www.w3.org/2000/svg">
<g clip-path="url(#clip0_3894_14445)">
<path d="M33.0825 49.1164C32.4521 49.1164 31.8587 49.2266 31.2653 49.3368C30.6719 49.447 29.9672 49.5205 29.2997 49.5205C28.0387 49.5205 26.7777 49.2266 25.5168 49.0062C23.069 48.6021 20.5471 48.3082 18.1736 47.4265C16.0596 46.6183 14.2794 45.3326 12.8701 43.5692C11.4608 41.8059 10.4224 40.1895 9.05016 38.5731C7.67795 36.9567 6.89912 34.826 6.52825 32.6953C6.12029 30.5646 6.00903 28.3237 6.00903 26.1195C6.00903 23.9153 6.37991 21.2703 7.19582 18.9927C7.97465 16.7518 9.19852 14.7313 10.7191 12.9312C12.3138 11.0209 14.2053 9.55146 16.3563 8.26569C18.5074 6.97992 19.7683 6.50235 21.5856 6.06152C23.4028 5.62068 25.8877 5.36353 28.0387 5.51048C30.1898 5.65742 32.2666 6.35541 34.3064 7.27382C38.5343 9.1841 42.6139 12.0495 45.2471 15.9068C47.8802 19.7641 48.8074 23.5112 48.8445 27.6624C48.9187 31.8504 47.8061 36.2955 45.1729 39.6385C43.7265 41.4753 41.8721 42.908 40.092 44.3774C39.1277 45.1489 38.2376 45.9938 37.2734 46.7285C36.3091 47.4633 35.419 47.9408 34.3806 48.3449C33.3421 48.749 33.3792 48.7123 32.86 48.896C32.3408 49.0797 32.2666 49.1899 31.9699 49.4103C31.6732 49.6307 32.1924 49.594 32.2666 49.594C32.5633 49.594 32.9342 49.4838 33.1567 49.3001L33.5276 49.0062L33.1567 49.1899C34.3064 48.8225 35.4561 48.3817 36.5316 47.8306C37.6071 47.2796 38.5343 46.5816 39.4244 45.7734C41.2046 44.2305 43.1331 42.8345 44.8391 41.1814C46.5451 39.5282 47.769 37.7282 48.622 35.6342C49.475 33.5402 49.92 31.5565 50.1055 29.4258C50.4392 25.1644 49.5492 20.7928 47.4723 17.0824C45.1729 12.9679 41.39 9.88209 37.2363 7.71465C33.0825 5.54721 33.1196 5.65742 30.8944 5.29006C28.6692 4.92269 26.444 4.95943 24.2929 5.25332C19.9537 5.8411 15.8371 7.60444 12.4251 10.3229C9.01308 13.0414 8.82765 13.7761 7.5296 15.8701C6.23156 17.9641 5.41564 20.3152 5.00769 22.7398C4.59973 25.1644 4.6739 27.3685 4.82225 29.7197C4.9706 32.0708 5.26729 34.2015 6.12029 36.2587C6.97329 38.3159 8.56803 39.8221 9.82899 41.6222C11.0529 43.3488 12.2396 45.0754 13.9827 46.3244C15.7258 47.5735 18.3961 48.4551 20.7697 48.896C22.0306 49.1164 23.2545 49.3001 24.5154 49.5205C25.7764 49.7409 27.0744 49.9981 28.3725 50.0348C29.6705 50.0715 29.6705 50.0348 30.301 49.9246C30.9315 49.8144 31.5249 49.6674 32.1183 49.6307C32.7117 49.594 32.7858 49.5572 33.0454 49.3736C33.3051 49.1899 33.268 49.1164 32.9713 49.1164L33.0825 49.1164Z" fill="#2E2E2E"/>
<path d="M0.705046 27.1112C0.890478 31.9604 1.22426 37.6912 4.59918 41.3649C7.89992 45.0752 9.23505 49.0427 14.0934 51.3204C17.6538 53.0837 22.1042 53.4144 25.9242 54.1491C27.7044 54.5164 29.67 54.6634 31.3389 54.4062C32.229 54.2226 34.1946 53.7083 34.1946 53.7083C36.8649 52.8266 38.9788 51.9449 41.204 49.9244C44.9498 46.6549 49.0294 44.1201 51.44 39.7117C56.4097 30.5644 54.815 17.9639 47.6201 10.3962C43.6147 6.17154 38.5709 3.26938 33.1191 1.32236C28.8541 -0.183829 21.6592 0.44069 17.4684 2.20403C14.7981 3.26938 14.1676 3.71021 11.7941 5.17966C8.93836 7.01648 6.45353 9.58801 4.59918 12.4167C1.66931 16.6414 0.51961 22.1151 0.705046 27.1112ZM8.64166 15.0617C10.1622 12.7473 12.2391 10.6534 14.5756 9.11044C16.5412 7.86141 17.0604 7.53079 19.2485 6.64911C22.6976 5.2164 28.6315 4.70209 32.1177 5.91439C36.5682 7.49405 40.759 9.91864 44.0597 13.3718C49.9937 19.617 51.2917 29.9766 47.2121 37.5076C45.2465 41.1445 41.8716 43.2384 38.7934 45.9202C36.9761 47.5733 35.1959 48.308 33.0078 49.0427L32.674 49.2999L32.5999 49.2999C31.8952 49.2999 31.4131 49.4468 30.7084 49.5938C29.2991 49.8142 27.7044 49.6673 26.258 49.3734C23.1056 48.7856 19.434 48.4917 16.5412 47.059C12.4987 45.1854 11.4232 41.9159 8.71583 38.8668C5.93431 35.8177 5.63761 31.1155 5.48926 27.1112C5.34091 22.96 6.30518 18.4782 8.71584 14.9882L8.64166 15.0617Z" fill="#FF6600"/>
<path d="M33.8228 53.5981C33.044 53.5981 32.2652 53.7818 31.4863 53.9287C30.7075 54.0757 29.9658 54.1124 29.224 54.0757C27.6664 54.0022 26.1829 53.6716 24.6623 53.4511C21.6954 52.9736 18.6913 52.6062 15.9098 51.5409C13.1283 50.4755 11.2739 49.0061 9.56793 46.8754C7.86192 44.7447 8.08445 44.8916 7.3798 43.8997C6.67515 42.9078 5.78505 41.8425 4.93205 40.8139C3.22605 38.7934 2.37305 36.1851 1.92801 33.6136C1.48296 31.042 1.29753 28.2501 1.33462 25.5683C1.37171 22.8866 1.85384 19.764 2.85518 17.0455C3.85653 14.327 5.41419 11.8657 7.34271 9.69828C9.27123 7.53084 11.5335 5.84097 14.0555 4.33479C16.5774 2.8286 18.2463 2.24082 20.4715 1.68977C22.6967 1.13873 25.7008 0.808103 28.3339 0.955049C30.9671 1.102 30.7817 1.17547 31.9314 1.50609C33.0811 1.83672 34.5275 2.4245 35.7884 2.97554C40.9435 5.25319 45.8761 8.66967 49.1027 13.2984C52.3292 17.9272 53.5531 22.5192 53.6644 27.5888C53.7385 32.6217 52.4405 38.0219 49.251 42.0262C47.5079 44.2304 45.2827 45.957 43.1316 47.7203C40.9806 49.4836 40.9435 49.6306 39.7938 50.5123C38.6441 51.3939 37.5315 51.9817 36.2706 52.496C35.0096 53.0103 35.0096 52.9736 34.3791 53.194C33.7486 53.4144 33.6745 53.5246 33.3407 53.7818C32.636 54.3328 33.7116 54.7002 34.1937 54.3328C34.6758 53.9655 34.4533 54.1491 34.5275 54.0389C34.7129 53.8552 34.2308 54.1124 34.6016 54.0389C34.9725 53.9655 34.9725 53.9287 35.1579 53.8552C35.8255 53.6348 36.4931 53.3777 37.1236 53.0838C38.4216 52.5327 39.6826 51.798 40.7952 50.9163C41.9078 50.0347 43.0946 48.9693 44.2443 48.0509C45.394 47.1325 46.5066 46.2141 47.5821 45.2222C49.7331 43.2752 51.5133 41.071 52.7001 38.4628C53.8869 35.8545 54.5174 33.5401 54.8141 30.9318C55.4074 25.752 54.4803 20.3518 52.1067 15.6496C49.5106 10.58 45.1344 6.64917 40.1647 3.89395C38.8667 3.15922 37.4944 2.49797 36.0851 1.91019C34.6758 1.32241 33.5261 0.844843 32.191 0.514215C29.5578 -0.1103 26.7763 -0.110301 24.106 0.183591C18.8026 0.734635 13.7588 2.86534 9.56793 6.1716C7.15728 8.08188 5.15458 10.3963 3.52275 12.9678C1.92801 15.5026 0.926662 18.368 0.407443 21.3069C-0.111772 24.2458 -0.037599 27.001 0.147837 29.8665C0.333269 32.585 0.667051 35.3769 1.70549 37.9485C2.22471 39.1975 2.89227 40.373 3.74527 41.3649C4.59827 42.3568 5.45128 43.4589 6.26719 44.561C7.75067 46.6549 9.23414 48.7856 11.311 50.3286C13.7588 52.1286 16.7257 53.0103 19.6556 53.5614C22.5855 54.1124 22.6967 54.0757 24.2544 54.3328C25.812 54.59 27.4068 54.9573 29.0386 54.9941C30.6704 55.0308 30.6333 54.9941 31.3751 54.8471C32.1168 54.7002 32.8956 54.5165 33.6745 54.5165C34.4533 54.5165 34.3791 54.2961 34.4162 54.0022C34.4533 53.7083 34.0453 53.5981 33.8228 53.5981Z" fill="#2E2E2E"/>
<path d="M26.8131 25.7522C26.331 19.3234 26.2939 12.8578 26.739 6.42893C27.2211 12.8578 27.2582 19.3234 26.8131 25.7522Z" fill="#2E2E2E"/>
<path d="M26.9245 49.2632C26.4423 43.3119 26.4053 37.3239 26.8503 31.3359C27.3324 37.2872 27.3695 43.2752 26.9245 49.2632Z" fill="#2E2E2E"/>
<path d="M29.0398 25.1643C32.3034 20.0212 35.938 15.172 39.9434 10.6168C36.6797 15.7598 33.0452 20.609 29.0398 25.1643Z" fill="#2E2E2E"/>
<path d="M14.1669 45.002C17.5047 39.7487 21.2505 34.7893 25.3301 30.087C21.9923 35.3403 18.2465 40.2997 14.1669 45.002Z" fill="#2E2E2E"/>
<path d="M30.3739 26.9644C36.0853 24.7969 41.9821 23.0336 47.9902 21.7478C42.2788 23.952 36.382 25.6786 30.3739 26.9644Z" fill="#2E2E2E"/>
<path d="M6.56373 34.0178C12.4976 31.7769 18.5799 29.9768 24.7734 28.6176C18.8395 30.8585 12.7573 32.6586 6.56373 34.0178Z" fill="#2E2E2E"/>
<path d="M30.4108 29.1318C36.3076 30.7849 42.0932 32.8789 47.6562 35.377C41.7594 33.7238 35.9738 31.6299 30.4108 29.1318Z" fill="#2E2E2E"/>
<path d="M7.08304 20.6824C13.1653 22.409 19.1363 24.5764 24.9219 27.1479C18.8025 25.4213 12.8686 23.2539 7.08304 20.6824Z" fill="#2E2E2E"/>
<path d="M29.2619 31.0789C32.9706 35.8546 36.3084 40.8875 39.2012 46.1775C35.4925 41.4018 32.1546 36.3689 29.2619 31.0789Z" fill="#2E2E2E"/>
<path d="M15.5766 10.3229C19.4336 15.3558 22.9569 20.6458 25.998 26.1562C22.141 21.1234 18.6548 15.8334 15.5766 10.3229Z" fill="#2E2E2E"/>
<path d="M22.9563 28.2869C22.9563 25.9725 24.8477 24.099 27.1842 24.099C29.5207 24.099 31.4121 25.9725 31.4121 28.2869C31.4121 30.6013 29.5207 32.4749 27.1842 32.4749C24.8477 32.4749 22.9563 30.6013 22.9563 28.2869Z" fill="#2E2E2E"/>
</g>
<defs>
<clipPath id="clip0_3894_14445">
<rect width="55" height="54.9942" fill="white" transform="translate(55 54.9941) rotate(-180)"/>
</clipPath>
</defs>
</svg>
