<svg width="56" height="55" viewBox="0 0 56 55" fill="none" xmlns="http://www.w3.org/2000/svg">
<g clip-path="url(#clip0_3894_13814)">
<path d="M49.1791 21.9124C49.1791 22.5417 49.2893 23.1339 49.3995 23.7261C49.5097 24.3183 49.5832 25.0216 49.5832 25.688C49.5832 26.9466 49.2893 28.2056 49.0689 29.4644C48.6647 31.9081 48.3708 34.4257 47.4891 36.7958C46.6808 38.9067 45.3949 40.6848 43.6315 42.0932C41.868 43.5016 40.2515 44.5397 38.6349 45.9109C37.0184 47.2822 34.8875 48.0616 32.7567 48.4338C30.6258 48.843 28.3847 48.9562 26.1804 48.9583C23.976 48.9604 21.3308 48.5927 19.053 47.7804C16.8119 47.0051 14.7912 45.7854 12.991 44.2693C11.0806 42.6793 9.611 40.7927 8.32513 38.6468C7.03926 36.5009 6.56165 35.2427 6.12078 33.4291C5.67991 31.6156 5.42274 29.1355 5.5697 26.9883C5.71665 24.841 6.4147 22.7672 7.33318 20.7303C9.24361 16.5083 12.1093 12.4334 15.9669 9.8014C19.8245 7.16937 23.5719 6.24034 27.7234 6.1994C31.9117 6.1214 36.3571 7.22777 39.7004 9.85299C41.5373 11.295 42.9702 13.1446 44.4397 14.9202C45.2112 15.882 46.0562 16.7696 46.791 17.7314C47.5258 18.6932 48.0034 19.5813 48.4075 20.6174C48.8117 21.6536 48.7749 21.6166 48.9586 22.1347C49.1423 22.6528 49.2525 22.7267 49.473 23.0227C49.6934 23.3186 49.6567 22.8004 49.6567 22.7263C49.6567 22.4302 49.5465 22.0601 49.3628 21.8382L49.0689 21.4682L49.2525 21.8383C48.8852 20.691 48.4443 19.5438 47.8932 18.4708C47.3421 17.3977 46.6441 16.4729 45.8358 15.5852C44.2928 13.8097 42.8967 11.886 41.2434 10.1847C39.5902 8.48338 37.7899 7.26344 35.6958 6.41397C33.6017 5.56451 31.6178 5.12215 29.4869 4.93907C25.2251 4.60992 20.8532 5.50252 17.1425 7.57912C13.0277 9.87822 9.94165 13.6571 7.77404 17.8053C5.60644 21.9536 5.71665 21.9165 5.34926 24.138C4.98187 26.3595 5.01861 28.5806 5.31252 30.7275C5.90035 35.0582 7.66383 39.1657 10.3825 42.5689C13.1012 45.9721 13.836 46.1565 15.9301 47.4502C18.0243 48.7439 20.3756 49.5561 22.8004 49.961C25.2251 50.366 27.4295 50.2898 29.7808 50.1395C32.1321 49.9892 34.263 49.6911 36.3204 48.8377C38.3778 47.9843 39.8841 46.391 41.6843 45.1306C43.411 43.9074 45.1378 42.7211 46.3869 40.98C47.636 39.2389 48.5178 36.5727 48.9586 34.203C49.1791 32.9442 49.3628 31.7223 49.5832 30.4635C49.8036 29.2046 50.0608 27.9087 50.0976 26.613C50.1343 25.3173 50.0975 25.3173 49.9873 24.6881C49.8771 24.0588 49.7302 23.4667 49.6934 22.8744C49.6567 22.2821 49.6199 22.2081 49.4362 21.9491C49.2525 21.6902 49.1791 21.7273 49.1791 22.0234L49.1791 21.9124Z" fill="#383838"/>
<path d="M27.171 54.2511C32.0206 54.0614 37.7519 53.7228 41.4258 50.3506C45.1365 47.0523 49.1043 45.7159 51.3822 40.8642C53.1456 37.3086 53.4763 32.866 54.2111 29.0523C54.5785 27.275 54.7254 25.3128 54.4682 23.6472C54.2845 22.7589 53.7702 20.7974 53.7702 20.7974C52.8885 18.1328 52.0067 16.0235 49.9861 13.8043C46.7163 10.0684 44.1813 5.99867 39.7726 3.59657C30.6245 -1.35538 18.023 0.248371 10.4547 7.4373C6.22972 11.4394 3.32733 16.4768 1.38016 21.9205C-0.12615 26.1791 0.498418 33.3603 2.2619 37.5419C3.32734 40.2063 3.7682 40.8352 5.23777 43.203C7.07472 46.0518 9.64647 48.5297 12.4754 50.3779C16.7004 53.2985 22.1745 54.4409 27.171 54.2511ZM15.1206 46.3403C12.806 44.8247 10.7119 42.7536 9.16886 40.4228C7.91973 38.462 7.58907 37.944 6.70733 35.7607C5.27451 32.3193 4.76016 26.3966 5.97255 22.9157C7.55234 18.4718 9.97712 14.2863 13.4306 10.9884C19.6763 5.05934 30.0367 3.75386 37.5682 7.81887C41.2054 9.77746 43.2995 13.1443 45.9815 16.2143C47.6348 18.0267 48.3695 19.803 49.1043 21.9864L49.3615 22.3193L49.3615 22.3934C49.3615 23.0968 49.5085 23.5779 49.6554 24.2811C49.8758 25.6876 49.7289 27.2796 49.435 28.7236C48.8471 31.8708 48.5532 35.5361 47.1204 38.4249C45.2467 42.4618 41.9769 43.5385 38.9276 46.2438C35.8782 49.0231 31.1756 49.3237 27.171 49.4756C23.0195 49.6276 18.5373 48.6693 15.0471 46.2664L15.1206 46.3403Z" fill="#03D64F"/>
<path d="M53.661 21.1678C53.661 21.9452 53.8447 22.7224 53.9916 23.4997C54.1386 24.277 54.1753 25.0173 54.1386 25.7578C54.0651 27.3126 53.7345 28.7937 53.514 30.3117C53.0364 33.2738 52.669 36.2727 51.6036 39.0501C50.5381 41.8276 49.0686 43.68 46.9377 45.3849C44.8068 47.0898 44.9538 46.8675 43.9618 47.5718C42.9699 48.2761 41.9044 49.1656 40.8757 50.018C38.8551 51.7228 36.2466 52.5768 33.6749 53.0234C31.1031 53.4701 28.311 53.6578 25.629 53.6233C22.947 53.5889 19.8242 53.1106 17.1055 52.1136C14.3868 51.1167 11.9253 49.5642 9.75768 47.6412C7.59007 45.7182 5.90007 43.4617 4.39376 40.9458C2.88746 38.4299 2.29963 36.7645 1.74854 34.5439C1.19745 32.3232 0.8668 29.325 1.01376 26.6965C1.16071 24.0679 1.23419 24.253 1.56484 23.1051C1.8955 21.9571 2.48332 20.5128 3.03441 19.2536C5.31224 14.1058 8.72898 9.17898 13.3581 5.95391C17.9872 2.72884 22.5796 1.50285 27.6497 1.387C32.6829 1.3082 38.0836 2.59877 42.0881 5.77866C44.2925 7.51649 46.0192 9.73602 47.7827 11.8815C49.5462 14.0269 49.6931 14.0638 50.5749 15.2106C51.4566 16.3574 52.0444 17.4674 52.5588 18.7256C53.0731 19.9837 53.0364 19.9838 53.2568 20.6129C53.4773 21.242 53.5875 21.3159 53.8447 21.6489C54.3958 22.3517 54.7631 21.2778 54.3958 20.7969C54.0284 20.316 54.2121 20.5379 54.1018 20.464C53.9181 20.2791 54.1753 20.7601 54.1018 20.39C54.0284 20.0199 53.9916 20.0199 53.9181 19.8349C53.6977 19.1687 53.4405 18.5026 53.1466 17.8736C52.5955 16.5784 51.8608 15.3204 50.979 14.2107C50.0973 13.1009 49.0318 11.9173 48.1134 10.7706C47.1949 9.62385 46.2764 8.51414 45.2844 7.44151C43.3373 5.29622 41.1329 3.52138 38.5244 2.33922C35.916 1.15706 33.6014 0.529923 30.9929 0.236234C25.8127 -0.351178 20.412 0.579416 15.7094 2.95311C10.6394 5.54926 6.70833 9.92127 3.95289 14.8845C3.21811 16.1809 2.55681 17.5512 1.96898 18.9585C1.38115 20.3658 0.903544 21.5138 0.57289 22.8469C-0.0516754 25.4758 -0.0516755 28.2523 0.242239 30.9174C0.793325 36.2107 2.9242 41.2433 6.23072 45.4234C8.14116 47.8278 10.4557 49.8247 13.0275 51.4511C15.5625 53.0406 18.4281 54.0374 21.3673 54.5529C24.3064 55.0684 27.0618 54.9917 29.9275 54.8039C32.6462 54.6162 35.4384 54.2804 38.0101 53.2414C39.2592 52.722 40.4349 52.0545 41.4268 51.2021C42.4188 50.3498 43.521 49.4973 44.6231 48.6818C46.7173 47.199 48.8481 45.7162 50.3912 43.6417C52.1914 41.1967 53.0731 38.2343 53.6242 35.3093C54.1753 32.3842 54.1386 32.2732 54.3958 30.7181C54.6529 29.1631 55.0203 27.5709 55.0571 25.942C55.0938 24.3131 55.0571 24.3502 54.9101 23.6099C54.7631 22.8697 54.5795 22.0924 54.5795 21.315C54.5795 20.5376 54.359 20.6119 54.0651 20.5751C53.7712 20.5384 53.661 20.9457 53.661 21.1678Z" fill="#383838"/>
<path d="M25.8125 28.1907C19.3831 28.678 12.9171 28.7211 6.4877 28.283C12.9171 27.7957 19.3831 27.7525 25.8125 28.1907Z" fill="#383838"/>
<path d="M49.3262 28.0574C43.3744 28.5443 37.3859 28.5869 31.3975 28.1484C37.3492 27.6615 43.3377 27.6188 49.3262 28.0574Z" fill="#383838"/>
<path d="M25.2246 25.9701C20.0811 22.7173 15.2316 19.094 10.6759 15.1002C15.8194 18.353 20.669 21.9764 25.2246 25.9701Z" fill="#383838"/>
<path d="M45.0645 40.7962C39.8108 37.4694 34.851 33.7351 30.1484 29.6674C35.4021 32.9942 40.3618 36.7285 45.0645 40.7962Z" fill="#383838"/>
<path d="M27.0254 24.6357C24.8578 18.9368 23.0943 13.0524 21.8084 7.05645C24.0128 12.7554 25.7395 18.6398 27.0254 24.6357Z" fill="#383838"/>
<path d="M34.0781 48.3955C31.837 42.4746 30.0368 36.4051 28.6775 30.2241C30.9186 36.1451 32.7188 42.2146 34.0781 48.3955Z" fill="#383838"/>
<path d="M29.1918 24.5967C30.8451 18.709 32.9392 12.932 35.4375 7.37671C33.7842 13.2644 31.6901 19.0414 29.1918 24.5967Z" fill="#383838"/>
<path d="M20.7429 47.8899C22.4696 41.817 24.6372 35.8549 27.209 30.0774C25.4822 36.1872 23.3146 42.1124 20.7429 47.8899Z" fill="#383838"/>
<path d="M31.1385 25.7424C35.9146 22.0359 40.9478 18.6994 46.2383 15.8069C41.4622 19.5133 36.4289 22.8499 31.1385 25.7424Z" fill="#383838"/>
<path d="M10.3822 39.4223C15.4155 35.5675 20.7059 32.0457 26.2168 29.0049C21.1835 32.8597 15.8931 36.3445 10.3822 39.4223Z" fill="#383838"/>
<path d="M28.3469 32.0384C26.0323 32.0406 24.1586 30.1544 24.1586 27.8221C24.1586 25.4899 26.0323 23.6001 28.3469 23.598C30.6615 23.5958 32.5352 25.482 32.5352 27.8142C32.5352 30.1464 30.6615 32.0362 28.3469 32.0384Z" fill="#383838"/>
</g>
<defs>
<clipPath id="clip0_3894_13814">
<rect width="54.8998" height="54.9985" fill="white" transform="matrix(-4.37114e-08 1 -1 0.000945702 55.0566 0.0283203)"/>
</clipPath>
</defs>
</svg>
